NotoSansMyanmarUI-Condensed.ufo
<glyph name="question" format="2">
  <advance width="318"/>
  <unicode hex="003F"/>
  <outline>
    <contour>
      <point x="98" y="378" type="line"/>
      <point x="164" y="378" type="line"/>
      <point x="166" y="388" type="line" smooth="yes"/>
      <point x="168" y="400"/>
      <point x="175" y="424"/>
      <point x="215" y="471" type="curve" smooth="yes"/>
      <point x="272" y="539"/>
      <point x="297" y="576"/>
      <point x="297" y="653" type="curve" smooth="yes"/>
      <point x="297" y="748"/>
      <point x="243" y="801"/>
      <point x="145" y="801" type="curve" smooth="yes"/>
      <point x="98" y="801"/>
      <point x="54" y="787"/>
      <point x="12" y="759" type="curve"/>
      <point x="43" y="702" type="line"/>
      <point x="76" y="722"/>
      <point x="104" y="734"/>
      <point x="141" y="734" type="curve" smooth="yes"/>
      <point x="188" y="734"/>
      <point x="216" y="704"/>
      <point x="216" y="647" type="curve" smooth="yes"/>
      <point x="216" y="595"/>
      <point x="198" y="559"/>
      <point x="151" y="504" type="curve" smooth="yes"/>
      <point x="110" y="457"/>
      <point x="102" y="418"/>
      <point x="100" y="396" type="curve" smooth="yes"/>
    </contour>
    <contour>
      <point x="133" y="140" type="curve" smooth="yes"/>
      <point x="184" y="140"/>
      <point x="221" y="175"/>
      <point x="221" y="235" type="curve" smooth="yes"/>
      <point x="221" y="292"/>
      <point x="184" y="328"/>
      <point x="133" y="328" type="curve" smooth="yes"/>
      <point x="81" y="328"/>
      <point x="47" y="292"/>
      <point x="47" y="234" type="curve" smooth="yes"/>
      <point x="47" y="175"/>
      <point x="82" y="140"/>
    </contour>
    <contour>
      <point x="134" y="185" type="curve" smooth="yes"/>
      <point x="110" y="185"/>
      <point x="98" y="202"/>
      <point x="98" y="234" type="curve" smooth="yes"/>
      <point x="98" y="265"/>
      <point x="113" y="283"/>
      <point x="134" y="283" type="curve" smooth="yes"/>
      <point x="155" y="283"/>
      <point x="170" y="265"/>
      <point x="170" y="234" type="curve" smooth="yes"/>
      <point x="170" y="202"/>
      <point x="155" y="185"/>
    </contour>
  </outline>
</glyph>
<glyph name="ga" format="2">
  <advance width="508"/>
  <unicode hex="1002"/>
  <note>
ga
</note>
  <outline>
    <contour>
      <point x="140" y="140" type="curve"/>
      <point x="183" y="193" type="line"/>
      <point x="142" y="235"/>
      <point x="122" y="299"/>
      <point x="122" y="379" type="curve" smooth="yes"/>
      <point x="122" y="502"/>
      <point x="167" y="576"/>
      <point x="254" y="576" type="curve" smooth="yes"/>
      <point x="341" y="576"/>
      <point x="386" y="502"/>
      <point x="386" y="379" type="curve" smooth="yes"/>
      <point x="386" y="299"/>
      <point x="366" y="235"/>
      <point x="325" y="193" type="curve"/>
      <point x="368" y="140" type="line"/>
      <point x="426" y="184"/>
      <point x="469" y="282"/>
      <point x="469" y="380" type="curve" smooth="yes"/>
      <point x="469" y="532"/>
      <point x="391" y="640"/>
      <point x="254" y="640" type="curve" smooth="yes"/>
      <point x="117" y="640"/>
      <point x="39" y="533"/>
      <point x="39" y="380" type="curve" smooth="yes"/>
      <point x="39" y="279"/>
      <point x="82" y="183"/>
    </contour>
  </outline>
</glyph>
<glyph name="gha" format="2">
  <advance width="840"/>
  <unicode hex="1003"/>
  <note>
gha
</note>
  <outline>
    <contour>
      <point x="244" y="140" type="curve" smooth="yes"/>
      <point x="375" y="140"/>
      <point x="459" y="251"/>
      <point x="459" y="399" type="curve" smooth="yes"/>
      <point x="459" y="495"/>
      <point x="418" y="588"/>
      <point x="358" y="640" type="curve"/>
      <point x="315" y="586" type="line"/>
      <point x="361" y="544"/>
      <point x="381" y="482"/>
      <point x="381" y="400" type="curve" smooth="yes"/>
      <point x="381" y="277"/>
      <point x="330" y="201"/>
      <point x="246" y="201" type="curve" smooth="yes"/>
      <point x="171" y="201"/>
      <point x="126" y="255"/>
      <point x="126" y="330" type="curve" smooth="yes"/>
      <point x="126" y="370"/>
      <point x="138" y="403"/>
      <point x="174" y="445" type="curve" smooth="yes"/>
      <point x="210" y="487"/>
      <point x="224" y="510"/>
      <point x="224" y="549" type="curve" smooth="yes"/>
      <point x="224" y="592"/>
      <point x="191" y="640"/>
      <point x="132" y="640" type="curve" smooth="yes"/>
      <point x="91" y="640"/>
      <point x="60" y="623"/>
      <point x="34" y="586" type="curve"/>
      <point x="77" y="545" type="line"/>
      <point x="91" y="568"/>
      <point x="107" y="578"/>
      <point x="123" y="578" type="curve" smooth="yes"/>
      <point x="139" y="578"/>
      <point x="148" y="563"/>
      <point x="148" y="545" type="curve" smooth="yes"/>
      <point x="148" y="521"/>
      <point x="133" y="507"/>
      <point x="106" y="481" type="curve" smooth="yes"/>
      <point x="66" y="443"/>
      <point x="44" y="393"/>
      <point x="44" y="330" type="curve" smooth="yes"/>
      <point x="44" y="218"/>
      <point x="124" y="140"/>
    </contour>
    <contour>
      <point x="585" y="140" type="curve" smooth="yes"/>
      <point x="716" y="140"/>
      <point x="803" y="244"/>
      <point x="803" y="391" type="curve" smooth="yes"/>
      <point x="803" y="542"/>
      <point x="717" y="640"/>
      <point x="603" y="640" type="curve" smooth="yes"/>
      <point x="561" y="640"/>
      <point x="523" y="633"/>
      <point x="494" y="617" type="curve"/>
      <point x="523" y="562" type="line"/>
      <point x="547" y="571"/>
      <point x="566" y="576"/>
      <point x="594" y="576" type="curve" smooth="yes"/>
      <point x="671" y="576"/>
      <point x="721" y="504"/>
      <point x="721" y="393" type="curve" smooth="yes"/>
      <point x="721" y="283"/>
      <point x="670" y="205"/>
      <point x="583" y="205" type="curve" smooth="yes"/>
      <point x="515" y="205"/>
      <point x="467" y="259"/>
      <point x="436" y="335" type="curve"/>
      <point x="399" y="257" type="line"/>
      <point x="440" y="182"/>
      <point x="503" y="140"/>
    </contour>
  </outline>
</glyph>
<glyph name="nga" format="2">
  <advance width="490"/>
  <unicode hex="1004"/>
  <note>
nga
</note>
  <outline>
    <contour>
      <point x="258" y="140" type="curve" smooth="yes"/>
      <point x="348" y="140"/>
      <point x="422" y="199"/>
      <point x="451" y="288" type="curve"/>
      <point x="388" y="317" type="line"/>
      <point x="357" y="243"/>
      <point x="314" y="204"/>
      <point x="260" y="204" type="curve" smooth="yes"/>
      <point x="179" y="204"/>
      <point x="122" y="282"/>
      <point x="122" y="391" type="curve" smooth="yes"/>
      <point x="122" y="499"/>
      <point x="173" y="576"/>
      <point x="256" y="576" type="curve" smooth="yes"/>
      <point x="312" y="576"/>
      <point x="357" y="537"/>
      <point x="387" y="463" type="curve"/>
      <point x="446" y="493" type="line"/>
      <point x="417" y="580"/>
      <point x="344" y="640"/>
      <point x="258" y="640" type="curve" smooth="yes"/>
      <point x="126" y="640"/>
      <point x="39" y="532"/>
      <point x="39" y="390" type="curve" smooth="yes"/>
      <point x="39" y="246"/>
      <point x="125" y="140"/>
    </contour>
  </outline>
</glyph>
<glyph name="ca" format="2">
  <advance width="511"/>
  <unicode hex="1005"/>
  <note>
ca
</note>
  <outline>
    <contour>
      <point x="255" y="140" type="curve" smooth="yes"/>
      <point x="383" y="140"/>
      <point x="472" y="244"/>
      <point x="472" y="389" type="curve" smooth="yes"/>
      <point x="472" y="533"/>
      <point x="387" y="640"/>
      <point x="256" y="640" type="curve" smooth="yes"/>
      <point x="125" y="640"/>
      <point x="39" y="531"/>
      <point x="39" y="389" type="curve" smooth="yes"/>
      <point x="39" y="247"/>
      <point x="125" y="140"/>
    </contour>
    <contour>
      <point x="196" y="207" type="line"/>
      <point x="233" y="251"/>
      <point x="256" y="310"/>
      <point x="256" y="387" type="curve" smooth="yes"/>
      <point x="256" y="467"/>
      <point x="230" y="526"/>
      <point x="195" y="571" type="curve"/>
      <point x="144" y="537" type="line"/>
      <point x="175" y="496"/>
      <point x="195" y="444"/>
      <point x="195" y="387" type="curve" smooth="yes"/>
      <point x="195" y="328"/>
      <point x="177" y="276"/>
      <point x="144" y="240" type="curve"/>
    </contour>
    <contour>
      <point x="247" y="204" type="curve" smooth="yes"/>
      <point x="173" y="204"/>
      <point x="106" y="279"/>
      <point x="106" y="388" type="curve" smooth="yes"/>
      <point x="106" y="495"/>
      <point x="166" y="576"/>
      <point x="250" y="576" type="curve" smooth="yes"/>
      <point x="334" y="576"/>
      <point x="389" y="499"/>
      <point x="389" y="388" type="curve" smooth="yes"/>
      <point x="389" y="278"/>
      <point x="333" y="204"/>
    </contour>
  </outline>
</glyph>
<glyph name="cha" format="2">
  <advance width="842"/>
  <unicode hex="1006"/>
  <note>
cha
</note>
  <outline>
    <contour>
      <point x="246" y="140" type="curve" smooth="yes"/>
      <point x="371" y="140"/>
      <point x="455" y="250"/>
      <point x="455" y="390" type="curve" smooth="yes"/>
      <point x="455" y="531"/>
      <point x="374" y="640"/>
      <point x="249" y="640" type="curve" smooth="yes"/>
      <point x="142" y="640"/>
      <point x="83" y="590"/>
      <point x="41" y="493" type="curve"/>
      <point x="101" y="463" type="line"/>
      <point x="129" y="541"/>
      <point x="181" y="576"/>
      <point x="239" y="576" type="curve" smooth="yes"/>
      <point x="323" y="576"/>
      <point x="377" y="501"/>
      <point x="377" y="391" type="curve" smooth="yes"/>
      <point x="377" y="297"/>
      <point x="332" y="204"/>
      <point x="241" y="204" type="curve" smooth="yes"/>
      <point x="189" y="204"/>
      <point x="141" y="232"/>
      <point x="118" y="286" type="curve"/>
      <point x="153" y="309"/>
      <point x="194" y="328"/>
      <point x="237" y="328" type="curve" smooth="yes"/>
      <point x="295" y="328"/>
      <point x="335" y="299"/>
      <point x="374" y="262" type="curve"/>
      <point x="395" y="317" type="line"/>
      <point x="354" y="359"/>
      <point x="298" y="388"/>
      <point x="234" y="388" type="curve" smooth="yes"/>
      <point x="166" y="388"/>
      <point x="114" y="363"/>
      <point x="37" y="308" type="curve"/>
      <point x="59" y="205"/>
      <point x="140" y="140"/>
    </contour>
    <contour>
      <point x="582" y="140" type="curve" smooth="yes"/>
      <point x="712" y="140"/>
      <point x="803" y="243"/>
      <point x="803" y="389" type="curve" smooth="yes"/>
      <point x="803" y="534"/>
      <point x="716" y="640"/>
      <point x="583" y="640" type="curve" smooth="yes"/>
      <point x="498" y="640"/>
      <point x="442" y="602"/>
      <point x="400" y="530" type="curve"/>
      <point x="435" y="461" type="line"/>
      <point x="463" y="547"/>
      <point x="509" y="576"/>
      <point x="582" y="576" type="curve" smooth="yes"/>
      <point x="667" y="576"/>
      <point x="720" y="502"/>
      <point x="720" y="388" type="curve" smooth="yes"/>
      <point x="720" y="278"/>
      <point x="665" y="204"/>
      <point x="582" y="204" type="curve" smooth="yes"/>
      <point x="508" y="204"/>
      <point x="461" y="253"/>
      <point x="437" y="316" type="curve"/>
      <point x="401" y="252" type="line"/>
      <point x="439" y="185"/>
      <point x="497" y="140"/>
    </contour>
  </outline>
</glyph>
<glyph name="nya" format="2">
  <advance width="511"/>
  <unicode hex="1009"/>
  <note>
nya
</note>
  <outline>
    <contour>
      <point x="205" y="-270" type="curve" smooth="yes"/>
      <point x="641" y="-270" type="line" smooth="yes"/>
      <point x="746" y="-270"/>
      <point x="798" y="-207"/>
      <point x="798" y="-83" type="curve" smooth="yes"/>
      <point x="798" y="-79" type="line"/>
      <point x="716" y="-79" type="line"/>
      <point x="716" y="-92" type="line" smooth="yes"/>
      <point x="716" y="-165"/>
      <point x="693" y="-207"/>
      <point x="644" y="-207" type="curve" smooth="yes"/>
      <point x="203" y="-207" type="line" smooth="yes"/>
      <point x="154" y="-207"/>
      <point x="131" y="-164"/>
      <point x="131" y="-88" type="curve" smooth="yes"/>
      <point x="131" y="261" type="line"/>
      <point x="49" y="288" type="line"/>
      <point x="49" y="-80" type="line" smooth="yes"/>
      <point x="49" y="-207"/>
      <point x="101" y="-270"/>
    </contour>
    <contour>
      <point x="250" y="140" type="curve" smooth="yes"/>
      <point x="402" y="140"/>
      <point x="472" y="255"/>
      <point x="472" y="394" type="curve" smooth="yes"/>
      <point x="472" y="532"/>
      <point x="384" y="640"/>
      <point x="249" y="640" type="curve" smooth="yes"/>
      <point x="160" y="640"/>
      <point x="84" y="581"/>
      <point x="54" y="493" type="curve"/>
      <point x="113" y="463" type="line"/>
      <point x="146" y="537"/>
      <point x="191" y="576"/>
      <point x="250" y="576" type="curve" smooth="yes"/>
      <point x="336" y="576"/>
      <point x="389" y="500"/>
      <point x="389" y="391" type="curve" smooth="yes"/>
      <point x="389" y="280"/>
      <point x="333" y="204"/>
      <point x="246" y="204" type="curve" smooth="yes"/>
      <point x="187" y="204"/>
      <point x="139" y="243"/>
      <point x="112" y="317" type="curve"/>
      <point x="49" y="288" type="line"/>
      <point x="79" y="199"/>
      <point x="155" y="140"/>
    </contour>
  </outline>
</glyph>
<glyph name="nnya" format="2">
  <advance width="844"/>
  <unicode hex="100A"/>
  <note>
nnya
</note>
  <outline>
    <contour>
      <point x="205" y="-270" type="curve" smooth="yes"/>
      <point x="631" y="-270" type="line" smooth="yes"/>
      <point x="736" y="-270"/>
      <point x="788" y="-207"/>
      <point x="788" y="-83" type="curve" smooth="yes"/>
      <point x="788" y="-79" type="line"/>
      <point x="706" y="-79" type="line"/>
      <point x="706" y="-92" type="line" smooth="yes"/>
      <point x="706" y="-165"/>
      <point x="683" y="-207"/>
      <point x="634" y="-207" type="curve" smooth="yes"/>
      <point x="203" y="-207" type="line" smooth="yes"/>
      <point x="154" y="-207"/>
      <point x="131" y="-164"/>
      <point x="131" y="-88" type="curve" smooth="yes"/>
      <point x="131" y="261" type="line"/>
      <point x="49" y="288" type="line"/>
      <point x="49" y="-80" type="line" smooth="yes"/>
      <point x="49" y="-207"/>
      <point x="101" y="-270"/>
    </contour>
    <contour>
      <point x="243" y="140" type="curve" smooth="yes"/>
      <point x="391" y="140"/>
      <point x="459" y="260"/>
      <point x="459" y="394" type="curve" smooth="yes"/>
      <point x="459" y="532"/>
      <point x="373" y="640"/>
      <point x="242" y="640" type="curve" smooth="yes"/>
      <point x="156" y="640"/>
      <point x="83" y="581"/>
      <point x="54" y="493" type="curve"/>
      <point x="113" y="463" type="line"/>
      <point x="144" y="537"/>
      <point x="187" y="576"/>
      <point x="243" y="576" type="curve" smooth="yes"/>
      <point x="325" y="576"/>
      <point x="376" y="500"/>
      <point x="376" y="391" type="curve" smooth="yes"/>
      <point x="376" y="284"/>
      <point x="322" y="204"/>
      <point x="239" y="204" type="curve" smooth="yes"/>
      <point x="183" y="204"/>
      <point x="138" y="243"/>
      <point x="112" y="317" type="curve"/>
      <point x="49" y="288" type="line"/>
      <point x="78" y="199"/>
      <point x="151" y="140"/>
    </contour>
    <contour>
      <point x="587" y="140" type="curve" smooth="yes"/>
      <point x="718" y="140"/>
      <point x="805" y="244"/>
      <point x="805" y="391" type="curve" smooth="yes"/>
      <point x="805" y="542"/>
      <point x="719" y="640"/>
      <point x="605" y="640" type="curve" smooth="yes"/>
      <point x="563" y="640"/>
      <point x="525" y="633"/>
      <point x="496" y="617" type="curve"/>
      <point x="525" y="562" type="line"/>
      <point x="549" y="571"/>
      <point x="568" y="576"/>
      <point x="596" y="576" type="curve" smooth="yes"/>
      <point x="673" y="576"/>
      <point x="723" y="504"/>
      <point x="723" y="393" type="curve" smooth="yes"/>
      <point x="723" y="283"/>
      <point x="672" y="205"/>
      <point x="585" y="205" type="curve" smooth="yes"/>
      <point x="517" y="205"/>
      <point x="469" y="259"/>
      <point x="438" y="335" type="curve"/>
      <point x="401" y="257" type="line"/>
      <point x="442" y="182"/>
      <point x="505" y="140"/>
    </contour>
  </outline>
</glyph>
<glyph name="tta" format="2">
  <advance width="500"/>
  <unicode hex="100B"/>
  <note>
tta
</note>
  <outline>
    <contour>
      <point x="370" y="-271" type="line"/>
      <point x="538" y="-271" type="line"/>
      <point x="538" y="-207" type="line"/>
      <point x="451" y="-207" type="line"/>
      <point x="451" y="-17" type="line"/>
      <point x="393" y="-53"/>
      <point x="317" y="-69"/>
      <point x="258" y="-69" type="curve" smooth="yes"/>
      <point x="217" y="-69"/>
      <point x="171" y="-59"/>
      <point x="143" y="-44" type="curve"/>
      <point x="143" y="28" type="line"/>
      <point x="177" y="13"/>
      <point x="216" y="4"/>
      <point x="261" y="4" type="curve" smooth="yes"/>
      <point x="335" y="4"/>
      <point x="397" y="29"/>
      <point x="451" y="70" type="curve"/>
      <point x="451" y="288" type="line"/>
      <point x="370" y="205" type="line"/>
      <point x="370" y="98" type="line"/>
      <point x="348" y="82"/>
      <point x="309" y="68"/>
      <point x="252" y="68" type="curve" smooth="yes"/>
      <point x="183" y="68"/>
      <point x="110" y="100"/>
      <point x="62" y="142" type="curve"/>
      <point x="62" y="-88" type="line"/>
      <point x="124" y="-116"/>
      <point x="182" y="-133"/>
      <point x="245" y="-133" type="curve" smooth="yes"/>
      <point x="301" y="-133"/>
      <point x="337" y="-126"/>
      <point x="370" y="-115" type="curve"/>
    </contour>
    <contour>
      <point x="258" y="140" type="curve" smooth="yes"/>
      <point x="348" y="140"/>
      <point x="422" y="199"/>
      <point x="451" y="288" type="curve"/>
      <point x="388" y="317" type="line"/>
      <point x="357" y="243"/>
      <point x="314" y="204"/>
      <point x="260" y="204" type="curve" smooth="yes"/>
      <point x="179" y="204"/>
      <point x="122" y="282"/>
      <point x="122" y="391" type="curve" smooth="yes"/>
      <point x="122" y="499"/>
      <point x="173" y="576"/>
      <point x="256" y="576" type="curve" smooth="yes"/>
      <point x="312" y="576"/>
      <point x="357" y="537"/>
      <point x="387" y="463" type="curve"/>
      <point x="446" y="493" type="line"/>
      <point x="417" y="580"/>
      <point x="344" y="640"/>
      <point x="258" y="640" type="curve" smooth="yes"/>
      <point x="126" y="640"/>
      <point x="39" y="532"/>
      <point x="39" y="390" type="curve" smooth="yes"/>
      <point x="39" y="246"/>
      <point x="125" y="140"/>
    </contour>
  </outline>
</glyph>
<glyph name="ttha" format="2">
  <advance width="500"/>
  <unicode hex="100C"/>
  <note>
ttha
</note>
  <outline>
    <contour>
      <point x="215" y="-271" type="curve" smooth="yes"/>
      <point x="295" y="-271" type="line" smooth="yes"/>
      <point x="399" y="-271"/>
      <point x="451" y="-209"/>
      <point x="451" y="-85" type="curve" smooth="yes"/>
      <point x="451" y="288" type="line"/>
      <point x="371" y="204" type="line"/>
      <point x="371" y="-93" type="line" smooth="yes"/>
      <point x="371" y="-166"/>
      <point x="347" y="-207"/>
      <point x="290" y="-207" type="curve" smooth="yes"/>
      <point x="220" y="-207" type="line" smooth="yes"/>
      <point x="173" y="-207"/>
      <point x="143" y="-183"/>
      <point x="143" y="-136" type="curve" smooth="yes"/>
      <point x="143" y="-92"/>
      <point x="162" y="-71"/>
      <point x="190" y="-71" type="curve" smooth="yes"/>
      <point x="214" y="-71"/>
      <point x="231" y="-85"/>
      <point x="248" y="-104" type="curve"/>
      <point x="289" y="-61" type="line"/>
      <point x="259" y="-27"/>
      <point x="229" y="-7"/>
      <point x="178" y="-7" type="curve" smooth="yes"/>
      <point x="112" y="-7"/>
      <point x="61" y="-59"/>
      <point x="61" y="-135" type="curve" smooth="yes"/>
      <point x="61" y="-223"/>
      <point x="124" y="-271"/>
    </contour>
    <contour>
      <point x="258" y="140" type="curve" smooth="yes"/>
      <point x="348" y="140"/>
      <point x="422" y="199"/>
      <point x="451" y="288" type="curve"/>
      <point x="388" y="317" type="line"/>
      <point x="357" y="243"/>
      <point x="314" y="204"/>
      <point x="260" y="204" type="curve" smooth="yes"/>
      <point x="179" y="204"/>
      <point x="122" y="282"/>
      <point x="122" y="391" type="curve" smooth="yes"/>
      <point x="122" y="499"/>
      <point x="173" y="576"/>
      <point x="256" y="576" type="curve" smooth="yes"/>
      <point x="312" y="576"/>
      <point x="357" y="537"/>
      <point x="387" y="463" type="curve"/>
      <point x="446" y="493" type="line"/>
      <point x="417" y="580"/>
      <point x="344" y="640"/>
      <point x="258" y="640" type="curve" smooth="yes"/>
      <point x="126" y="640"/>
      <point x="39" y="532"/>
      <point x="39" y="390" type="curve" smooth="yes"/>
      <point x="39" y="246"/>
      <point x="125" y="140"/>
    </contour>
  </outline>
</glyph>
<glyph name="dda" format="2">
  <advance width="515"/>
  <unicode hex="100D"/>
  <note>
dda
</note>
  <outline>
    <contour>
      <point x="357" y="-271" type="line"/>
      <point x="525" y="-271" type="line"/>
      <point x="525" y="-207" type="line"/>
      <point x="438" y="-207" type="line"/>
      <point x="438" y="142" type="line"/>
      <point x="390" y="100"/>
      <point x="317" y="68"/>
      <point x="248" y="68" type="curve" smooth="yes"/>
      <point x="191" y="68"/>
      <point x="152" y="82"/>
      <point x="130" y="98" type="curve"/>
      <point x="130" y="205" type="line"/>
      <point x="49" y="288" type="line"/>
      <point x="49" y="70" type="line"/>
      <point x="103" y="29"/>
      <point x="165" y="4"/>
      <point x="239" y="4" type="curve" smooth="yes"/>
      <point x="284" y="4"/>
      <point x="323" y="13"/>
      <point x="357" y="28" type="curve"/>
    </contour>
    <contour>
      <point x="257" y="140" type="curve" smooth="yes"/>
      <point x="387" y="140"/>
      <point x="476" y="246"/>
      <point x="476" y="390" type="curve" smooth="yes"/>
      <point x="476" y="532"/>
      <point x="386" y="640"/>
      <point x="257" y="640" type="curve" smooth="yes"/>
      <point x="160" y="640"/>
      <point x="84" y="580"/>
      <point x="54" y="493" type="curve"/>
      <point x="113" y="463" type="line"/>
      <point x="145" y="537"/>
      <point x="192" y="576"/>
      <point x="251" y="576" type="curve" smooth="yes"/>
      <point x="339" y="576"/>
      <point x="393" y="499"/>
      <point x="393" y="391" type="curve" smooth="yes"/>
      <point x="393" y="282"/>
      <point x="342" y="204"/>
      <point x="255" y="204" type="curve" smooth="yes"/>
      <point x="190" y="204"/>
      <point x="145" y="243"/>
      <point x="112" y="317" type="curve"/>
      <point x="49" y="288" type="line"/>
      <point x="79" y="199"/>
      <point x="156" y="140"/>
    </contour>
  </outline>
</glyph>
<glyph name="ddha" format="2">
  <advance width="516"/>
  <unicode hex="100E"/>
  <note>
ddha
</note>
  <outline>
    <contour>
      <point x="250" y="140" type="curve" smooth="yes"/>
      <point x="396" y="140"/>
      <point x="474" y="246"/>
      <point x="474" y="399" type="curve" smooth="yes"/>
      <point x="474" y="495"/>
      <point x="431" y="591"/>
      <point x="370" y="640" type="curve"/>
      <point x="327" y="586" type="line"/>
      <point x="371" y="545"/>
      <point x="391" y="481"/>
      <point x="391" y="400" type="curve" smooth="yes"/>
      <point x="391" y="280"/>
      <point x="345" y="204"/>
      <point x="249" y="204" type="curve" smooth="yes"/>
      <point x="174" y="204"/>
      <point x="127" y="257"/>
      <point x="127" y="330" type="curve" smooth="yes"/>
      <point x="127" y="370"/>
      <point x="139" y="403"/>
      <point x="176" y="447" type="curve" smooth="yes"/>
      <point x="210" y="487"/>
      <point x="224" y="516"/>
      <point x="224" y="552" type="curve" smooth="yes"/>
      <point x="224" y="598"/>
      <point x="191" y="640"/>
      <point x="132" y="640" type="curve" smooth="yes"/>
      <point x="91" y="640"/>
      <point x="60" y="623"/>
      <point x="34" y="586" type="curve"/>
      <point x="77" y="545" type="line"/>
      <point x="91" y="567"/>
      <point x="105" y="576"/>
      <point x="121" y="576" type="curve" smooth="yes"/>
      <point x="137" y="576"/>
      <point x="148" y="566"/>
      <point x="148" y="549" type="curve" smooth="yes"/>
      <point x="148" y="524"/>
      <point x="133" y="510"/>
      <point x="106" y="481" type="curve" smooth="yes"/>
      <point x="69" y="442"/>
      <point x="44" y="393"/>
      <point x="44" y="330" type="curve" smooth="yes"/>
      <point x="44" y="218"/>
      <point x="127" y="140"/>
    </contour>
  </outline>
</glyph>
<glyph name="nna" format="2">
  <advance width="965"/>
  <unicode hex="100F"/>
  <note>
nna
</note>
  <outline>
    <contour>
      <point x="483" y="140" type="curve" smooth="yes"/>
      <point x="560" y="140"/>
      <point x="608" y="179"/>
      <point x="608" y="255" type="curve" smooth="yes"/>
      <point x="608" y="307"/>
      <point x="593" y="332"/>
      <point x="593" y="389" type="curve" smooth="yes"/>
      <point x="593" y="505"/>
      <point x="638" y="576"/>
      <point x="716" y="576" type="curve" smooth="yes"/>
      <point x="793" y="576"/>
      <point x="843" y="500"/>
      <point x="843" y="388" type="curve" smooth="yes"/>
      <point x="843" y="274"/>
      <point x="791" y="204"/>
      <point x="722" y="204" type="curve" smooth="yes"/>
      <point x="705" y="204"/>
      <point x="692" y="204"/>
      <point x="677" y="209" type="curve"/>
      <point x="658" y="148" type="line"/>
      <point x="681" y="142"/>
      <point x="700" y="140"/>
      <point x="731" y="140" type="curve" smooth="yes"/>
      <point x="842" y="140"/>
      <point x="926" y="246"/>
      <point x="926" y="390" type="curve" smooth="yes"/>
      <point x="926" y="532"/>
      <point x="844" y="640"/>
      <point x="717" y="640" type="curve" smooth="yes"/>
      <point x="588" y="640"/>
      <point x="517" y="539"/>
      <point x="517" y="398" type="curve" smooth="yes"/>
      <point x="517" y="327"/>
      <point x="532" y="316"/>
      <point x="532" y="262" type="curve" smooth="yes"/>
      <point x="532" y="230"/>
      <point x="516" y="204"/>
      <point x="483" y="204" type="curve" smooth="yes"/>
      <point x="449" y="204"/>
      <point x="434" y="230"/>
      <point x="434" y="262" type="curve" smooth="yes"/>
      <point x="434" y="318"/>
      <point x="448" y="324"/>
      <point x="448" y="399" type="curve" smooth="yes"/>
      <point x="448" y="541"/>
      <point x="377" y="640"/>
      <point x="248" y="640" type="curve" smooth="yes"/>
      <point x="122" y="640"/>
      <point x="39" y="533"/>
      <point x="39" y="390" type="curve" smooth="yes"/>
      <point x="39" y="244"/>
      <point x="123" y="140"/>
      <point x="234" y="140" type="curve" smooth="yes"/>
      <point x="264" y="140"/>
      <point x="284" y="142"/>
      <point x="306" y="148" type="curve"/>
      <point x="287" y="209" type="line"/>
      <point x="273" y="204"/>
      <point x="260" y="204"/>
      <point x="243" y="204" type="curve" smooth="yes"/>
      <point x="174" y="204"/>
      <point x="122" y="276"/>
      <point x="122" y="388" type="curve" smooth="yes"/>
      <point x="122" y="501"/>
      <point x="172" y="576"/>
      <point x="250" y="576" type="curve" smooth="yes"/>
      <point x="326" y="576"/>
      <point x="371" y="505"/>
      <point x="371" y="389" type="curve" smooth="yes"/>
      <point x="371" y="332"/>
      <point x="357" y="307"/>
      <point x="357" y="255" type="curve" smooth="yes"/>
      <point x="357" y="183"/>
      <point x="404" y="140"/>
    </contour>
    <contour>
      <point x="417" y="527" type="line"/>
      <point x="431" y="550"/>
      <point x="449" y="576"/>
      <point x="483" y="576" type="curve" smooth="yes"/>
      <point x="512" y="576"/>
      <point x="534" y="553"/>
      <point x="548" y="524" type="curve"/>
      <point x="595" y="579" type="line"/>
      <point x="565" y="614"/>
      <point x="534" y="640"/>
      <point x="483" y="640" type="curve" smooth="yes"/>
      <point x="434" y="640"/>
      <point x="399" y="614"/>
      <point x="370" y="579" type="curve"/>
    </contour>
  </outline>
</glyph>
<glyph name="tha" format="2">
  <advance width="840"/>
  <unicode hex="1011"/>
  <note>
tha
</note>
  <outline>
    <contour>
      <point x="249" y="140" type="curve" smooth="yes"/>
      <point x="390" y="140"/>
      <point x="457" y="244"/>
      <point x="457" y="387" type="curve" smooth="yes"/>
      <point x="457" y="528"/>
      <point x="386" y="640"/>
      <point x="249" y="640" type="curve" smooth="yes"/>
      <point x="124" y="640"/>
      <point x="39" y="534"/>
      <point x="39" y="389" type="curve" smooth="yes"/>
      <point x="39" y="247"/>
      <point x="118" y="140"/>
    </contour>
    <contour>
      <point x="249" y="204" type="curve" smooth="yes"/>
      <point x="163" y="204"/>
      <point x="122" y="276"/>
      <point x="122" y="388" type="curve" smooth="yes"/>
      <point x="122" y="501"/>
      <point x="169" y="576"/>
      <point x="249" y="576" type="curve" smooth="yes"/>
      <point x="336" y="576"/>
      <point x="380" y="497"/>
      <point x="380" y="385" type="curve" smooth="yes"/>
      <point x="380" y="277"/>
      <point x="335" y="204"/>
    </contour>
    <contour>
      <point x="585" y="140" type="curve" smooth="yes"/>
      <point x="716" y="140"/>
      <point x="801" y="244"/>
      <point x="801" y="388" type="curve" smooth="yes"/>
      <point x="801" y="522"/>
      <point x="733" y="640"/>
      <point x="589" y="640" type="curve" smooth="yes"/>
      <point x="501" y="640"/>
      <point x="447" y="597"/>
      <point x="413" y="517" type="curve"/>
      <point x="446" y="442" type="line"/>
      <point x="477" y="530"/>
      <point x="522" y="576"/>
      <point x="590" y="576" type="curve" smooth="yes"/>
      <point x="676" y="576"/>
      <point x="718" y="489"/>
      <point x="718" y="387" type="curve" smooth="yes"/>
      <point x="718" y="283"/>
      <point x="670" y="205"/>
      <point x="583" y="205" type="curve" smooth="yes"/>
      <point x="515" y="205"/>
      <point x="467" y="259"/>
      <point x="436" y="335" type="curve"/>
      <point x="399" y="257" type="line"/>
      <point x="440" y="182"/>
      <point x="503" y="140"/>
    </contour>
  </outline>
</glyph>
<glyph name="da" format="2">
  <advance width="496"/>
  <unicode hex="1012"/>
  <note>
da
</note>
  <outline>
    <contour>
      <point x="254" y="140" type="curve" smooth="yes"/>
      <point x="387" y="140"/>
      <point x="458" y="200"/>
      <point x="458" y="289" type="curve" smooth="yes"/>
      <point x="458" y="345"/>
      <point x="421" y="388"/>
      <point x="350" y="403" type="curve"/>
      <point x="350" y="406" type="line"/>
      <point x="407" y="423"/>
      <point x="439" y="453"/>
      <point x="439" y="513" type="curve" smooth="yes"/>
      <point x="439" y="594"/>
      <point x="374" y="640"/>
      <point x="243" y="640" type="curve" smooth="yes"/>
      <point x="130" y="640"/>
      <point x="57" y="590"/>
      <point x="57" y="516" type="curve" smooth="yes"/>
      <point x="57" y="489"/>
      <point x="66" y="469"/>
      <point x="82" y="452" type="curve"/>
      <point x="140" y="484" type="line"/>
      <point x="133" y="491"/>
      <point x="129" y="500"/>
      <point x="129" y="511" type="curve" smooth="yes"/>
      <point x="129" y="556"/>
      <point x="188" y="576"/>
      <point x="245" y="576" type="curve" smooth="yes"/>
      <point x="302" y="576"/>
      <point x="364" y="564"/>
      <point x="364" y="502" type="curve" smooth="yes"/>
      <point x="364" y="458"/>
      <point x="318" y="430"/>
      <point x="267" y="430" type="curve" smooth="yes"/>
      <point x="254" y="430" type="line"/>
      <point x="254" y="370" type="line"/>
      <point x="273" y="370" type="line" smooth="yes"/>
      <point x="342" y="370"/>
      <point x="376" y="336"/>
      <point x="376" y="293" type="curve" smooth="yes"/>
      <point x="376" y="223"/>
      <point x="319" y="204"/>
      <point x="250" y="204" type="curve" smooth="yes"/>
      <point x="172" y="204"/>
      <point x="119" y="234"/>
      <point x="91" y="303" type="curve"/>
      <point x="31" y="273" type="line"/>
      <point x="61" y="190"/>
      <point x="136" y="140"/>
    </contour>
  </outline>
</glyph>
<glyph name="dha" format="2">
  <advance width="511"/>
  <unicode hex="1013"/>
  <note>
dha
</note>
  <outline>
    <contour>
      <point x="135" y="262" type="line"/>
      <point x="167" y="309"/>
      <point x="207" y="334"/>
      <point x="256" y="334" type="curve" smooth="yes"/>
      <point x="307" y="334"/>
      <point x="345" y="309"/>
      <point x="377" y="263" type="curve"/>
      <point x="400" y="331" type="line"/>
      <point x="361" y="379"/>
      <point x="312" y="397"/>
      <point x="257" y="397" type="curve" smooth="yes"/>
      <point x="196" y="397"/>
      <point x="148" y="377"/>
      <point x="111" y="326" type="curve"/>
    </contour>
    <contour>
      <point x="255" y="140" type="curve" smooth="yes"/>
      <point x="383" y="140"/>
      <point x="472" y="244"/>
      <point x="472" y="389" type="curve" smooth="yes"/>
      <point x="472" y="530"/>
      <point x="387" y="640"/>
      <point x="256" y="640" type="curve" smooth="yes"/>
      <point x="125" y="640"/>
      <point x="39" y="531"/>
      <point x="39" y="389" type="curve" smooth="yes"/>
      <point x="39" y="247"/>
      <point x="125" y="140"/>
    </contour>
    <contour>
      <point x="255" y="204" type="curve" smooth="yes"/>
      <point x="176" y="204"/>
      <point x="122" y="276"/>
      <point x="122" y="388" type="curve" smooth="yes"/>
      <point x="122" y="500"/>
      <point x="173" y="576"/>
      <point x="255" y="576" type="curve" smooth="yes"/>
      <point x="336" y="576"/>
      <point x="389" y="499"/>
      <point x="389" y="388" type="curve" smooth="yes"/>
      <point x="389" y="279"/>
      <point x="336" y="204"/>
    </contour>
  </outline>
</glyph>
<glyph name="na" format="2">
  <advance width="469"/>
  <unicode hex="1014"/>
  <note>
na
</note>
  <outline>
    <contour>
      <point x="198" y="-271" type="line"/>
      <point x="279" y="-271" type="line"/>
      <point x="279" y="190" type="line" smooth="yes"/>
      <point x="279" y="300"/>
      <point x="242" y="388"/>
      <point x="142" y="388" type="curve" smooth="yes"/>
      <point x="71" y="388"/>
      <point x="22" y="341"/>
      <point x="22" y="276" type="curve" smooth="yes"/>
      <point x="22" y="189"/>
      <point x="98" y="140"/>
      <point x="208" y="140" type="curve" smooth="yes"/>
      <point x="232" y="140" type="line" smooth="yes"/>
      <point x="371" y="140"/>
      <point x="430" y="203"/>
      <point x="430" y="285" type="curve" smooth="yes"/>
      <point x="430" y="358"/>
      <point x="394" y="396"/>
      <point x="299" y="441" type="curve" smooth="yes"/>
      <point x="246" y="466"/>
      <point x="217" y="484"/>
      <point x="217" y="523" type="curve" smooth="yes"/>
      <point x="217" y="553"/>
      <point x="238" y="576"/>
      <point x="270" y="576" type="curve" smooth="yes"/>
      <point x="308" y="576"/>
      <point x="331" y="557"/>
      <point x="356" y="528" type="curve"/>
      <point x="400" y="572" type="line"/>
      <point x="365" y="610"/>
      <point x="332" y="640"/>
      <point x="268" y="640" type="curve" smooth="yes"/>
      <point x="183" y="640"/>
      <point x="136" y="586"/>
      <point x="136" y="523" type="curve" smooth="yes"/>
      <point x="136" y="463"/>
      <point x="167" y="423"/>
      <point x="235" y="392" type="curve" smooth="yes"/>
      <point x="307" y="360"/>
      <point x="347" y="331"/>
      <point x="347" y="283" type="curve" smooth="yes"/>
      <point x="347" y="226"/>
      <point x="297" y="204"/>
      <point x="222" y="204" type="curve" smooth="yes"/>
      <point x="191" y="204" type="line" smooth="yes"/>
      <point x="131" y="204"/>
      <point x="85" y="228"/>
      <point x="85" y="277" type="curve" smooth="yes"/>
      <point x="85" y="305"/>
      <point x="106" y="325"/>
      <point x="134" y="325" type="curve" smooth="yes"/>
      <point x="178" y="325"/>
      <point x="198" y="288"/>
      <point x="198" y="206" type="curve" smooth="yes"/>
    </contour>
  </outline>
</glyph>
<glyph name="pa" format="2">
  <advance width="508"/>
  <unicode hex="1015"/>
  <note>
pa
</note>
  <outline>
    <contour>
      <point x="254" y="140" type="curve" smooth="yes"/>
      <point x="395" y="140"/>
      <point x="469" y="236"/>
      <point x="469" y="381" type="curve" smooth="yes"/>
      <point x="469" y="497"/>
      <point x="426" y="595"/>
      <point x="368" y="640" type="curve"/>
      <point x="325" y="586" type="line"/>
      <point x="366" y="545"/>
      <point x="386" y="480"/>
      <point x="386" y="383" type="curve" smooth="yes"/>
      <point x="386" y="267"/>
      <point x="345" y="204"/>
      <point x="254" y="204" type="curve" smooth="yes"/>
      <point x="169" y="204"/>
      <point x="122" y="273"/>
      <point x="122" y="383" type="curve" smooth="yes"/>
      <point x="122" y="480"/>
      <point x="142" y="545"/>
      <point x="183" y="586" type="curve"/>
      <point x="140" y="640" type="line"/>
      <point x="82" y="596"/>
      <point x="39" y="501"/>
      <point x="39" y="381" type="curve" smooth="yes"/>
      <point x="39" y="235"/>
      <point x="117" y="140"/>
    </contour>
  </outline>
</glyph>
<glyph name="pha" format="2">
  <advance width="512"/>
  <unicode hex="1016"/>
  <note>
pha
</note>
  <outline>
    <contour>
      <point x="259" y="140" type="curve" smooth="yes"/>
      <point x="398" y="140"/>
      <point x="473" y="247"/>
      <point x="473" y="400" type="curve" smooth="yes"/>
      <point x="473" y="494"/>
      <point x="427" y="581"/>
      <point x="350" y="639" type="curve"/>
      <point x="285" y="584"/>
      <point x="249" y="510"/>
      <point x="249" y="407" type="curve" smooth="yes"/>
      <point x="249" y="321"/>
      <point x="276" y="252"/>
      <point x="311" y="208" type="curve"/>
      <point x="363" y="241" type="line"/>
      <point x="331" y="280"/>
      <point x="311" y="342"/>
      <point x="311" y="407" type="curve" smooth="yes"/>
      <point x="311" y="472"/>
      <point x="326" y="515"/>
      <point x="355" y="554" type="curve"/>
      <point x="386" y="514"/>
      <point x="396" y="465"/>
      <point x="396" y="402" type="curve" smooth="yes"/>
      <point x="396" y="283"/>
      <point x="348" y="204"/>
      <point x="259" y="204" type="curve" smooth="yes"/>
      <point x="170" y="204"/>
      <point x="122" y="280"/>
      <point x="122" y="402" type="curve" smooth="yes"/>
      <point x="122" y="481"/>
      <point x="139" y="542"/>
      <point x="183" y="586" type="curve"/>
      <point x="140" y="640" type="line"/>
      <point x="78" y="587"/>
      <point x="39" y="496"/>
      <point x="39" y="400" type="curve" smooth="yes"/>
      <point x="39" y="248"/>
      <point x="112" y="140"/>
    </contour>
  </outline>
</glyph>
<glyph name="ba" format="2">
  <advance width="513"/>
  <unicode hex="1017"/>
  <note>
ba
</note>
  <outline>
    <contour>
      <point x="257" y="140" type="curve" smooth="yes"/>
      <point x="396" y="140"/>
      <point x="474" y="246"/>
      <point x="474" y="399" type="curve" smooth="yes"/>
      <point x="474" y="495"/>
      <point x="431" y="591"/>
      <point x="385" y="640" type="curve"/>
      <point x="328" y="597" type="line"/>
      <point x="371" y="545"/>
      <point x="391" y="481"/>
      <point x="391" y="400" type="curve" smooth="yes"/>
      <point x="391" y="280"/>
      <point x="345" y="204"/>
      <point x="256" y="204" type="curve" smooth="yes"/>
      <point x="167" y="204"/>
      <point x="122" y="279"/>
      <point x="122" y="400" type="curve" smooth="yes"/>
      <point x="122" y="481"/>
      <point x="142" y="545"/>
      <point x="184" y="597" type="curve"/>
      <point x="126" y="640" type="line"/>
      <point x="81" y="590"/>
      <point x="39" y="496"/>
      <point x="39" y="399" type="curve" smooth="yes"/>
      <point x="39" y="246"/>
      <point x="118" y="140"/>
    </contour>
    <contour>
      <point x="256" y="406" type="curve" smooth="yes"/>
      <point x="341" y="406"/>
      <point x="399" y="477"/>
      <point x="399" y="562" type="curve" smooth="yes"/>
      <point x="399" y="591"/>
      <point x="394" y="617"/>
      <point x="385" y="640" type="curve"/>
      <point x="328" y="597" type="line"/>
      <point x="332" y="586"/>
      <point x="334" y="574"/>
      <point x="334" y="562" type="curve" smooth="yes"/>
      <point x="334" y="511"/>
      <point x="310" y="470"/>
      <point x="256" y="470" type="curve" smooth="yes"/>
      <point x="201" y="470"/>
      <point x="177" y="511"/>
      <point x="177" y="562" type="curve" smooth="yes"/>
      <point x="177" y="575"/>
      <point x="179" y="586"/>
      <point x="184" y="597" type="curve"/>
      <point x="126" y="640" type="line"/>
      <point x="117" y="617"/>
      <point x="112" y="590"/>
      <point x="112" y="562" type="curve" smooth="yes"/>
      <point x="112" y="476"/>
      <point x="171" y="406"/>
    </contour>
  </outline>
</glyph>
<glyph name="bha" format="2">
  <advance width="840"/>
  <unicode hex="1018"/>
  <note>
bha
</note>
  <outline>
    <contour>
      <point x="233" y="140" type="curve" smooth="yes"/>
      <point x="366" y="140"/>
      <point x="447" y="246"/>
      <point x="447" y="390" type="curve" smooth="yes"/>
      <point x="447" y="532"/>
      <point x="362" y="640"/>
      <point x="233" y="640" type="curve" smooth="yes"/>
      <point x="132" y="640"/>
      <point x="72" y="581"/>
      <point x="44" y="493" type="curve"/>
      <point x="104" y="463" type="line"/>
      <point x="131" y="537"/>
      <point x="176" y="576"/>
      <point x="231" y="576" type="curve" smooth="yes"/>
      <point x="314" y="576"/>
      <point x="368" y="499"/>
      <point x="368" y="391" type="curve" smooth="yes"/>
      <point x="368" y="282"/>
      <point x="312" y="204"/>
      <point x="230" y="204" type="curve" smooth="yes"/>
      <point x="169" y="204"/>
      <point x="133" y="242"/>
      <point x="102" y="317" type="curve"/>
      <point x="39" y="288" type="line"/>
      <point x="68" y="199"/>
      <point x="142" y="140"/>
    </contour>
    <contour>
      <point x="599" y="141" type="curve" smooth="yes"/>
      <point x="717" y="141"/>
      <point x="801" y="237"/>
      <point x="801" y="388" type="curve" smooth="yes"/>
      <point x="801" y="530"/>
      <point x="717" y="640"/>
      <point x="585" y="640" type="curve" smooth="yes"/>
      <point x="503" y="640"/>
      <point x="440" y="598"/>
      <point x="399" y="523" type="curve"/>
      <point x="433" y="449" type="line"/>
      <point x="465" y="534"/>
      <point x="513" y="576"/>
      <point x="584" y="576" type="curve" smooth="yes"/>
      <point x="667" y="576"/>
      <point x="718" y="499"/>
      <point x="718" y="387" type="curve" smooth="yes"/>
      <point x="718" y="275"/>
      <point x="670" y="204"/>
      <point x="592" y="204" type="curve" smooth="yes"/>
      <point x="565" y="204"/>
      <point x="542" y="208"/>
      <point x="517" y="218" type="curve"/>
      <point x="489" y="163" type="line"/>
      <point x="517" y="151"/>
      <point x="554" y="141"/>
    </contour>
  </outline>
</glyph>
<glyph name="ma" format="2">
  <advance width="511"/>
  <unicode hex="1019"/>
  <note>
ma
</note>
  <outline>
    <contour>
      <point x="257" y="140" type="curve" smooth="yes"/>
      <point x="396" y="140"/>
      <point x="474" y="246"/>
      <point x="474" y="399" type="curve" smooth="yes"/>
      <point x="474" y="495"/>
      <point x="431" y="591"/>
      <point x="370" y="640" type="curve"/>
      <point x="327" y="586" type="line"/>
      <point x="371" y="545"/>
      <point x="391" y="481"/>
      <point x="391" y="400" type="curve" smooth="yes"/>
      <point x="391" y="280"/>
      <point x="345" y="204"/>
      <point x="256" y="204" type="curve" smooth="yes"/>
      <point x="167" y="204"/>
      <point x="122" y="279"/>
      <point x="122" y="400" type="curve" smooth="yes"/>
      <point x="122" y="481"/>
      <point x="142" y="545"/>
      <point x="184" y="586" type="curve"/>
      <point x="141" y="640" type="line"/>
      <point x="81" y="590"/>
      <point x="39" y="496"/>
      <point x="39" y="399" type="curve" smooth="yes"/>
      <point x="39" y="246"/>
      <point x="118" y="140"/>
    </contour>
    <contour>
      <point x="135" y="262" type="line"/>
      <point x="167" y="309"/>
      <point x="207" y="334"/>
      <point x="256" y="334" type="curve" smooth="yes"/>
      <point x="307" y="334"/>
      <point x="345" y="309"/>
      <point x="377" y="263" type="curve"/>
      <point x="400" y="331" type="line"/>
      <point x="361" y="379"/>
      <point x="312" y="397"/>
      <point x="257" y="397" type="curve" smooth="yes"/>
      <point x="196" y="397"/>
      <point x="148" y="377"/>
      <point x="111" y="326" type="curve"/>
    </contour>
  </outline>
</glyph>
<glyph name="ya" format="2">
  <advance width="841"/>
  <unicode hex="101A"/>
  <note>
ya
</note>
  <outline>
    <contour>
      <point x="252" y="140" type="curve" smooth="yes"/>
      <point x="386" y="140"/>
      <point x="459" y="246"/>
      <point x="459" y="399" type="curve" smooth="yes"/>
      <point x="459" y="495"/>
      <point x="418" y="591"/>
      <point x="360" y="640" type="curve"/>
      <point x="317" y="586" type="line"/>
      <point x="361" y="545"/>
      <point x="381" y="481"/>
      <point x="381" y="400" type="curve" smooth="yes"/>
      <point x="381" y="280"/>
      <point x="338" y="204"/>
      <point x="251" y="204" type="curve" smooth="yes"/>
      <point x="167" y="204"/>
      <point x="122" y="279"/>
      <point x="122" y="400" type="curve" smooth="yes"/>
      <point x="122" y="481"/>
      <point x="142" y="545"/>
      <point x="184" y="586" type="curve"/>
      <point x="141" y="640" type="line"/>
      <point x="81" y="590"/>
      <point x="39" y="496"/>
      <point x="39" y="399" type="curve" smooth="yes"/>
      <point x="39" y="246"/>
      <point x="118" y="140"/>
    </contour>
    <contour>
      <point x="585" y="140" type="curve" smooth="yes"/>
      <point x="716" y="140"/>
      <point x="803" y="244"/>
      <point x="803" y="391" type="curve" smooth="yes"/>
      <point x="803" y="542"/>
      <point x="717" y="640"/>
      <point x="603" y="640" type="curve" smooth="yes"/>
      <point x="561" y="640"/>
      <point x="523" y="633"/>
      <point x="494" y="617" type="curve"/>
      <point x="523" y="562" type="line"/>
      <point x="547" y="571"/>
      <point x="566" y="576"/>
      <point x="594" y="576" type="curve" smooth="yes"/>
      <point x="671" y="576"/>
      <point x="721" y="504"/>
      <point x="721" y="393" type="curve" smooth="yes"/>
      <point x="721" y="283"/>
      <point x="670" y="205"/>
      <point x="583" y="205" type="curve" smooth="yes"/>
      <point x="515" y="205"/>
      <point x="467" y="259"/>
      <point x="436" y="335" type="curve"/>
      <point x="399" y="257" type="line"/>
      <point x="440" y="182"/>
      <point x="503" y="140"/>
    </contour>
  </outline>
</glyph>
<glyph name="la" format="2">
  <advance width="841"/>
  <unicode hex="101C"/>
  <note>
la
</note>
  <outline>
    <contour>
      <point x="234" y="140" type="curve" smooth="yes"/>
      <point x="276" y="140"/>
      <point x="311" y="146"/>
      <point x="339" y="163" type="curve"/>
      <point x="310" y="217" type="line"/>
      <point x="289" y="207"/>
      <point x="271" y="201"/>
      <point x="244" y="201" type="curve" smooth="yes"/>
      <point x="171" y="201"/>
      <point x="122" y="273"/>
      <point x="122" y="388" type="curve" smooth="yes"/>
      <point x="122" y="502"/>
      <point x="167" y="577"/>
      <point x="238" y="577" type="curve" smooth="yes"/>
      <point x="305" y="577"/>
      <point x="349" y="518"/>
      <point x="387" y="370" type="curve" smooth="yes"/>
      <point x="424" y="224"/>
      <point x="485" y="140"/>
      <point x="602" y="140" type="curve" smooth="yes"/>
      <point x="721" y="140"/>
      <point x="802" y="246"/>
      <point x="802" y="389" type="curve" smooth="yes"/>
      <point x="802" y="544"/>
      <point x="724" y="640"/>
      <point x="607" y="640" type="curve" smooth="yes"/>
      <point x="565" y="640"/>
      <point x="530" y="633"/>
      <point x="502" y="617" type="curve"/>
      <point x="531" y="562" type="line"/>
      <point x="552" y="573"/>
      <point x="569" y="578"/>
      <point x="597" y="578" type="curve" smooth="yes"/>
      <point x="672" y="578"/>
      <point x="720" y="508"/>
      <point x="720" y="391" type="curve" smooth="yes"/>
      <point x="720" y="276"/>
      <point x="671" y="202"/>
      <point x="604" y="202" type="curve" smooth="yes"/>
      <point x="530" y="202"/>
      <point x="490" y="276"/>
      <point x="452" y="416" type="curve" smooth="yes"/>
      <point x="412" y="563"/>
      <point x="355" y="640"/>
      <point x="239" y="640" type="curve" smooth="yes"/>
      <point x="118" y="640"/>
      <point x="39" y="531"/>
      <point x="39" y="389" type="curve" smooth="yes"/>
      <point x="39" y="237"/>
      <point x="117" y="140"/>
    </contour>
  </outline>
</glyph>
<glyph name="wa" format="2">
  <advance width="511"/>
  <unicode hex="101D"/>
  <note>
wa
</note>
  <outline>
    <contour>
      <point x="255" y="140" type="curve" smooth="yes"/>
      <point x="383" y="140"/>
      <point x="472" y="244"/>
      <point x="472" y="389" type="curve" smooth="yes"/>
      <point x="472" y="530"/>
      <point x="387" y="640"/>
      <point x="256" y="640" type="curve" smooth="yes"/>
      <point x="125" y="640"/>
      <point x="39" y="531"/>
      <point x="39" y="389" type="curve" smooth="yes"/>
      <point x="39" y="247"/>
      <point x="125" y="140"/>
    </contour>
    <contour>
      <point x="255" y="204" type="curve" smooth="yes"/>
      <point x="176" y="204"/>
      <point x="122" y="276"/>
      <point x="122" y="388" type="curve" smooth="yes"/>
      <point x="122" y="500"/>
      <point x="173" y="576"/>
      <point x="255" y="576" type="curve" smooth="yes"/>
      <point x="336" y="576"/>
      <point x="389" y="499"/>
      <point x="389" y="388" type="curve" smooth="yes"/>
      <point x="389" y="279"/>
      <point x="336" y="204"/>
    </contour>
  </outline>
</glyph>
<glyph name="sa" format="2">
  <advance width="842"/>
  <unicode hex="101E"/>
  <note>
sa
</note>
  <outline>
    <contour>
      <point x="231" y="140" type="curve" smooth="yes"/>
      <point x="379" y="140"/>
      <point x="447" y="260"/>
      <point x="447" y="394" type="curve" smooth="yes"/>
      <point x="447" y="532"/>
      <point x="361" y="640"/>
      <point x="230" y="640" type="curve" smooth="yes"/>
      <point x="144" y="640"/>
      <point x="71" y="581"/>
      <point x="42" y="493" type="curve"/>
      <point x="101" y="463" type="line"/>
      <point x="132" y="537"/>
      <point x="175" y="576"/>
      <point x="231" y="576" type="curve" smooth="yes"/>
      <point x="313" y="576"/>
      <point x="364" y="500"/>
      <point x="364" y="391" type="curve" smooth="yes"/>
      <point x="364" y="284"/>
      <point x="310" y="204"/>
      <point x="227" y="204" type="curve" smooth="yes"/>
      <point x="171" y="204"/>
      <point x="126" y="243"/>
      <point x="100" y="317" type="curve"/>
      <point x="37" y="288" type="line"/>
      <point x="66" y="199"/>
      <point x="139" y="140"/>
    </contour>
    <contour>
      <point x="585" y="140" type="curve" smooth="yes"/>
      <point x="716" y="140"/>
      <point x="803" y="244"/>
      <point x="803" y="391" type="curve" smooth="yes"/>
      <point x="803" y="542"/>
      <point x="717" y="640"/>
      <point x="603" y="640" type="curve" smooth="yes"/>
      <point x="561" y="640"/>
      <point x="523" y="633"/>
      <point x="494" y="617" type="curve"/>
      <point x="523" y="562" type="line"/>
      <point x="547" y="571"/>
      <point x="566" y="576"/>
      <point x="594" y="576" type="curve" smooth="yes"/>
      <point x="671" y="576"/>
      <point x="721" y="504"/>
      <point x="721" y="393" type="curve" smooth="yes"/>
      <point x="721" y="283"/>
      <point x="670" y="205"/>
      <point x="583" y="205" type="curve" smooth="yes"/>
      <point x="515" y="205"/>
      <point x="467" y="259"/>
      <point x="436" y="335" type="curve"/>
      <point x="399" y="257" type="line"/>
      <point x="440" y="182"/>
      <point x="503" y="140"/>
    </contour>
  </outline>
</glyph>
<glyph name="ha" format="2">
  <advance width="841"/>
  <unicode hex="101F"/>
  <note>
ha
</note>
  <outline>
    <contour>
      <point x="252" y="140" type="curve" smooth="yes"/>
      <point x="386" y="140"/>
      <point x="459" y="246"/>
      <point x="459" y="399" type="curve" smooth="yes"/>
      <point x="459" y="495"/>
      <point x="418" y="591"/>
      <point x="360" y="640" type="curve"/>
      <point x="317" y="586" type="line"/>
      <point x="361" y="545"/>
      <point x="381" y="481"/>
      <point x="381" y="400" type="curve" smooth="yes"/>
      <point x="381" y="280"/>
      <point x="338" y="204"/>
      <point x="251" y="204" type="curve" smooth="yes"/>
      <point x="167" y="204"/>
      <point x="122" y="279"/>
      <point x="122" y="400" type="curve" smooth="yes"/>
      <point x="122" y="481"/>
      <point x="142" y="545"/>
      <point x="184" y="586" type="curve"/>
      <point x="141" y="640" type="line"/>
      <point x="81" y="590"/>
      <point x="39" y="496"/>
      <point x="39" y="399" type="curve" smooth="yes"/>
      <point x="39" y="246"/>
      <point x="118" y="140"/>
    </contour>
    <contour>
      <point x="603" y="140" type="curve" smooth="yes"/>
      <point x="717" y="140"/>
      <point x="803" y="237"/>
      <point x="803" y="388" type="curve" smooth="yes"/>
      <point x="803" y="535"/>
      <point x="716" y="640"/>
      <point x="585" y="640" type="curve" smooth="yes"/>
      <point x="503" y="640"/>
      <point x="440" y="597"/>
      <point x="399" y="523" type="curve"/>
      <point x="436" y="444" type="line"/>
      <point x="467" y="521"/>
      <point x="515" y="575"/>
      <point x="583" y="575" type="curve" smooth="yes"/>
      <point x="670" y="575"/>
      <point x="721" y="496"/>
      <point x="721" y="387" type="curve" smooth="yes"/>
      <point x="721" y="276"/>
      <point x="671" y="204"/>
      <point x="594" y="204" type="curve" smooth="yes"/>
      <point x="566" y="204"/>
      <point x="547" y="208"/>
      <point x="523" y="217" type="curve"/>
      <point x="494" y="163" type="line"/>
      <point x="523" y="146"/>
      <point x="561" y="140"/>
    </contour>
  </outline>
</glyph>
<glyph name="lla" format="2">
  <advance width="503"/>
  <unicode hex="1020"/>
  <note>
lla
</note>
  <outline>
    <contour>
      <point x="218" y="-270" type="curve" smooth="yes"/>
      <point x="294" y="-270" type="line" smooth="yes"/>
      <point x="399" y="-270"/>
      <point x="451" y="-215"/>
      <point x="451" y="-104" type="curve" smooth="yes"/>
      <point x="451" y="-99" type="line"/>
      <point x="369" y="-99" type="line"/>
      <point x="369" y="-113" type="line" smooth="yes"/>
      <point x="369" y="-172"/>
      <point x="346" y="-207"/>
      <point x="297" y="-207" type="curve" smooth="yes"/>
      <point x="216" y="-207" type="line" smooth="yes"/>
      <point x="167" y="-207"/>
      <point x="144" y="-164"/>
      <point x="144" y="-88" type="curve" smooth="yes"/>
      <point x="144" y="28" type="line"/>
      <point x="178" y="13"/>
      <point x="216" y="4"/>
      <point x="261" y="4" type="curve" smooth="yes"/>
      <point x="335" y="4"/>
      <point x="397" y="29"/>
      <point x="451" y="70" type="curve"/>
      <point x="451" y="288" type="line"/>
      <point x="370" y="205" type="line"/>
      <point x="370" y="98" type="line"/>
      <point x="348" y="82"/>
      <point x="309" y="68"/>
      <point x="252" y="68" type="curve" smooth="yes"/>
      <point x="183" y="68"/>
      <point x="110" y="100"/>
      <point x="62" y="142" type="curve"/>
      <point x="62" y="-80" type="line" smooth="yes"/>
      <point x="62" y="-207"/>
      <point x="114" y="-270"/>
    </contour>
    <contour>
      <point x="258" y="140" type="curve" smooth="yes"/>
      <point x="348" y="140"/>
      <point x="422" y="199"/>
      <point x="451" y="288" type="curve"/>
      <point x="388" y="317" type="line"/>
      <point x="357" y="243"/>
      <point x="314" y="204"/>
      <point x="260" y="204" type="curve" smooth="yes"/>
      <point x="179" y="204"/>
      <point x="122" y="282"/>
      <point x="122" y="391" type="curve" smooth="yes"/>
      <point x="122" y="499"/>
      <point x="173" y="576"/>
      <point x="256" y="576" type="curve" smooth="yes"/>
      <point x="312" y="576"/>
      <point x="357" y="537"/>
      <point x="387" y="463" type="curve"/>
      <point x="446" y="493" type="line"/>
      <point x="417" y="580"/>
      <point x="344" y="640"/>
      <point x="258" y="640" type="curve" smooth="yes"/>
      <point x="126" y="640"/>
      <point x="39" y="532"/>
      <point x="39" y="390" type="curve" smooth="yes"/>
      <point x="39" y="246"/>
      <point x="125" y="140"/>
    </contour>
  </outline>
</glyph>
<glyph name="a_m" format="2">
  <advance width="788"/>
  <unicode hex="1021"/>
  <note>
a_m
</note>
  <outline>
    <contour>
      <point x="254" y="140" type="curve" smooth="yes"/>
      <point x="387" y="140"/>
      <point x="458" y="200"/>
      <point x="458" y="289" type="curve" smooth="yes"/>
      <point x="458" y="345"/>
      <point x="421" y="388"/>
      <point x="350" y="403" type="curve"/>
      <point x="350" y="406" type="line"/>
      <point x="407" y="423"/>
      <point x="439" y="453"/>
      <point x="439" y="513" type="curve" smooth="yes"/>
      <point x="439" y="594"/>
      <point x="374" y="640"/>
      <point x="243" y="640" type="curve" smooth="yes"/>
      <point x="130" y="640"/>
      <point x="57" y="590"/>
      <point x="57" y="516" type="curve" smooth="yes"/>
      <point x="57" y="489"/>
      <point x="66" y="469"/>
      <point x="82" y="452" type="curve"/>
      <point x="140" y="484" type="line"/>
      <point x="133" y="491"/>
      <point x="129" y="500"/>
      <point x="129" y="511" type="curve" smooth="yes"/>
      <point x="129" y="556"/>
      <point x="188" y="576"/>
      <point x="245" y="576" type="curve" smooth="yes"/>
      <point x="302" y="576"/>
      <point x="364" y="564"/>
      <point x="364" y="502" type="curve" smooth="yes"/>
      <point x="364" y="458"/>
      <point x="318" y="430"/>
      <point x="267" y="430" type="curve" smooth="yes"/>
      <point x="254" y="430" type="line"/>
      <point x="254" y="370" type="line"/>
      <point x="273" y="370" type="line" smooth="yes"/>
      <point x="342" y="370"/>
      <point x="376" y="336"/>
      <point x="376" y="293" type="curve" smooth="yes"/>
      <point x="376" y="223"/>
      <point x="319" y="204"/>
      <point x="250" y="204" type="curve" smooth="yes"/>
      <point x="172" y="204"/>
      <point x="119" y="234"/>
      <point x="91" y="303" type="curve"/>
      <point x="31" y="273" type="line"/>
      <point x="61" y="190"/>
      <point x="136" y="140"/>
    </contour>
    <contour>
      <point x="598" y="140" type="curve" smooth="yes"/>
      <point x="723" y="140"/>
      <point x="804" y="248"/>
      <point x="804" y="389" type="curve" smooth="yes"/>
      <point x="804" y="533"/>
      <point x="718" y="640"/>
      <point x="590" y="640" type="curve" smooth="yes"/>
      <point x="513" y="640"/>
      <point x="459" y="609"/>
      <point x="418" y="568" type="curve"/>
      <point x="432" y="494" type="line"/>
      <point x="472" y="547"/>
      <point x="526" y="577"/>
      <point x="588" y="577" type="curve" smooth="yes"/>
      <point x="672" y="577"/>
      <point x="720" y="506"/>
      <point x="720" y="388" type="curve" smooth="yes"/>
      <point x="720" y="279"/>
      <point x="675" y="201"/>
      <point x="599" y="201" type="curve" smooth="yes"/>
      <point x="587" y="201"/>
      <point x="575" y="203"/>
      <point x="562" y="207" type="curve"/>
      <point x="587" y="187" type="line"/>
      <point x="590" y="313"/>
      <point x="645" y="385"/>
      <point x="747" y="389" type="curve"/>
      <point x="739" y="449" type="line"/>
      <point x="590" y="442"/>
      <point x="519" y="334"/>
      <point x="518" y="157" type="curve"/>
      <point x="539" y="146"/>
      <point x="570" y="140"/>
    </contour>
  </outline>
</glyph>
<glyph name="a_shn" format="2">
  <advance width="840"/>
  <unicode hex="1022"/>
  <note>
a_shn
</note>
  <outline>
    <contour>
      <point x="132" y="140" type="curve" smooth="yes"/>
      <point x="191" y="140"/>
      <point x="224" y="188"/>
      <point x="224" y="231" type="curve" smooth="yes"/>
      <point x="224" y="270"/>
      <point x="210" y="292"/>
      <point x="174" y="334" type="curve" smooth="yes"/>
      <point x="138" y="377"/>
      <point x="126" y="409"/>
      <point x="126" y="450" type="curve" smooth="yes"/>
      <point x="126" y="524"/>
      <point x="171" y="578"/>
      <point x="246" y="578" type="curve" smooth="yes"/>
      <point x="330" y="578"/>
      <point x="381" y="503"/>
      <point x="381" y="379" type="curve" smooth="yes"/>
      <point x="381" y="298"/>
      <point x="361" y="235"/>
      <point x="315" y="193" type="curve"/>
      <point x="358" y="140" type="line"/>
      <point x="418" y="191"/>
      <point x="459" y="285"/>
      <point x="459" y="380" type="curve" smooth="yes"/>
      <point x="459" y="529"/>
      <point x="375" y="640"/>
      <point x="244" y="640" type="curve" smooth="yes"/>
      <point x="124" y="640"/>
      <point x="44" y="561"/>
      <point x="44" y="450" type="curve" smooth="yes"/>
      <point x="44" y="387"/>
      <point x="66" y="336"/>
      <point x="106" y="298" type="curve" smooth="yes"/>
      <point x="133" y="272"/>
      <point x="148" y="259"/>
      <point x="148" y="235" type="curve" smooth="yes"/>
      <point x="148" y="217"/>
      <point x="139" y="201"/>
      <point x="123" y="201" type="curve" smooth="yes"/>
      <point x="107" y="201"/>
      <point x="91" y="211"/>
      <point x="77" y="235" type="curve"/>
      <point x="34" y="193" type="line"/>
      <point x="60" y="156"/>
      <point x="91" y="140"/>
    </contour>
    <contour>
      <point x="603" y="140" type="curve" smooth="yes"/>
      <point x="717" y="140"/>
      <point x="803" y="237"/>
      <point x="803" y="388" type="curve" smooth="yes"/>
      <point x="803" y="535"/>
      <point x="716" y="640"/>
      <point x="585" y="640" type="curve" smooth="yes"/>
      <point x="503" y="640"/>
      <point x="440" y="597"/>
      <point x="399" y="523" type="curve"/>
      <point x="436" y="444" type="line"/>
      <point x="467" y="521"/>
      <point x="515" y="575"/>
      <point x="583" y="575" type="curve" smooth="yes"/>
      <point x="670" y="575"/>
      <point x="721" y="496"/>
      <point x="721" y="387" type="curve" smooth="yes"/>
      <point x="721" y="276"/>
      <point x="671" y="204"/>
      <point x="594" y="204" type="curve" smooth="yes"/>
      <point x="566" y="204"/>
      <point x="547" y="208"/>
      <point x="523" y="217" type="curve"/>
      <point x="494" y="163" type="line"/>
      <point x="523" y="146"/>
      <point x="561" y="140"/>
    </contour>
  </outline>
</glyph>
<glyph name="i_m" format="2">
  <advance width="822"/>
  <unicode hex="1023"/>
  <note>
i_m
</note>
  <outline>
    <contour>
      <point x="138" y="140" type="curve"/>
      <point x="181" y="192" type="line"/>
      <point x="141" y="235"/>
      <point x="122" y="295"/>
      <point x="122" y="379" type="curve" smooth="yes"/>
      <point x="122" y="502"/>
      <point x="173" y="576"/>
      <point x="246" y="576" type="curve" smooth="yes"/>
      <point x="327" y="576"/>
      <point x="369" y="488"/>
      <point x="369" y="352" type="curve" smooth="yes"/>
      <point x="369" y="256" type="line"/>
      <point x="452" y="256" type="line"/>
      <point x="452" y="356" type="line" smooth="yes"/>
      <point x="452" y="496"/>
      <point x="494" y="576"/>
      <point x="576" y="576" type="curve" smooth="yes"/>
      <point x="650" y="576"/>
      <point x="700" y="500"/>
      <point x="700" y="379" type="curve" smooth="yes"/>
      <point x="700" y="295"/>
      <point x="681" y="235"/>
      <point x="642" y="192" type="curve"/>
      <point x="684" y="140" type="line"/>
      <point x="742" y="186"/>
      <point x="783" y="280"/>
      <point x="783" y="380" type="curve" smooth="yes"/>
      <point x="783" y="536"/>
      <point x="698" y="640"/>
      <point x="577" y="640" type="curve" smooth="yes"/>
      <point x="491" y="640"/>
      <point x="420" y="586"/>
      <point x="397" y="492" type="curve"/>
      <point x="423" y="492" type="line"/>
      <point x="404" y="581"/>
      <point x="332" y="640"/>
      <point x="246" y="640" type="curve" smooth="yes"/>
      <point x="125" y="640"/>
      <point x="39" y="535"/>
      <point x="39" y="380" type="curve" smooth="yes"/>
      <point x="39" y="275"/>
      <point x="81" y="183"/>
    </contour>
    <contour>
      <point x="616" y="-271" type="line"/>
      <point x="738" y="-271" type="line"/>
      <point x="738" y="-207" type="line"/>
      <point x="664" y="-207" type="line"/>
      <point x="681" y="-176"/>
      <point x="695" y="-135"/>
      <point x="695" y="-87" type="curve" smooth="yes"/>
      <point x="695" y="29"/>
      <point x="640" y="106"/>
      <point x="536" y="106" type="curve" smooth="yes"/>
      <point x="468" y="106"/>
      <point x="414" y="63"/>
      <point x="398" y="-8" type="curve"/>
      <point x="423" y="1" type="line"/>
      <point x="404" y="71"/>
      <point x="349" y="106"/>
      <point x="287" y="106" type="curve" smooth="yes"/>
      <point x="187" y="106"/>
      <point x="129" y="30"/>
      <point x="129" y="-82" type="curve" smooth="yes"/>
      <point x="129" y="-165"/>
      <point x="164" y="-234"/>
      <point x="206" y="-270" type="curve"/>
      <point x="247" y="-218" type="line"/>
      <point x="218" y="-189"/>
      <point x="201" y="-145"/>
      <point x="201" y="-83" type="curve" smooth="yes"/>
      <point x="201" y="0"/>
      <point x="239" y="47"/>
      <point x="287" y="47" type="curve" smooth="yes"/>
      <point x="343" y="47"/>
      <point x="375" y="-11"/>
      <point x="375" y="-108" type="curve" smooth="yes"/>
      <point x="375" y="-184" type="line"/>
      <point x="448" y="-184" type="line"/>
      <point x="448" y="-108" type="line" smooth="yes"/>
      <point x="448" y="-6"/>
      <point x="481" y="47"/>
      <point x="535" y="47" type="curve" smooth="yes"/>
      <point x="585" y="47"/>
      <point x="622" y="-1"/>
      <point x="622" y="-89" type="curve" smooth="yes"/>
      <point x="622" y="-147"/>
      <point x="606" y="-189"/>
      <point x="576" y="-218" type="curve"/>
    </contour>
  </outline>
</glyph>
<glyph name="ii" format="2">
  <advance width="997"/>
  <unicode hex="1024"/>
  <note>
ii
</note>
  <outline>
    <contour>
      <point x="217" y="-271" type="curve" smooth="yes"/>
      <point x="600" y="-271" type="line" smooth="yes"/>
      <point x="703" y="-271"/>
      <point x="758" y="-208"/>
      <point x="758" y="-85" type="curve" smooth="yes"/>
      <point x="758" y="370" type="line" smooth="yes"/>
      <point x="758" y="530"/>
      <point x="691" y="640"/>
      <point x="566" y="640" type="curve" smooth="yes"/>
      <point x="479" y="640"/>
      <point x="420" y="583"/>
      <point x="397" y="532" type="curve"/>
      <point x="435" y="447" type="line"/>
      <point x="466" y="528"/>
      <point x="503" y="576"/>
      <point x="564" y="576" type="curve" smooth="yes"/>
      <point x="638" y="576"/>
      <point x="676" y="500"/>
      <point x="676" y="367" type="curve" smooth="yes"/>
      <point x="676" y="-96" type="line" smooth="yes"/>
      <point x="676" y="-167"/>
      <point x="652" y="-207"/>
      <point x="591" y="-207" type="curve" smooth="yes"/>
      <point x="221" y="-207" type="line" smooth="yes"/>
      <point x="151" y="-207"/>
      <point x="118" y="-180"/>
      <point x="118" y="-132" type="curve" smooth="yes"/>
      <point x="118" y="-72"/>
      <point x="171" y="-44"/>
      <point x="275" y="-44" type="curve" smooth="yes"/>
      <point x="376" y="-44"/>
      <point x="459" y="-69"/>
      <point x="517" y="-104" type="curve"/>
      <point x="554" y="-46" type="line"/>
      <point x="484" y="-9"/>
      <point x="388" y="20"/>
      <point x="275" y="20" type="curve" smooth="yes"/>
      <point x="117" y="20"/>
      <point x="35" y="-38"/>
      <point x="35" y="-132" type="curve" smooth="yes"/>
      <point x="35" y="-209"/>
      <point x="82" y="-271"/>
    </contour>
    <contour>
      <point x="136" y="140" type="curve"/>
      <point x="179" y="193" type="line"/>
      <point x="138" y="235"/>
      <point x="118" y="299"/>
      <point x="118" y="379" type="curve" smooth="yes"/>
      <point x="118" y="502"/>
      <point x="163" y="576"/>
      <point x="250" y="576" type="curve" smooth="yes"/>
      <point x="337" y="576"/>
      <point x="382" y="502"/>
      <point x="382" y="379" type="curve" smooth="yes"/>
      <point x="382" y="299"/>
      <point x="362" y="235"/>
      <point x="321" y="193" type="curve"/>
      <point x="364" y="140" type="line"/>
      <point x="422" y="184"/>
      <point x="465" y="282"/>
      <point x="465" y="380" type="curve" smooth="yes"/>
      <point x="465" y="532"/>
      <point x="387" y="640"/>
      <point x="250" y="640" type="curve" smooth="yes"/>
      <point x="113" y="640"/>
      <point x="35" y="533"/>
      <point x="35" y="380" type="curve" smooth="yes"/>
      <point x="35" y="279"/>
      <point x="78" y="183"/>
    </contour>
    <contour>
      <point x="875" y="-271" type="line"/>
      <point x="957" y="-271" type="line"/>
      <point x="957" y="342" type="line" smooth="yes"/>
      <point x="957" y="559"/>
      <point x="910" y="638"/>
      <point x="801" y="756" type="curve" smooth="yes"/>
      <point x="760" y="800"/>
      <point x="739" y="847"/>
      <point x="739" y="895" type="curve" smooth="yes"/>
      <point x="739" y="954"/>
      <point x="774" y="989"/>
      <point x="818" y="989" type="curve" smooth="yes"/>
      <point x="863" y="989"/>
      <point x="883" y="957"/>
      <point x="900" y="919" type="curve"/>
      <point x="964" y="951" type="line"/>
      <point x="937" y="1027"/>
      <point x="887" y="1053"/>
      <point x="817" y="1053" type="curve" smooth="yes"/>
      <point x="716" y="1053"/>
      <point x="656" y="981"/>
      <point x="656" y="895" type="curve" smooth="yes"/>
      <point x="656" y="820"/>
      <point x="693" y="758"/>
      <point x="759" y="690" type="curve" smooth="yes"/>
      <point x="842" y="604"/>
      <point x="875" y="514"/>
      <point x="875" y="347" type="curve" smooth="yes"/>
    </contour>
  </outline>
</glyph>
<glyph name="u_m" format="2">
  <advance width="496"/>
  <unicode hex="1025"/>
  <note>
u_m
</note>
  <outline>
    <contour>
      <point x="201" y="-271" type="curve" smooth="yes"/>
      <point x="281" y="-271" type="line" smooth="yes"/>
      <point x="372" y="-271"/>
      <point x="435" y="-223"/>
      <point x="435" y="-135" type="curve" smooth="yes"/>
      <point x="435" y="-59"/>
      <point x="384" y="-7"/>
      <point x="318" y="-7" type="curve" smooth="yes"/>
      <point x="267" y="-7"/>
      <point x="237" y="-27"/>
      <point x="207" y="-61" type="curve"/>
      <point x="248" y="-104" type="line"/>
      <point x="265" y="-85"/>
      <point x="282" y="-71"/>
      <point x="306" y="-71" type="curve" smooth="yes"/>
      <point x="334" y="-71"/>
      <point x="353" y="-92"/>
      <point x="353" y="-136" type="curve" smooth="yes"/>
      <point x="353" y="-183"/>
      <point x="323" y="-207"/>
      <point x="276" y="-207" type="curve" smooth="yes"/>
      <point x="206" y="-207" type="line" smooth="yes"/>
      <point x="149" y="-207"/>
      <point x="125" y="-166"/>
      <point x="125" y="-93" type="curve" smooth="yes"/>
      <point x="125" y="204" type="line"/>
      <point x="45" y="288" type="line"/>
      <point x="45" y="-85" type="line" smooth="yes"/>
      <point x="45" y="-209"/>
      <point x="97" y="-271"/>
    </contour>
    <contour>
      <point x="238" y="140" type="curve" smooth="yes"/>
      <point x="371" y="140"/>
      <point x="457" y="246"/>
      <point x="457" y="390" type="curve" smooth="yes"/>
      <point x="457" y="532"/>
      <point x="370" y="640"/>
      <point x="238" y="640" type="curve" smooth="yes"/>
      <point x="152" y="640"/>
      <point x="79" y="580"/>
      <point x="50" y="493" type="curve"/>
      <point x="109" y="463" type="line"/>
      <point x="139" y="537"/>
      <point x="184" y="576"/>
      <point x="240" y="576" type="curve" smooth="yes"/>
      <point x="323" y="576"/>
      <point x="374" y="499"/>
      <point x="374" y="391" type="curve" smooth="yes"/>
      <point x="374" y="282"/>
      <point x="317" y="204"/>
      <point x="236" y="204" type="curve" smooth="yes"/>
      <point x="182" y="204"/>
      <point x="139" y="243"/>
      <point x="108" y="317" type="curve"/>
      <point x="45" y="288" type="line"/>
      <point x="74" y="199"/>
      <point x="148" y="140"/>
    </contour>
  </outline>
</glyph>
<glyph name="e_m" format="2">
  <advance width="494"/>
  <unicode hex="1027"/>
  <note>
e_m
</note>
  <outline>
    <contour>
      <point x="257" y="140" type="curve" smooth="yes"/>
      <point x="362" y="140"/>
      <point x="430" y="198"/>
      <point x="455" y="284" type="curve"/>
      <point x="405" y="325"/>
      <point x="347" y="358"/>
      <point x="267" y="358" type="curve" smooth="yes"/>
      <point x="221" y="358"/>
      <point x="169" y="339"/>
      <point x="132" y="310" type="curve"/>
      <point x="125" y="333"/>
      <point x="121" y="359"/>
      <point x="121" y="388" type="curve" smooth="yes"/>
      <point x="121" y="421"/>
      <point x="125" y="447"/>
      <point x="132" y="469" type="curve"/>
      <point x="169" y="441"/>
      <point x="221" y="422"/>
      <point x="267" y="422" type="curve" smooth="yes"/>
      <point x="347" y="422"/>
      <point x="405" y="454"/>
      <point x="455" y="496" type="curve"/>
      <point x="430" y="582"/>
      <point x="362" y="640"/>
      <point x="257" y="640" type="curve" smooth="yes"/>
      <point x="129" y="640"/>
      <point x="39" y="534"/>
      <point x="39" y="389" type="curve" smooth="yes"/>
      <point x="39" y="245"/>
      <point x="129" y="140"/>
    </contour>
    <contour>
      <point x="260" y="204" type="curve" smooth="yes"/>
      <point x="216" y="204"/>
      <point x="181" y="229"/>
      <point x="161" y="255" type="curve"/>
      <point x="190" y="281"/>
      <point x="227" y="299"/>
      <point x="265" y="299" type="curve" smooth="yes"/>
      <point x="303" y="299"/>
      <point x="335" y="288"/>
      <point x="364" y="262" type="curve"/>
      <point x="344" y="222"/>
      <point x="312" y="204"/>
    </contour>
    <contour>
      <point x="265" y="480" type="curve" smooth="yes"/>
      <point x="227" y="480"/>
      <point x="190" y="498"/>
      <point x="161" y="524" type="curve"/>
      <point x="181" y="550"/>
      <point x="216" y="576"/>
      <point x="260" y="576" type="curve" smooth="yes"/>
      <point x="312" y="576"/>
      <point x="344" y="558"/>
      <point x="364" y="518" type="curve"/>
      <point x="335" y="492"/>
      <point x="303" y="480"/>
    </contour>
  </outline>
</glyph>
<glyph name="e_mon" format="2">
  <advance width="510"/>
  <unicode hex="1028"/>
  <note>
e_mon
</note>
  <outline>
    <contour>
      <point x="257" y="-271" type="curve" smooth="yes"/>
      <point x="398" y="-271"/>
      <point x="471" y="-162"/>
      <point x="471" y="-37" type="curve" smooth="yes"/>
      <point x="471" y="-31" type="line"/>
      <point x="388" y="-31" type="line"/>
      <point x="388" y="-37" type="line" smooth="yes"/>
      <point x="388" y="-126"/>
      <point x="348" y="-207"/>
      <point x="259" y="-207" type="curve" smooth="yes"/>
      <point x="173" y="-207"/>
      <point x="132" y="-133"/>
      <point x="132" y="-10" type="curve" smooth="yes"/>
      <point x="132" y="379" type="line" smooth="yes"/>
      <point x="132" y="503"/>
      <point x="173" y="577"/>
      <point x="259" y="577" type="curve" smooth="yes"/>
      <point x="342" y="577"/>
      <point x="388" y="504"/>
      <point x="388" y="394" type="curve" smooth="yes"/>
      <point x="388" y="307"/>
      <point x="360" y="203"/>
      <point x="313" y="203" type="curve" smooth="yes"/>
      <point x="295" y="203"/>
      <point x="288" y="215"/>
      <point x="288" y="226" type="curve" smooth="yes"/>
      <point x="288" y="240"/>
      <point x="292" y="253"/>
      <point x="315" y="277" type="curve" smooth="yes"/>
      <point x="335" y="298"/>
      <point x="350" y="330"/>
      <point x="350" y="364" type="curve" smooth="yes"/>
      <point x="350" y="412"/>
      <point x="322" y="456"/>
      <point x="262" y="456" type="curve" smooth="yes"/>
      <point x="207" y="456"/>
      <point x="180" y="417"/>
      <point x="164" y="381" type="curve"/>
      <point x="215" y="352" type="line"/>
      <point x="228" y="379"/>
      <point x="239" y="395"/>
      <point x="257" y="395" type="curve" smooth="yes"/>
      <point x="272" y="395"/>
      <point x="281" y="385"/>
      <point x="281" y="367" type="curve" smooth="yes"/>
      <point x="281" y="349"/>
      <point x="275" y="334"/>
      <point x="257" y="316" type="curve" smooth="yes"/>
      <point x="228" y="287"/>
      <point x="208" y="257"/>
      <point x="208" y="221" type="curve" smooth="yes"/>
      <point x="208" y="170"/>
      <point x="251" y="140"/>
      <point x="309" y="140" type="curve" smooth="yes"/>
      <point x="418" y="140"/>
      <point x="471" y="264"/>
      <point x="471" y="391" type="curve" smooth="yes"/>
      <point x="471" y="541"/>
      <point x="395" y="640"/>
      <point x="257" y="640" type="curve" smooth="yes"/>
      <point x="115" y="640"/>
      <point x="49" y="532"/>
      <point x="49" y="378" type="curve" smooth="yes"/>
      <point x="49" y="-9" type="line" smooth="yes"/>
      <point x="49" y="-171"/>
      <point x="120" y="-271"/>
    </contour>
  </outline>
</glyph>
<glyph name="o_m" format="2">
  <advance width="1022"/>
  <unicode hex="1029"/>
  <note>
o_m
</note>
  <outline>
    <contour>
      <point x="205" y="-270" type="curve" smooth="yes"/>
      <point x="810" y="-270" type="line" smooth="yes"/>
      <point x="915" y="-270"/>
      <point x="967" y="-207"/>
      <point x="967" y="-80" type="curve" smooth="yes"/>
      <point x="967" y="289" type="line"/>
      <point x="885" y="289" type="line"/>
      <point x="885" y="-88" type="line" smooth="yes"/>
      <point x="885" y="-163"/>
      <point x="862" y="-207"/>
      <point x="813" y="-207" type="curve" smooth="yes"/>
      <point x="203" y="-207" type="line" smooth="yes"/>
      <point x="154" y="-207"/>
      <point x="131" y="-164"/>
      <point x="131" y="-88" type="curve" smooth="yes"/>
      <point x="131" y="870" type="line" smooth="yes"/>
      <point x="131" y="946"/>
      <point x="154" y="988"/>
      <point x="203" y="988" type="curve" smooth="yes"/>
      <point x="813" y="988" type="line" smooth="yes"/>
      <point x="862" y="988"/>
      <point x="885" y="945"/>
      <point x="885" y="870" type="curve" smooth="yes"/>
      <point x="885" y="834" type="line"/>
      <point x="967" y="834" type="line"/>
      <point x="967" y="861" type="line" smooth="yes"/>
      <point x="967" y="988"/>
      <point x="915" y="1052"/>
      <point x="810" y="1052" type="curve" smooth="yes"/>
      <point x="205" y="1052" type="line" smooth="yes"/>
      <point x="101" y="1052"/>
      <point x="49" y="988"/>
      <point x="49" y="861" type="curve" smooth="yes"/>
      <point x="49" y="-80" type="line" smooth="yes"/>
      <point x="49" y="-207"/>
      <point x="101" y="-270"/>
    </contour>
    <contour>
      <point x="411" y="140" type="curve" smooth="yes"/>
      <point x="559" y="140"/>
      <point x="627" y="260"/>
      <point x="627" y="394" type="curve" smooth="yes"/>
      <point x="627" y="532"/>
      <point x="541" y="640"/>
      <point x="410" y="640" type="curve" smooth="yes"/>
      <point x="324" y="640"/>
      <point x="251" y="581"/>
      <point x="222" y="493" type="curve"/>
      <point x="281" y="463" type="line"/>
      <point x="312" y="537"/>
      <point x="355" y="576"/>
      <point x="411" y="576" type="curve" smooth="yes"/>
      <point x="493" y="576"/>
      <point x="544" y="500"/>
      <point x="544" y="391" type="curve" smooth="yes"/>
      <point x="544" y="284"/>
      <point x="490" y="204"/>
      <point x="407" y="204" type="curve" smooth="yes"/>
      <point x="351" y="204"/>
      <point x="306" y="243"/>
      <point x="280" y="317" type="curve"/>
      <point x="217" y="288" type="line"/>
      <point x="246" y="199"/>
      <point x="319" y="140"/>
    </contour>
    <contour>
      <point x="765" y="140" type="curve" smooth="yes"/>
      <point x="896" y="140"/>
      <point x="983" y="244"/>
      <point x="983" y="391" type="curve" smooth="yes"/>
      <point x="983" y="542"/>
      <point x="897" y="640"/>
      <point x="783" y="640" type="curve" smooth="yes"/>
      <point x="741" y="640"/>
      <point x="703" y="633"/>
      <point x="674" y="617" type="curve"/>
      <point x="703" y="562" type="line"/>
      <point x="727" y="571"/>
      <point x="746" y="576"/>
      <point x="774" y="576" type="curve" smooth="yes"/>
      <point x="851" y="576"/>
      <point x="901" y="504"/>
      <point x="901" y="393" type="curve" smooth="yes"/>
      <point x="901" y="283"/>
      <point x="850" y="205"/>
      <point x="763" y="205" type="curve" smooth="yes"/>
      <point x="695" y="205"/>
      <point x="647" y="259"/>
      <point x="616" y="335" type="curve"/>
      <point x="579" y="257" type="line"/>
      <point x="620" y="182"/>
      <point x="683" y="140"/>
    </contour>
  </outline>
</glyph>
<glyph name="_tall_aa" format="2">
  <advance width="181"/>
  <unicode hex="102B"/>
  <note>
_tall_aa
</note>
  <outline>
    <contour>
      <point x="49" y="149" type="line"/>
      <point x="132" y="149" type="line"/>
      <point x="132" y="854" type="line" smooth="yes"/>
      <point x="132" y="983"/>
      <point x="63" y="1052"/>
      <point x="-46" y="1052" type="curve" smooth="yes"/>
      <point x="-152" y="1052"/>
      <point x="-222" y="982"/>
      <point x="-222" y="866" type="curve" smooth="yes"/>
      <point x="-222" y="843" type="line"/>
      <point x="-139" y="843" type="line"/>
      <point x="-139" y="866" type="line" smooth="yes"/>
      <point x="-139" y="943"/>
      <point x="-105" y="988"/>
      <point x="-45" y="988" type="curve" smooth="yes"/>
      <point x="17" y="988"/>
      <point x="49" y="946"/>
      <point x="49" y="848" type="curve" smooth="yes"/>
    </contour>
  </outline>
</glyph>
<glyph name="_aa" format="2">
  <advance width="342"/>
  <unicode hex="102C"/>
  <note>
_aa
</note>
  <outline>
    <contour>
      <point x="113" y="140" type="curve" smooth="yes"/>
      <point x="228" y="140"/>
      <point x="304" y="244"/>
      <point x="304" y="390" type="curve" smooth="yes"/>
      <point x="304" y="532"/>
      <point x="226" y="640"/>
      <point x="89" y="640" type="curve" smooth="yes"/>
      <point x="-7" y="640"/>
      <point x="-67" y="583"/>
      <point x="-108" y="527" type="curve"/>
      <point x="-71" y="468" type="line"/>
      <point x="-22" y="542"/>
      <point x="27" y="576"/>
      <point x="89" y="576" type="curve" smooth="yes"/>
      <point x="177" y="576"/>
      <point x="221" y="497"/>
      <point x="221" y="391" type="curve" smooth="yes"/>
      <point x="221" y="278"/>
      <point x="175" y="204"/>
      <point x="103" y="204" type="curve" smooth="yes"/>
      <point x="77" y="204"/>
      <point x="57" y="208"/>
      <point x="38" y="217" type="curve"/>
      <point x="9" y="163" type="line"/>
      <point x="37" y="149"/>
      <point x="67" y="140"/>
    </contour>
  </outline>
</glyph>
<glyph name="_i" format="2">
  <unicode hex="102D"/>
  <note>
_i
</note>
  <outline>
    <contour>
      <point x="-231" y="712" type="curve" smooth="yes"/>
      <point x="-136" y="712"/>
      <point x="-90" y="784"/>
      <point x="-90" y="878" type="curve" smooth="yes"/>
      <point x="-90" y="972"/>
      <point x="-133" y="1050"/>
      <point x="-230" y="1050" type="curve" smooth="yes"/>
      <point x="-327" y="1050"/>
      <point x="-370" y="975"/>
      <point x="-370" y="882" type="curve" smooth="yes"/>
      <point x="-370" y="787"/>
      <point x="-326" y="712"/>
    </contour>
    <contour>
      <point x="-230" y="768" type="curve" smooth="yes"/>
      <point x="-284" y="768"/>
      <point x="-302" y="817"/>
      <point x="-302" y="880" type="curve" smooth="yes"/>
      <point x="-302" y="946"/>
      <point x="-286" y="995"/>
      <point x="-230" y="995" type="curve" smooth="yes"/>
      <point x="-174" y="995"/>
      <point x="-157" y="943"/>
      <point x="-157" y="876" type="curve" smooth="yes"/>
      <point x="-157" y="813"/>
      <point x="-176" y="768"/>
    </contour>
  </outline>
</glyph>
<glyph name="_ii" format="2">
  <unicode hex="102E"/>
  <note>
_ii
</note>
  <outline>
    <contour>
      <point x="-231" y="712" type="curve" smooth="yes"/>
      <point x="-136" y="712"/>
      <point x="-90" y="784"/>
      <point x="-90" y="878" type="curve" smooth="yes"/>
      <point x="-90" y="972"/>
      <point x="-133" y="1050"/>
      <point x="-230" y="1050" type="curve" smooth="yes"/>
      <point x="-327" y="1050"/>
      <point x="-370" y="975"/>
      <point x="-370" y="882" type="curve" smooth="yes"/>
      <point x="-370" y="787"/>
      <point x="-326" y="712"/>
    </contour>
    <contour>
      <point x="-230" y="768" type="curve" smooth="yes"/>
      <point x="-284" y="768"/>
      <point x="-302" y="817"/>
      <point x="-302" y="880" type="curve" smooth="yes"/>
      <point x="-302" y="946"/>
      <point x="-286" y="995"/>
      <point x="-230" y="995" type="curve" smooth="yes"/>
      <point x="-174" y="995"/>
      <point x="-157" y="943"/>
      <point x="-157" y="876" type="curve" smooth="yes"/>
      <point x="-157" y="813"/>
      <point x="-176" y="768"/>
    </contour>
    <contour>
      <point x="-302" y="804" type="line"/>
      <point x="-280" y="829"/>
      <point x="-255" y="846"/>
      <point x="-229" y="846" type="curve" smooth="yes"/>
      <point x="-202" y="846"/>
      <point x="-178" y="829"/>
      <point x="-157" y="805" type="curve"/>
      <point x="-145" y="855" type="line"/>
      <point x="-170" y="883"/>
      <point x="-195" y="900"/>
      <point x="-230" y="900" type="curve" smooth="yes"/>
      <point x="-264" y="900"/>
      <point x="-292" y="880"/>
      <point x="-314" y="855" type="curve"/>
    </contour>
  </outline>
</glyph>
<glyph name="_u" format="2">
  <unicode hex="102F"/>
  <note>
_u
</note>
  <outline>
    <contour>
      <point x="-276" y="-271" type="line"/>
      <point x="-102" y="-271" type="line"/>
      <point x="-102" y="-208" type="line"/>
      <point x="-193" y="-208" type="line"/>
      <point x="-193" y="105" type="line"/>
      <point x="-276" y="105" type="line"/>
    </contour>
  </outline>
</glyph>
<glyph name="_uu" format="2">
  <unicode hex="1030"/>
  <note>
_uu
</note>
  <outline>
    <contour>
      <point x="-205" y="-271" type="line"/>
      <point x="-31" y="-271" type="line"/>
      <point x="-31" y="-207" type="line"/>
      <point x="-122" y="-207" type="line"/>
      <point x="-122" y="105" type="line"/>
      <point x="-205" y="105" type="line"/>
    </contour>
    <contour>
      <point x="-374" y="-271" type="line"/>
      <point x="-291" y="-271" type="line"/>
      <point x="-291" y="105" type="line"/>
      <point x="-374" y="105" type="line"/>
    </contour>
  </outline>
</glyph>
<glyph name="_e" format="2">
  <advance width="501"/>
  <unicode hex="1031"/>
  <note>
_e
</note>
  <outline>
    <contour>
      <point x="266" y="140" type="curve" smooth="yes"/>
      <point x="365" y="140"/>
      <point x="441" y="205"/>
      <point x="462" y="308" type="curve"/>
      <point x="390" y="363"/>
      <point x="337" y="388"/>
      <point x="275" y="388" type="curve" smooth="yes"/>
      <point x="209" y="388"/>
      <point x="157" y="357"/>
      <point x="116" y="315" type="curve"/>
      <point x="135" y="260" type="line"/>
      <point x="172" y="298"/>
      <point x="213" y="328"/>
      <point x="271" y="328" type="curve" smooth="yes"/>
      <point x="308" y="328"/>
      <point x="345" y="309"/>
      <point x="377" y="286" type="curve"/>
      <point x="356" y="232"/>
      <point x="313" y="204"/>
      <point x="264" y="204" type="curve" smooth="yes"/>
      <point x="168" y="204"/>
      <point x="121" y="297"/>
      <point x="121" y="391" type="curve" smooth="yes"/>
      <point x="121" y="501"/>
      <point x="177" y="576"/>
      <point x="270" y="576" type="curve" smooth="yes"/>
      <point x="327" y="576"/>
      <point x="372" y="541"/>
      <point x="398" y="463" type="curve"/>
      <point x="458" y="493" type="line"/>
      <point x="420" y="595"/>
      <point x="359" y="640"/>
      <point x="263" y="640" type="curve" smooth="yes"/>
      <point x="126" y="640"/>
      <point x="39" y="531"/>
      <point x="39" y="390" type="curve" smooth="yes"/>
      <point x="39" y="250"/>
      <point x="130" y="140"/>
    </contour>
  </outline>
</glyph>
<glyph name="_ai" format="2">
  <unicode hex="1032"/>
  <note>
_ai
</note>
  <outline>
    <contour>
      <point x="-153" y="697" type="line"/>
      <point x="-105" y="738" type="line"/>
      <point x="-257" y="914" type="line"/>
      <point x="-306" y="875" type="line"/>
    </contour>
  </outline>
</glyph>
<glyph name="_ii_mon" format="2">
  <unicode hex="1033"/>
  <note>
_ii_mon
</note>
  <outline>
    <contour>
      <point x="-241" y="712" type="curve" smooth="yes"/>
      <point x="-148" y="712"/>
      <point x="-88" y="782"/>
      <point x="-88" y="882" type="curve" smooth="yes"/>
      <point x="-88" y="977"/>
      <point x="-150" y="1050"/>
      <point x="-241" y="1050" type="curve" smooth="yes"/>
      <point x="-335" y="1050"/>
      <point x="-395" y="975"/>
      <point x="-395" y="882" type="curve" smooth="yes"/>
      <point x="-395" y="784"/>
      <point x="-337" y="712"/>
    </contour>
    <contour>
      <point x="-241" y="760" type="curve" smooth="yes"/>
      <point x="-307" y="760"/>
      <point x="-344" y="810"/>
      <point x="-344" y="882" type="curve" smooth="yes"/>
      <point x="-344" y="953"/>
      <point x="-303" y="1004"/>
      <point x="-241" y="1004" type="curve" smooth="yes"/>
      <point x="-180" y="1004"/>
      <point x="-139" y="951"/>
      <point x="-139" y="882" type="curve" smooth="yes"/>
      <point x="-139" y="807"/>
      <point x="-177" y="760"/>
    </contour>
    <contour>
      <point x="-241" y="803" type="curve" smooth="yes"/>
      <point x="-204" y="803"/>
      <point x="-175" y="836"/>
      <point x="-175" y="882" type="curve" smooth="yes"/>
      <point x="-175" y="928"/>
      <point x="-204" y="960"/>
      <point x="-241" y="960" type="curve" smooth="yes"/>
      <point x="-279" y="960"/>
      <point x="-307" y="928"/>
      <point x="-307" y="882" type="curve" smooth="yes"/>
      <point x="-307" y="836"/>
      <point x="-280" y="803"/>
    </contour>
    <contour>
      <point x="-242" y="842" type="curve" smooth="yes"/>
      <point x="-261" y="842"/>
      <point x="-274" y="858"/>
      <point x="-274" y="882" type="curve" smooth="yes"/>
      <point x="-274" y="906"/>
      <point x="-260" y="922"/>
      <point x="-242" y="922" type="curve" smooth="yes"/>
      <point x="-223" y="922"/>
      <point x="-209" y="906"/>
      <point x="-209" y="882" type="curve" smooth="yes"/>
      <point x="-209" y="858"/>
      <point x="-222" y="842"/>
    </contour>
  </outline>
</glyph>
<glyph name="_e_above" format="2">
  <unicode hex="1035"/>
  <note>
_e_above
</note>
  <outline>
    <contour>
      <point x="-212" y="712" type="curve" smooth="yes"/>
      <point x="-148" y="712"/>
      <point x="-96" y="757"/>
      <point x="-77" y="830" type="curve"/>
      <point x="-108" y="867"/>
      <point x="-151" y="899"/>
      <point x="-210" y="899" type="curve" smooth="yes"/>
      <point x="-248" y="899"/>
      <point x="-279" y="885"/>
      <point x="-303" y="864" type="curve"/>
      <point x="-285" y="803" type="line"/>
      <point x="-265" y="831"/>
      <point x="-240" y="844"/>
      <point x="-210" y="844" type="curve" smooth="yes"/>
      <point x="-184" y="844"/>
      <point x="-163" y="833"/>
      <point x="-146" y="817" type="curve"/>
      <point x="-159" y="786"/>
      <point x="-183" y="768"/>
      <point x="-212" y="768" type="curve" smooth="yes"/>
      <point x="-264" y="768"/>
      <point x="-290" y="816"/>
      <point x="-290" y="882" type="curve" smooth="yes"/>
      <point x="-290" y="946"/>
      <point x="-261" y="995"/>
      <point x="-211" y="995" type="curve" smooth="yes"/>
      <point x="-175" y="995"/>
      <point x="-145" y="969"/>
      <point x="-133" y="931" type="curve"/>
      <point x="-82" y="958" type="line"/>
      <point x="-102" y="1016"/>
      <point x="-151" y="1050"/>
      <point x="-210" y="1050" type="curve" smooth="yes"/>
      <point x="-299" y="1050"/>
      <point x="-354" y="978"/>
      <point x="-354" y="882" type="curve" smooth="yes"/>
      <point x="-354" y="785"/>
      <point x="-300" y="712"/>
    </contour>
  </outline>
</glyph>
<glyph name="anusvara" format="2">
  <unicode hex="1036"/>
  <note>
anusvara
</note>
  <outline>
    <contour>
      <point x="-244" y="716" type="curve" smooth="yes"/>
      <point x="-193" y="716"/>
      <point x="-156" y="750"/>
      <point x="-156" y="811" type="curve" smooth="yes"/>
      <point x="-156" y="869"/>
      <point x="-193" y="903"/>
      <point x="-244" y="903" type="curve" smooth="yes"/>
      <point x="-295" y="903"/>
      <point x="-330" y="868"/>
      <point x="-330" y="810" type="curve" smooth="yes"/>
      <point x="-330" y="750"/>
      <point x="-295" y="716"/>
    </contour>
    <contour>
      <point x="-243" y="760" type="curve" smooth="yes"/>
      <point x="-267" y="760"/>
      <point x="-279" y="779"/>
      <point x="-279" y="810" type="curve" smooth="yes"/>
      <point x="-279" y="840"/>
      <point x="-264" y="859"/>
      <point x="-243" y="859" type="curve" smooth="yes"/>
      <point x="-222" y="859"/>
      <point x="-207" y="840"/>
      <point x="-207" y="810" type="curve" smooth="yes"/>
      <point x="-207" y="779"/>
      <point x="-222" y="760"/>
    </contour>
  </outline>
</glyph>
<glyph name="visarga" format="2">
  <advance width="268"/>
  <unicode hex="1038"/>
  <note>
visarga
</note>
  <outline>
    <contour>
      <point x="133" y="443" type="curve" smooth="yes"/>
      <point x="184" y="443"/>
      <point x="221" y="478"/>
      <point x="221" y="539" type="curve" smooth="yes"/>
      <point x="221" y="596"/>
      <point x="185" y="631"/>
      <point x="133" y="631" type="curve" smooth="yes"/>
      <point x="81" y="631"/>
      <point x="47" y="596"/>
      <point x="47" y="538" type="curve" smooth="yes"/>
      <point x="47" y="478"/>
      <point x="82" y="443"/>
    </contour>
    <contour>
      <point x="133" y="139" type="curve" smooth="yes"/>
      <point x="184" y="139"/>
      <point x="221" y="173"/>
      <point x="221" y="234" type="curve" smooth="yes"/>
      <point x="221" y="291"/>
      <point x="185" y="326"/>
      <point x="133" y="326" type="curve" smooth="yes"/>
      <point x="81" y="326"/>
      <point x="47" y="291"/>
      <point x="47" y="233" type="curve" smooth="yes"/>
      <point x="47" y="173"/>
      <point x="82" y="139"/>
    </contour>
    <contour>
      <point x="134" y="183" type="curve" smooth="yes"/>
      <point x="110" y="183"/>
      <point x="98" y="202"/>
      <point x="98" y="233" type="curve" smooth="yes"/>
      <point x="98" y="263"/>
      <point x="113" y="282"/>
      <point x="134" y="282" type="curve" smooth="yes"/>
      <point x="155" y="282"/>
      <point x="171" y="263"/>
      <point x="171" y="233" type="curve" smooth="yes"/>
      <point x="171" y="202"/>
      <point x="155" y="183"/>
    </contour>
    <contour>
      <point x="134" y="488" type="curve" smooth="yes"/>
      <point x="110" y="488"/>
      <point x="98" y="505"/>
      <point x="98" y="538" type="curve" smooth="yes"/>
      <point x="98" y="568"/>
      <point x="113" y="586"/>
      <point x="134" y="586" type="curve" smooth="yes"/>
      <point x="155" y="586"/>
      <point x="170" y="568"/>
      <point x="170" y="538" type="curve" smooth="yes"/>
      <point x="170" y="506"/>
      <point x="155" y="488"/>
    </contour>
  </outline>
</glyph>
<glyph name="virama" format="2">
  <unicode hex="1039"/>
  <note>
virama
</note>
  <outline>
    <contour>
      <point x="-271" y="-223" type="line"/>
      <point x="-205" y="-223" type="line"/>
      <point x="-205" y="-109" type="line"/>
      <point x="-112" y="-109" type="line"/>
      <point x="-112" y="-53" type="line"/>
      <point x="-205" y="-53" type="line"/>
      <point x="-205" y="61" type="line"/>
      <point x="-271" y="61" type="line"/>
      <point x="-271" y="-53" type="line"/>
      <point x="-363" y="-53" type="line"/>
      <point x="-363" y="-109" type="line"/>
      <point x="-271" y="-109" type="line"/>
    </contour>
  </outline>
</glyph>
<glyph name="asat" format="2">
  <unicode hex="103A"/>
  <note>
asat
</note>
  <outline>
    <contour>
      <point x="-282" y="714" type="curve"/>
      <point x="-240" y="757" type="line"/>
      <point x="-264" y="783"/>
      <point x="-301" y="823"/>
      <point x="-301" y="892" type="curve" smooth="yes"/>
      <point x="-301" y="961"/>
      <point x="-272" y="995"/>
      <point x="-230" y="995" type="curve" smooth="yes"/>
      <point x="-197" y="995"/>
      <point x="-175" y="973"/>
      <point x="-162" y="941" type="curve"/>
      <point x="-114" y="977" type="line"/>
      <point x="-136" y="1023"/>
      <point x="-178" y="1050"/>
      <point x="-230" y="1050" type="curve" smooth="yes"/>
      <point x="-310" y="1050"/>
      <point x="-369" y="988"/>
      <point x="-369" y="892" type="curve" smooth="yes"/>
      <point x="-369" y="811"/>
      <point x="-329" y="758"/>
    </contour>
  </outline>
</glyph>
<glyph name="medial_ya" format="2">
  <advance width="163"/>
  <unicode hex="103B"/>
  <note>
medial_ya
</note>
  <outline>
    <contour>
      <point x="123" y="-270" type="line"/>
      <point x="123" y="630" type="line"/>
      <point x="40" y="630" type="line"/>
      <point x="40" y="-175" type="line"/>
      <point x="-86" y="-127" type="line"/>
      <point x="-86" y="244" type="line"/>
      <point x="-169" y="244" type="line"/>
      <point x="-169" y="-163" type="line"/>
    </contour>
  </outline>
</glyph>
<glyph name="medial_ra" format="2">
  <advance width="180"/>
  <unicode hex="103C"/>
  <note>
medial_ra
</note>
  <outline>
    <contour>
      <point x="205" y="-270" type="curve" smooth="yes"/>
      <point x="481" y="-270" type="line" smooth="yes"/>
      <point x="586" y="-270"/>
      <point x="638" y="-207"/>
      <point x="638" y="-80" type="curve" smooth="yes"/>
      <point x="638" y="289" type="line"/>
      <point x="556" y="289" type="line"/>
      <point x="556" y="-88" type="line" smooth="yes"/>
      <point x="556" y="-163"/>
      <point x="533" y="-207"/>
      <point x="484" y="-207" type="curve" smooth="yes"/>
      <point x="203" y="-207" type="line" smooth="yes"/>
      <point x="154" y="-207"/>
      <point x="131" y="-164"/>
      <point x="131" y="-88" type="curve" smooth="yes"/>
      <point x="131" y="870" type="line" smooth="yes"/>
      <point x="131" y="946"/>
      <point x="154" y="988"/>
      <point x="203" y="988" type="curve" smooth="yes"/>
      <point x="484" y="988" type="line" smooth="yes"/>
      <point x="533" y="988"/>
      <point x="556" y="945"/>
      <point x="556" y="870" type="curve" smooth="yes"/>
      <point x="556" y="834" type="line"/>
      <point x="638" y="834" type="line"/>
      <point x="638" y="861" type="line" smooth="yes"/>
      <point x="638" y="988"/>
      <point x="586" y="1052"/>
      <point x="481" y="1052" type="curve" smooth="yes"/>
      <point x="205" y="1052" type="line" smooth="yes"/>
      <point x="101" y="1052"/>
      <point x="49" y="988"/>
      <point x="49" y="861" type="curve" smooth="yes"/>
      <point x="49" y="-80" type="line" smooth="yes"/>
      <point x="49" y="-207"/>
      <point x="101" y="-270"/>
    </contour>
  </outline>
</glyph>
<glyph name="medial_wa" format="2">
  <unicode hex="103D"/>
  <note>
medial_wa
</note>
  <outline>
    <contour>
      <point x="-246" y="-232" type="curve" smooth="yes"/>
      <point x="-150" y="-232"/>
      <point x="-102" y="-156"/>
      <point x="-102" y="-67" type="curve" smooth="yes"/>
      <point x="-102" y="27"/>
      <point x="-148" y="105"/>
      <point x="-245" y="105" type="curve" smooth="yes"/>
      <point x="-337" y="105"/>
      <point x="-387" y="33"/>
      <point x="-387" y="-64" type="curve" smooth="yes"/>
      <point x="-387" y="-159"/>
      <point x="-337" y="-232"/>
    </contour>
    <contour>
      <point x="-244" y="-175" type="curve" smooth="yes"/>
      <point x="-297" y="-175"/>
      <point x="-320" y="-128"/>
      <point x="-320" y="-66" type="curve" smooth="yes"/>
      <point x="-320" y="0"/>
      <point x="-296" y="48"/>
      <point x="-244" y="48" type="curve" smooth="yes"/>
      <point x="-192" y="48"/>
      <point x="-169" y="-1"/>
      <point x="-169" y="-68" type="curve" smooth="yes"/>
      <point x="-169" y="-132"/>
      <point x="-194" y="-175"/>
    </contour>
  </outline>
</glyph>
<glyph name="medial_ha" format="2">
  <unicode hex="103E"/>
  <note>
medial_ha
</note>
  <outline>
    <contour>
      <point x="-364" y="-271" type="line"/>
      <point x="-200" y="-271" type="line"/>
      <point x="-200" y="105" type="line"/>
      <point x="-266" y="105" type="line"/>
      <point x="-266" y="-215" type="line"/>
      <point x="-364" y="-215" type="line"/>
    </contour>
  </outline>
</glyph>
<glyph name="great_sa" format="2">
  <advance width="1198"/>
  <unicode hex="103F"/>
  <note>
great_sa
</note>
  <outline>
    <contour>
      <point x="231" y="140" type="curve" smooth="yes"/>
      <point x="379" y="140"/>
      <point x="447" y="260"/>
      <point x="447" y="394" type="curve" smooth="yes"/>
      <point x="447" y="532"/>
      <point x="361" y="640"/>
      <point x="230" y="640" type="curve" smooth="yes"/>
      <point x="144" y="640"/>
      <point x="71" y="581"/>
      <point x="42" y="493" type="curve"/>
      <point x="101" y="463" type="line"/>
      <point x="132" y="537"/>
      <point x="175" y="576"/>
      <point x="231" y="576" type="curve" smooth="yes"/>
      <point x="313" y="576"/>
      <point x="364" y="500"/>
      <point x="364" y="391" type="curve" smooth="yes"/>
      <point x="364" y="284"/>
      <point x="310" y="204"/>
      <point x="227" y="204" type="curve" smooth="yes"/>
      <point x="171" y="204"/>
      <point x="126" y="243"/>
      <point x="100" y="317" type="curve"/>
      <point x="37" y="288" type="line"/>
      <point x="66" y="199"/>
      <point x="139" y="140"/>
    </contour>
    <contour>
      <point x="585" y="140" type="curve" smooth="yes"/>
      <point x="716" y="140"/>
      <point x="803" y="244"/>
      <point x="803" y="391" type="curve" smooth="yes"/>
      <point x="803" y="542"/>
      <point x="717" y="640"/>
      <point x="603" y="640" type="curve" smooth="yes"/>
      <point x="561" y="640"/>
      <point x="523" y="633"/>
      <point x="494" y="617" type="curve"/>
      <point x="523" y="562" type="line"/>
      <point x="547" y="571"/>
      <point x="566" y="576"/>
      <point x="594" y="576" type="curve" smooth="yes"/>
      <point x="671" y="576"/>
      <point x="721" y="504"/>
      <point x="721" y="393" type="curve" smooth="yes"/>
      <point x="721" y="283"/>
      <point x="670" y="205"/>
      <point x="583" y="205" type="curve" smooth="yes"/>
      <point x="515" y="205"/>
      <point x="467" y="259"/>
      <point x="436" y="335" type="curve"/>
      <point x="399" y="257" type="line"/>
      <point x="440" y="182"/>
      <point x="503" y="140"/>
    </contour>
    <contour>
      <point x="941" y="140" type="curve" smooth="yes"/>
      <point x="1072" y="140"/>
      <point x="1159" y="244"/>
      <point x="1159" y="391" type="curve" smooth="yes"/>
      <point x="1159" y="542"/>
      <point x="1073" y="640"/>
      <point x="959" y="640" type="curve" smooth="yes"/>
      <point x="917" y="640"/>
      <point x="879" y="633"/>
      <point x="850" y="617" type="curve"/>
      <point x="879" y="562" type="line"/>
      <point x="903" y="571"/>
      <point x="922" y="576"/>
      <point x="950" y="576" type="curve" smooth="yes"/>
      <point x="1027" y="576"/>
      <point x="1077" y="504"/>
      <point x="1077" y="393" type="curve" smooth="yes"/>
      <point x="1077" y="283"/>
      <point x="1026" y="205"/>
      <point x="939" y="205" type="curve" smooth="yes"/>
      <point x="871" y="205"/>
      <point x="823" y="259"/>
      <point x="792" y="335" type="curve"/>
      <point x="755" y="257" type="line"/>
      <point x="796" y="182"/>
      <point x="859" y="140"/>
    </contour>
  </outline>
</glyph>
<glyph name="zero_m" format="2">
  <advance width="511"/>
  <unicode hex="1040"/>
  <note>
zero_m
</note>
  <outline>
    <contour>
      <point x="255" y="140" type="curve" smooth="yes"/>
      <point x="383" y="140"/>
      <point x="472" y="244"/>
      <point x="472" y="389" type="curve" smooth="yes"/>
      <point x="472" y="530"/>
      <point x="387" y="640"/>
      <point x="256" y="640" type="curve" smooth="yes"/>
      <point x="125" y="640"/>
      <point x="39" y="531"/>
      <point x="39" y="389" type="curve" smooth="yes"/>
      <point x="39" y="247"/>
      <point x="125" y="140"/>
    </contour>
    <contour>
      <point x="255" y="201" type="curve" smooth="yes"/>
      <point x="176" y="201"/>
      <point x="122" y="274"/>
      <point x="122" y="388" type="curve" smooth="yes"/>
      <point x="122" y="502"/>
      <point x="173" y="578"/>
      <point x="255" y="578" type="curve" smooth="yes"/>
      <point x="337" y="578"/>
      <point x="390" y="501"/>
      <point x="390" y="388" type="curve" smooth="yes"/>
      <point x="390" y="277"/>
      <point x="337" y="201"/>
    </contour>
  </outline>
</glyph>
<glyph name="one_m" format="2">
  <advance width="468"/>
  <unicode hex="1041"/>
  <note>
one_m
</note>
  <outline>
    <contour>
      <point x="222" y="140" type="curve" smooth="yes"/>
      <point x="345" y="140"/>
      <point x="429" y="246"/>
      <point x="429" y="390" type="curve" smooth="yes"/>
      <point x="429" y="532"/>
      <point x="347" y="640"/>
      <point x="222" y="640" type="curve" smooth="yes"/>
      <point x="140" y="640"/>
      <point x="71" y="581"/>
      <point x="43" y="493" type="curve"/>
      <point x="102" y="463" type="line"/>
      <point x="131" y="539"/>
      <point x="171" y="578"/>
      <point x="223" y="578" type="curve" smooth="yes"/>
      <point x="299" y="578"/>
      <point x="346" y="502"/>
      <point x="346" y="391" type="curve" smooth="yes"/>
      <point x="346" y="275"/>
      <point x="296" y="201"/>
      <point x="219" y="201" type="curve" smooth="yes"/>
      <point x="167" y="201"/>
      <point x="125" y="241"/>
      <point x="101" y="317" type="curve"/>
      <point x="38" y="288" type="line"/>
      <point x="65" y="199"/>
      <point x="136" y="140"/>
    </contour>
  </outline>
</glyph>
<glyph name="two_m" format="2">
  <advance width="519"/>
  <unicode hex="1042"/>
  <note>
two_m
</note>
  <outline>
    <contour>
      <point x="246" y="-271" type="curve" smooth="yes"/>
      <point x="383" y="-271"/>
      <point x="454" y="-171"/>
      <point x="454" y="-9" type="curve" smooth="yes"/>
      <point x="454" y="631" type="line"/>
      <point x="371" y="631" type="line" smooth="yes"/>
      <point x="371" y="-10" type="line" smooth="yes"/>
      <point x="371" y="-133"/>
      <point x="330" y="-207"/>
      <point x="244" y="-207" type="curve" smooth="yes"/>
      <point x="155" y="-207"/>
      <point x="115" y="-126"/>
      <point x="115" y="-37" type="curve" smooth="yes"/>
      <point x="115" y="-31" type="line"/>
      <point x="32" y="-31" type="line"/>
      <point x="32" y="-37" type="line" smooth="yes"/>
      <point x="32" y="-162"/>
      <point x="105" y="-271"/>
    </contour>
  </outline>
</glyph>
<glyph name="three_m" format="2">
  <advance width="465"/>
  <unicode hex="1043"/>
  <note>
three_m
</note>
  <outline>
    <contour>
      <point x="281" y="-271" type="line"/>
      <point x="367" y="-271" type="line"/>
      <point x="240" y="10" type="line" smooth="yes"/>
      <point x="219" y="56"/>
      <point x="185" y="131"/>
      <point x="160" y="168" type="curve"/>
      <point x="160" y="156" type="line"/>
      <point x="176" y="146"/>
      <point x="196" y="140"/>
      <point x="224" y="140" type="curve" smooth="yes"/>
      <point x="343" y="140"/>
      <point x="426" y="249"/>
      <point x="426" y="390" type="curve" smooth="yes"/>
      <point x="426" y="533"/>
      <point x="354" y="640"/>
      <point x="219" y="640" type="curve" smooth="yes"/>
      <point x="127" y="640"/>
      <point x="68" y="580"/>
      <point x="40" y="493" type="curve"/>
      <point x="103" y="469" type="line"/>
      <point x="127" y="539"/>
      <point x="159" y="578"/>
      <point x="220" y="578" type="curve" smooth="yes"/>
      <point x="306" y="578"/>
      <point x="343" y="502"/>
      <point x="343" y="391" type="curve" smooth="yes"/>
      <point x="343" y="277"/>
      <point x="293" y="204"/>
      <point x="216" y="204" type="curve" smooth="yes"/>
      <point x="159" y="204"/>
      <point x="129" y="242"/>
      <point x="95" y="316" type="curve"/>
      <point x="35" y="288" type="line"/>
    </contour>
  </outline>
</glyph>
<glyph name="four_m" format="2">
  <advance width="465"/>
  <unicode hex="1044"/>
  <note>
four_m
</note>
  <outline>
    <contour>
      <point x="98" y="-271" type="line"/>
      <point x="184" y="-271" type="line"/>
      <point x="430" y="288" type="line"/>
      <point x="370" y="316" type="line"/>
      <point x="336" y="242"/>
      <point x="306" y="204"/>
      <point x="249" y="204" type="curve" smooth="yes"/>
      <point x="172" y="204"/>
      <point x="122" y="277"/>
      <point x="122" y="391" type="curve" smooth="yes"/>
      <point x="122" y="502"/>
      <point x="159" y="578"/>
      <point x="245" y="578" type="curve" smooth="yes"/>
      <point x="306" y="578"/>
      <point x="338" y="539"/>
      <point x="362" y="469" type="curve"/>
      <point x="425" y="493" type="line"/>
      <point x="397" y="580"/>
      <point x="338" y="640"/>
      <point x="246" y="640" type="curve" smooth="yes"/>
      <point x="111" y="640"/>
      <point x="39" y="533"/>
      <point x="39" y="390" type="curve" smooth="yes"/>
      <point x="39" y="249"/>
      <point x="122" y="140"/>
      <point x="241" y="140" type="curve" smooth="yes"/>
      <point x="269" y="140"/>
      <point x="289" y="146"/>
      <point x="305" y="156" type="curve"/>
      <point x="305" y="168" type="line"/>
      <point x="280" y="131"/>
      <point x="246" y="56"/>
      <point x="225" y="10" type="curve" smooth="yes"/>
    </contour>
  </outline>
</glyph>
<glyph name="five_m" format="2">
  <advance width="516"/>
  <unicode hex="1045"/>
  <note>
five_m
</note>
  <outline>
    <contour>
      <point x="259" y="-271" type="curve" smooth="yes"/>
      <point x="396" y="-271"/>
      <point x="467" y="-171"/>
      <point x="467" y="-9" type="curve" smooth="yes"/>
      <point x="467" y="391" type="line" smooth="yes"/>
      <point x="467" y="536"/>
      <point x="394" y="640"/>
      <point x="262" y="640" type="curve" smooth="yes"/>
      <point x="136" y="640"/>
      <point x="50" y="545"/>
      <point x="50" y="403" type="curve" smooth="yes"/>
      <point x="50" y="316"/>
      <point x="99" y="259"/>
      <point x="169" y="259" type="curve" smooth="yes"/>
      <point x="246" y="259"/>
      <point x="286" y="314"/>
      <point x="286" y="386" type="curve" smooth="yes"/>
      <point x="286" y="456"/>
      <point x="243" y="507"/>
      <point x="190" y="507" type="curve" smooth="yes"/>
      <point x="171" y="507"/>
      <point x="153" y="502"/>
      <point x="144" y="490" type="curve"/>
      <point x="162" y="541"/>
      <point x="202" y="576"/>
      <point x="259" y="576" type="curve" smooth="yes"/>
      <point x="342" y="576"/>
      <point x="384" y="503"/>
      <point x="384" y="392" type="curve" smooth="yes"/>
      <point x="384" y="-10" type="line" smooth="yes"/>
      <point x="384" y="-133"/>
      <point x="343" y="-207"/>
      <point x="257" y="-207" type="curve" smooth="yes"/>
      <point x="168" y="-207"/>
      <point x="128" y="-126"/>
      <point x="128" y="-37" type="curve" smooth="yes"/>
      <point x="128" y="-31" type="line"/>
      <point x="45" y="-31" type="line"/>
      <point x="45" y="-37" type="line" smooth="yes"/>
      <point x="45" y="-162"/>
      <point x="118" y="-271"/>
    </contour>
    <contour>
      <point x="169" y="316" type="curve" smooth="yes"/>
      <point x="141" y="316"/>
      <point x="123" y="346"/>
      <point x="123" y="382" type="curve" smooth="yes"/>
      <point x="123" y="415"/>
      <point x="136" y="451"/>
      <point x="169" y="451" type="curve" smooth="yes"/>
      <point x="201" y="451"/>
      <point x="217" y="421"/>
      <point x="217" y="382" type="curve" smooth="yes"/>
      <point x="217" y="347"/>
      <point x="205" y="316"/>
    </contour>
  </outline>
</glyph>
<glyph name="six_m" format="2">
  <advance width="534"/>
  <unicode hex="1046"/>
  <note>
six_m
</note>
  <outline>
    <contour>
      <point x="269" y="137" type="curve" smooth="yes"/>
      <point x="406" y="137"/>
      <point x="489" y="243"/>
      <point x="489" y="379" type="curve" smooth="yes"/>
      <point x="489" y="437"/>
      <point x="456" y="479"/>
      <point x="400" y="479" type="curve" smooth="yes"/>
      <point x="340" y="479"/>
      <point x="326" y="450"/>
      <point x="290" y="450" type="curve" smooth="yes"/>
      <point x="264" y="450"/>
      <point x="250" y="466"/>
      <point x="250" y="510" type="curve" smooth="yes"/>
      <point x="250" y="550"/>
      <point x="267" y="585"/>
      <point x="294" y="585" type="curve" smooth="yes"/>
      <point x="309" y="585"/>
      <point x="320" y="577"/>
      <point x="328" y="561" type="curve"/>
      <point x="386" y="594" type="line"/>
      <point x="368" y="622"/>
      <point x="340" y="640"/>
      <point x="292" y="640" type="curve" smooth="yes"/>
      <point x="218" y="640"/>
      <point x="176" y="582"/>
      <point x="176" y="510" type="curve" smooth="yes"/>
      <point x="176" y="433"/>
      <point x="211" y="386"/>
      <point x="279" y="386" type="curve" smooth="yes"/>
      <point x="329" y="386"/>
      <point x="349" y="415"/>
      <point x="381" y="415" type="curve" smooth="yes"/>
      <point x="400" y="415"/>
      <point x="406" y="397"/>
      <point x="406" y="378" type="curve" smooth="yes"/>
      <point x="406" y="274"/>
      <point x="353" y="201"/>
      <point x="273" y="201" type="curve" smooth="yes"/>
      <point x="175" y="201"/>
      <point x="132" y="270"/>
      <point x="132" y="406" type="curve" smooth="yes"/>
      <point x="132" y="777" type="line" smooth="yes"/>
      <point x="132" y="920"/>
      <point x="174" y="985"/>
      <point x="272" y="985" type="curve" smooth="yes"/>
      <point x="355" y="985"/>
      <point x="406" y="909"/>
      <point x="406" y="814" type="curve" smooth="yes"/>
      <point x="406" y="809" type="line"/>
      <point x="489" y="809" type="line"/>
      <point x="489" y="812" type="line" smooth="yes"/>
      <point x="489" y="954"/>
      <point x="407" y="1049"/>
      <point x="268" y="1049" type="curve" smooth="yes"/>
      <point x="118" y="1049"/>
      <point x="49" y="954"/>
      <point x="49" y="777" type="curve" smooth="yes"/>
      <point x="49" y="402" type="line" smooth="yes"/>
      <point x="49" y="237"/>
      <point x="116" y="137"/>
    </contour>
  </outline>
</glyph>
<glyph name="seven_m" format="2">
  <advance width="488"/>
  <unicode hex="1047"/>
  <note>
seven_m
</note>
  <outline>
    <contour>
      <point x="277" y="-270" type="curve" smooth="yes"/>
      <point x="331" y="-270"/>
      <point x="371" y="-252"/>
      <point x="400" y="-196" type="curve"/>
      <point x="339" y="-159" type="line"/>
      <point x="322" y="-186"/>
      <point x="312" y="-207"/>
      <point x="281" y="-207" type="curve" smooth="yes"/>
      <point x="246" y="-207"/>
      <point x="230" y="-178"/>
      <point x="230" y="-131" type="curve" smooth="yes"/>
      <point x="230" y="-55"/>
      <point x="256" y="-3"/>
      <point x="335" y="117" type="curve" smooth="yes"/>
      <point x="391" y="201"/>
      <point x="448" y="287"/>
      <point x="448" y="424" type="curve" smooth="yes"/>
      <point x="448" y="533"/>
      <point x="381" y="640"/>
      <point x="248" y="640" type="curve" smooth="yes"/>
      <point x="124" y="640"/>
      <point x="39" y="541"/>
      <point x="39" y="378" type="curve" smooth="yes"/>
      <point x="39" y="271"/>
      <point x="92" y="190"/>
      <point x="135" y="169" type="curve"/>
      <point x="180" y="221" type="line"/>
      <point x="152" y="242"/>
      <point x="122" y="297"/>
      <point x="122" y="378" type="curve" smooth="yes"/>
      <point x="122" y="506"/>
      <point x="173" y="576"/>
      <point x="250" y="576" type="curve" smooth="yes"/>
      <point x="328" y="576"/>
      <point x="365" y="501"/>
      <point x="365" y="416" type="curve" smooth="yes"/>
      <point x="365" y="316"/>
      <point x="334" y="256"/>
      <point x="267" y="155" type="curve" smooth="yes"/>
      <point x="173" y="13"/>
      <point x="147" y="-51"/>
      <point x="147" y="-132" type="curve" smooth="yes"/>
      <point x="147" y="-212"/>
      <point x="194" y="-270"/>
    </contour>
  </outline>
</glyph>
<glyph name="eight_m" format="2">
  <advance width="508"/>
  <unicode hex="1048"/>
  <note>
eight_m
</note>
  <outline>
    <contour>
      <point x="166" y="139" type="curve"/>
      <point x="245" y="223"/>
      <point x="262" y="299"/>
      <point x="262" y="378" type="curve" smooth="yes"/>
      <point x="262" y="467"/>
      <point x="236" y="527"/>
      <point x="197" y="569" type="curve"/>
      <point x="150" y="534" type="line"/>
      <point x="182" y="499"/>
      <point x="200" y="440"/>
      <point x="200" y="378" type="curve" smooth="yes"/>
      <point x="200" y="317"/>
      <point x="186" y="266"/>
      <point x="159" y="230" type="curve"/>
      <point x="129" y="267"/>
      <point x="115" y="317"/>
      <point x="115" y="379" type="curve" smooth="yes"/>
      <point x="115" y="494"/>
      <point x="166" y="576"/>
      <point x="254" y="576" type="curve" smooth="yes"/>
      <point x="341" y="576"/>
      <point x="386" y="502"/>
      <point x="386" y="379" type="curve" smooth="yes"/>
      <point x="386" y="299"/>
      <point x="366" y="235"/>
      <point x="325" y="193" type="curve"/>
      <point x="368" y="140" type="line"/>
      <point x="426" y="184"/>
      <point x="469" y="282"/>
      <point x="469" y="380" type="curve" smooth="yes"/>
      <point x="469" y="532"/>
      <point x="391" y="640"/>
      <point x="254" y="640" type="curve" smooth="yes"/>
      <point x="119" y="640"/>
      <point x="39" y="534"/>
      <point x="39" y="380" type="curve" smooth="yes"/>
      <point x="39" y="280"/>
      <point x="88" y="188"/>
    </contour>
  </outline>
</glyph>
<glyph name="nine_m" format="2">
  <advance width="534"/>
  <unicode hex="1049"/>
  <note>
nine_m
</note>
  <outline>
    <contour>
      <point x="268" y="-270" type="curve" smooth="yes"/>
      <point x="407" y="-270"/>
      <point x="489" y="-174"/>
      <point x="489" y="-33" type="curve" smooth="yes"/>
      <point x="489" y="-29" type="line"/>
      <point x="406" y="-29" type="line"/>
      <point x="406" y="-35" type="line" smooth="yes"/>
      <point x="406" y="-129"/>
      <point x="355" y="-206"/>
      <point x="272" y="-206" type="curve" smooth="yes"/>
      <point x="174" y="-206"/>
      <point x="132" y="-141"/>
      <point x="132" y="2" type="curve" smooth="yes"/>
      <point x="132" y="374" type="line" smooth="yes"/>
      <point x="132" y="510"/>
      <point x="175" y="578"/>
      <point x="273" y="578" type="curve" smooth="yes"/>
      <point x="353" y="578"/>
      <point x="406" y="505"/>
      <point x="406" y="402" type="curve" smooth="yes"/>
      <point x="406" y="383"/>
      <point x="400" y="364"/>
      <point x="381" y="364" type="curve" smooth="yes"/>
      <point x="349" y="364"/>
      <point x="329" y="394"/>
      <point x="279" y="394" type="curve" smooth="yes"/>
      <point x="211" y="394"/>
      <point x="176" y="346"/>
      <point x="176" y="270" type="curve" smooth="yes"/>
      <point x="176" y="198"/>
      <point x="218" y="139"/>
      <point x="292" y="139" type="curve" smooth="yes"/>
      <point x="340" y="139"/>
      <point x="368" y="158"/>
      <point x="386" y="186" type="curve"/>
      <point x="328" y="218" type="line"/>
      <point x="320" y="202"/>
      <point x="309" y="195"/>
      <point x="294" y="195" type="curve" smooth="yes"/>
      <point x="267" y="195"/>
      <point x="250" y="229"/>
      <point x="250" y="270" type="curve" smooth="yes"/>
      <point x="250" y="314"/>
      <point x="264" y="330"/>
      <point x="290" y="330" type="curve" smooth="yes"/>
      <point x="326" y="330"/>
      <point x="340" y="300"/>
      <point x="400" y="300" type="curve" smooth="yes"/>
      <point x="456" y="300"/>
      <point x="489" y="343"/>
      <point x="489" y="401" type="curve" smooth="yes"/>
      <point x="489" y="537"/>
      <point x="406" y="642"/>
      <point x="269" y="642" type="curve" smooth="yes"/>
      <point x="116" y="642"/>
      <point x="49" y="542"/>
      <point x="49" y="378" type="curve" smooth="yes"/>
      <point x="49" y="2" type="line" smooth="yes"/>
      <point x="49" y="-174"/>
      <point x="118" y="-270"/>
    </contour>
  </outline>
</glyph>
<glyph name="little_section" format="2">
  <advance width="213"/>
  <unicode hex="104A"/>
  <note>
little_section
</note>
  <outline>
    <contour>
      <point x="65" y="149" type="line"/>
      <point x="148" y="149" type="line"/>
      <point x="148" y="631" type="line"/>
      <point x="65" y="631" type="line"/>
    </contour>
  </outline>
</glyph>
<glyph name="locative" format="2">
  <advance width="502"/>
  <unicode hex="104C"/>
  <note>
locative
</note>
  <outline>
    <contour>
      <point x="203" y="-271" type="curve" smooth="yes"/>
      <point x="283" y="-271" type="line" smooth="yes"/>
      <point x="387" y="-271"/>
      <point x="440" y="-209"/>
      <point x="440" y="-85" type="curve" smooth="yes"/>
      <point x="440" y="142" type="line"/>
      <point x="392" y="100"/>
      <point x="319" y="68"/>
      <point x="250" y="68" type="curve" smooth="yes"/>
      <point x="193" y="68"/>
      <point x="154" y="82"/>
      <point x="132" y="98" type="curve"/>
      <point x="132" y="205" type="line"/>
      <point x="51" y="288" type="line"/>
      <point x="51" y="70" type="line"/>
      <point x="105" y="29"/>
      <point x="167" y="4"/>
      <point x="241" y="4" type="curve" smooth="yes"/>
      <point x="286" y="4"/>
      <point x="325" y="13"/>
      <point x="359" y="28" type="curve"/>
      <point x="359" y="-93" type="line" smooth="yes"/>
      <point x="359" y="-166"/>
      <point x="335" y="-207"/>
      <point x="278" y="-207" type="curve" smooth="yes"/>
      <point x="208" y="-207" type="line" smooth="yes"/>
      <point x="156" y="-207"/>
      <point x="131" y="-186"/>
      <point x="131" y="-156" type="curve" smooth="yes"/>
      <point x="131" y="-128"/>
      <point x="148" y="-112"/>
      <point x="178" y="-112" type="curve" smooth="yes"/>
      <point x="202" y="-112"/>
      <point x="219" y="-126"/>
      <point x="236" y="-145" type="curve"/>
      <point x="277" y="-102" type="line"/>
      <point x="247" y="-69"/>
      <point x="217" y="-48"/>
      <point x="166" y="-48" type="curve" smooth="yes"/>
      <point x="96" y="-48"/>
      <point x="49" y="-91"/>
      <point x="49" y="-155" type="curve" smooth="yes"/>
      <point x="49" y="-230"/>
      <point x="106" y="-271"/>
    </contour>
    <contour>
      <point x="244" y="140" type="curve" smooth="yes"/>
      <point x="377" y="140"/>
      <point x="463" y="246"/>
      <point x="463" y="390" type="curve" smooth="yes"/>
      <point x="463" y="532"/>
      <point x="376" y="640"/>
      <point x="244" y="640" type="curve" smooth="yes"/>
      <point x="158" y="640"/>
      <point x="85" y="580"/>
      <point x="56" y="493" type="curve"/>
      <point x="115" y="463" type="line"/>
      <point x="145" y="537"/>
      <point x="190" y="576"/>
      <point x="246" y="576" type="curve" smooth="yes"/>
      <point x="329" y="576"/>
      <point x="380" y="499"/>
      <point x="380" y="391" type="curve" smooth="yes"/>
      <point x="380" y="282"/>
      <point x="323" y="204"/>
      <point x="242" y="204" type="curve" smooth="yes"/>
      <point x="188" y="204"/>
      <point x="145" y="243"/>
      <point x="114" y="317" type="curve"/>
      <point x="51" y="288" type="line"/>
      <point x="80" y="199"/>
      <point x="154" y="140"/>
    </contour>
    <component base="asat" xOffset="517"/>
  </outline>
</glyph>
<glyph name="completed" format="2">
  <advance width="687"/>
  <unicode hex="104D"/>
  <note>
completed
</note>
  <outline>
    <contour>
      <point x="210" y="-271" type="curve" smooth="yes"/>
      <point x="491" y="-271" type="line" smooth="yes"/>
      <point x="595" y="-271"/>
      <point x="647" y="-209"/>
      <point x="647" y="-85" type="curve" smooth="yes"/>
      <point x="647" y="342" type="line" smooth="yes"/>
      <point x="647" y="561"/>
      <point x="601" y="638"/>
      <point x="492" y="756" type="curve" smooth="yes"/>
      <point x="451" y="800"/>
      <point x="430" y="847"/>
      <point x="430" y="895" type="curve" smooth="yes"/>
      <point x="430" y="954"/>
      <point x="465" y="989"/>
      <point x="509" y="989" type="curve" smooth="yes"/>
      <point x="554" y="989"/>
      <point x="574" y="957"/>
      <point x="591" y="919" type="curve"/>
      <point x="655" y="951" type="line"/>
      <point x="628" y="1027"/>
      <point x="578" y="1053"/>
      <point x="508" y="1053" type="curve" smooth="yes"/>
      <point x="407" y="1053"/>
      <point x="347" y="981"/>
      <point x="347" y="895" type="curve" smooth="yes"/>
      <point x="347" y="820"/>
      <point x="384" y="758"/>
      <point x="450" y="690" type="curve" smooth="yes"/>
      <point x="533" y="604"/>
      <point x="566" y="514"/>
      <point x="566" y="347" type="curve" smooth="yes"/>
      <point x="566" y="-93" type="line" smooth="yes"/>
      <point x="566" y="-166"/>
      <point x="543" y="-207"/>
      <point x="486" y="-207" type="curve" smooth="yes"/>
      <point x="215" y="-207" type="line" smooth="yes"/>
      <point x="168" y="-207"/>
      <point x="138" y="-183"/>
      <point x="138" y="-136" type="curve" smooth="yes"/>
      <point x="138" y="-92"/>
      <point x="157" y="-71"/>
      <point x="185" y="-71" type="curve" smooth="yes"/>
      <point x="209" y="-71"/>
      <point x="226" y="-85"/>
      <point x="243" y="-104" type="curve"/>
      <point x="284" y="-61" type="line"/>
      <point x="254" y="-27"/>
      <point x="224" y="-7"/>
      <point x="173" y="-7" type="curve" smooth="yes"/>
      <point x="107" y="-7"/>
      <point x="56" y="-59"/>
      <point x="56" y="-135" type="curve" smooth="yes"/>
      <point x="56" y="-223"/>
      <point x="119" y="-271"/>
    </contour>
    <contour>
      <point x="369" y="-91" type="line"/>
      <point x="450" y="-91" type="line"/>
      <point x="450" y="389" type="line" smooth="yes"/>
      <point x="450" y="532"/>
      <point x="369" y="640"/>
      <point x="243" y="640" type="curve" smooth="yes"/>
      <point x="118" y="640"/>
      <point x="35" y="533"/>
      <point x="35" y="389" type="curve" smooth="yes"/>
      <point x="35" y="247"/>
      <point x="118" y="140"/>
      <point x="241" y="140" type="curve" smooth="yes"/>
      <point x="269" y="140"/>
      <point x="297" y="149"/>
      <point x="322" y="157" type="curve"/>
      <point x="321" y="336"/>
      <point x="251" y="442"/>
      <point x="99" y="449" type="curve"/>
      <point x="92" y="389" type="line"/>
      <point x="193" y="387"/>
      <point x="257" y="312"/>
      <point x="264" y="190" type="curve"/>
      <point x="282" y="207" type="line"/>
      <point x="270" y="203"/>
      <point x="256" y="201"/>
      <point x="243" y="201" type="curve" smooth="yes"/>
      <point x="158" y="201"/>
      <point x="104" y="279"/>
      <point x="104" y="388" type="curve" smooth="yes"/>
      <point x="104" y="503"/>
      <point x="155" y="578"/>
      <point x="238" y="578" type="curve" smooth="yes"/>
      <point x="319" y="578"/>
      <point x="369" y="499"/>
      <point x="369" y="388" type="curve" smooth="yes"/>
    </contour>
  </outline>
</glyph>
<glyph name="aforementioned" format="2">
  <advance width="500"/>
  <unicode hex="104E"/>
  <note>
aforementioned
</note>
  <outline>
    <contour>
      <point x="258" y="140" type="curve" smooth="yes"/>
      <point x="348" y="140"/>
      <point x="422" y="199"/>
      <point x="451" y="288" type="curve"/>
      <point x="388" y="317" type="line"/>
      <point x="357" y="243"/>
      <point x="314" y="204"/>
      <point x="260" y="204" type="curve" smooth="yes"/>
      <point x="179" y="204"/>
      <point x="122" y="282"/>
      <point x="122" y="391" type="curve" smooth="yes"/>
      <point x="122" y="499"/>
      <point x="173" y="576"/>
      <point x="256" y="576" type="curve" smooth="yes"/>
      <point x="312" y="576"/>
      <point x="357" y="537"/>
      <point x="387" y="463" type="curve"/>
      <point x="446" y="493" type="line"/>
      <point x="417" y="580"/>
      <point x="344" y="640"/>
      <point x="258" y="640" type="curve" smooth="yes"/>
      <point x="126" y="640"/>
      <point x="39" y="532"/>
      <point x="39" y="390" type="curve" smooth="yes"/>
      <point x="39" y="246"/>
      <point x="125" y="140"/>
    </contour>
    <contour>
      <point x="371" y="-270" type="line"/>
      <point x="451" y="-270" type="line"/>
      <point x="451" y="288" type="line"/>
      <point x="371" y="204" type="line"/>
    </contour>
  </outline>
</glyph>
<glyph name="genitive" format="2">
  <advance width="918"/>
  <unicode hex="104F"/>
  <note>
genitive
</note>
  <outline>
    <contour>
      <point x="797" y="149" type="line"/>
      <point x="878" y="149" type="line"/>
      <point x="878" y="456" type="line" smooth="yes"/>
      <point x="878" y="616"/>
      <point x="831" y="691"/>
      <point x="744" y="757" type="curve" smooth="yes"/>
      <point x="680" y="805"/>
      <point x="661" y="852"/>
      <point x="661" y="895" type="curve" smooth="yes"/>
      <point x="661" y="954"/>
      <point x="696" y="989"/>
      <point x="740" y="989" type="curve" smooth="yes"/>
      <point x="785" y="989"/>
      <point x="805" y="957"/>
      <point x="822" y="919" type="curve"/>
      <point x="886" y="951" type="line"/>
      <point x="859" y="1027"/>
      <point x="809" y="1053"/>
      <point x="739" y="1053" type="curve" smooth="yes"/>
      <point x="638" y="1053"/>
      <point x="578" y="981"/>
      <point x="578" y="895" type="curve" smooth="yes"/>
      <point x="578" y="836"/>
      <point x="601" y="771"/>
      <point x="688" y="704" type="curve" smooth="yes"/>
      <point x="760" y="649"/>
      <point x="797" y="587"/>
      <point x="797" y="461" type="curve" smooth="yes"/>
    </contour>
    <contour>
      <point x="600" y="149" type="line"/>
      <point x="681" y="149" type="line"/>
      <point x="681" y="479" type="line" smooth="yes"/>
      <point x="681" y="575"/>
      <point x="643" y="640"/>
      <point x="530" y="640" type="curve" smooth="yes"/>
      <point x="442" y="640"/>
      <point x="397" y="595"/>
      <point x="376" y="537" type="curve"/>
      <point x="451" y="496" type="line"/>
      <point x="451" y="542"/>
      <point x="475" y="576"/>
      <point x="530" y="576" type="curve" smooth="yes"/>
      <point x="583" y="576"/>
      <point x="600" y="544"/>
      <point x="600" y="480" type="curve" smooth="yes"/>
    </contour>
    <component base="e_m" xOffset="-4"/>
  </outline>
</glyph>
<glyph name="sha_skt" format="2">
  <advance width="508"/>
  <unicode hex="1050"/>
  <note>
sha_skt
</note>
  <outline>
    <contour>
      <point x="254" y="326" type="curve" smooth="yes"/>
      <point x="280" y="326"/>
      <point x="300" y="344"/>
      <point x="300" y="383" type="curve" smooth="yes"/>
      <point x="300" y="423"/>
      <point x="281" y="440"/>
      <point x="254" y="440" type="curve" smooth="yes"/>
      <point x="229" y="440"/>
      <point x="210" y="423"/>
      <point x="210" y="383" type="curve" smooth="yes"/>
      <point x="210" y="343"/>
      <point x="230" y="326"/>
    </contour>
    <component base="ga"/>
  </outline>
</glyph>
<glyph name="ssa_skt" format="2">
  <advance width="508"/>
  <unicode hex="1051"/>
  <note>
ssa_skt
</note>
  <outline>
    <contour>
      <point x="254" y="140" type="curve" smooth="yes"/>
      <point x="395" y="140"/>
      <point x="469" y="236"/>
      <point x="469" y="381" type="curve" smooth="yes"/>
      <point x="469" y="497"/>
      <point x="426" y="595"/>
      <point x="368" y="640" type="curve"/>
      <point x="325" y="586" type="line"/>
      <point x="366" y="545"/>
      <point x="386" y="480"/>
      <point x="386" y="383" type="curve" smooth="yes"/>
      <point x="386" y="267"/>
      <point x="345" y="204"/>
      <point x="254" y="204" type="curve" smooth="yes"/>
      <point x="170" y="204"/>
      <point x="122" y="271"/>
      <point x="122" y="383" type="curve" smooth="yes"/>
      <point x="122" y="480"/>
      <point x="142" y="545"/>
      <point x="183" y="586" type="curve"/>
      <point x="140" y="640" type="line"/>
      <point x="82" y="596"/>
      <point x="39" y="501"/>
      <point x="39" y="381" type="curve" smooth="yes"/>
      <point x="39" y="235"/>
      <point x="117" y="140"/>
    </contour>
    <contour>
      <point x="254" y="340" type="curve" smooth="yes"/>
      <point x="280" y="340"/>
      <point x="299" y="358"/>
      <point x="299" y="397" type="curve" smooth="yes"/>
      <point x="299" y="436"/>
      <point x="280" y="453"/>
      <point x="254" y="453" type="curve" smooth="yes"/>
      <point x="229" y="453"/>
      <point x="210" y="436"/>
      <point x="210" y="397" type="curve" smooth="yes"/>
      <point x="210" y="357"/>
      <point x="230" y="340"/>
    </contour>
  </outline>
</glyph>
<glyph name="vocR_skt" format="2">
  <advance width="514"/>
  <unicode hex="1052"/>
  <note>
vocR_skt
</note>
  <outline>
    <contour>
      <point x="263" y="140" type="curve" smooth="yes"/>
      <point x="384" y="140"/>
      <point x="465" y="218"/>
      <point x="465" y="330" type="curve" smooth="yes"/>
      <point x="465" y="393"/>
      <point x="440" y="442"/>
      <point x="403" y="481" type="curve" smooth="yes"/>
      <point x="376" y="510"/>
      <point x="361" y="524"/>
      <point x="361" y="549" type="curve" smooth="yes"/>
      <point x="361" y="566"/>
      <point x="372" y="576"/>
      <point x="388" y="576" type="curve" smooth="yes"/>
      <point x="404" y="576"/>
      <point x="418" y="567"/>
      <point x="432" y="545" type="curve"/>
      <point x="475" y="586" type="line"/>
      <point x="449" y="623"/>
      <point x="418" y="640"/>
      <point x="377" y="640" type="curve" smooth="yes"/>
      <point x="318" y="640"/>
      <point x="285" y="598"/>
      <point x="285" y="552" type="curve" smooth="yes"/>
      <point x="285" y="516"/>
      <point x="299" y="487"/>
      <point x="333" y="447" type="curve" smooth="yes"/>
      <point x="370" y="403"/>
      <point x="382" y="370"/>
      <point x="382" y="330" type="curve" smooth="yes"/>
      <point x="382" y="257"/>
      <point x="337" y="204"/>
      <point x="264" y="204" type="curve" smooth="yes"/>
      <point x="168" y="204"/>
      <point x="122" y="280"/>
      <point x="122" y="400" type="curve" smooth="yes"/>
      <point x="122" y="481"/>
      <point x="142" y="545"/>
      <point x="186" y="586" type="curve"/>
      <point x="143" y="640" type="line"/>
      <point x="82" y="591"/>
      <point x="39" y="495"/>
      <point x="39" y="399" type="curve" smooth="yes"/>
      <point x="39" y="246"/>
      <point x="117" y="140"/>
    </contour>
  </outline>
</glyph>
<glyph name="vocRR_skt" format="2">
  <advance width="507"/>
  <unicode hex="1053"/>
  <note>
vocRR_skt
</note>
  <outline>
    <contour>
      <point x="255" y="140" type="curve" smooth="yes"/>
      <point x="388" y="140"/>
      <point x="463" y="218"/>
      <point x="463" y="330" type="curve" smooth="yes"/>
      <point x="463" y="393"/>
      <point x="438" y="442"/>
      <point x="401" y="481" type="curve" smooth="yes"/>
      <point x="374" y="510"/>
      <point x="359" y="524"/>
      <point x="359" y="549" type="curve" smooth="yes"/>
      <point x="359" y="566"/>
      <point x="370" y="576"/>
      <point x="386" y="576" type="curve" smooth="yes"/>
      <point x="402" y="576"/>
      <point x="416" y="567"/>
      <point x="430" y="545" type="curve"/>
      <point x="473" y="586" type="line"/>
      <point x="447" y="623"/>
      <point x="416" y="640"/>
      <point x="375" y="640" type="curve" smooth="yes"/>
      <point x="316" y="640"/>
      <point x="283" y="598"/>
      <point x="283" y="552" type="curve" smooth="yes"/>
      <point x="283" y="516"/>
      <point x="297" y="487"/>
      <point x="331" y="447" type="curve" smooth="yes"/>
      <point x="368" y="403"/>
      <point x="380" y="370"/>
      <point x="380" y="330" type="curve" smooth="yes"/>
      <point x="380" y="257"/>
      <point x="341" y="204"/>
      <point x="255" y="204" type="curve" smooth="yes"/>
      <point x="167" y="204"/>
      <point x="127" y="257"/>
      <point x="127" y="330" type="curve" smooth="yes"/>
      <point x="127" y="370"/>
      <point x="139" y="403"/>
      <point x="176" y="447" type="curve" smooth="yes"/>
      <point x="210" y="487"/>
      <point x="224" y="516"/>
      <point x="224" y="552" type="curve" smooth="yes"/>
      <point x="224" y="598"/>
      <point x="191" y="640"/>
      <point x="132" y="640" type="curve" smooth="yes"/>
      <point x="91" y="640"/>
      <point x="60" y="623"/>
      <point x="34" y="586" type="curve"/>
      <point x="77" y="545" type="line"/>
      <point x="91" y="567"/>
      <point x="105" y="576"/>
      <point x="121" y="576" type="curve" smooth="yes"/>
      <point x="137" y="576"/>
      <point x="148" y="566"/>
      <point x="148" y="549" type="curve" smooth="yes"/>
      <point x="148" y="524"/>
      <point x="133" y="510"/>
      <point x="106" y="481" type="curve" smooth="yes"/>
      <point x="69" y="442"/>
      <point x="44" y="393"/>
      <point x="44" y="330" type="curve" smooth="yes"/>
      <point x="44" y="218"/>
      <point x="120" y="140"/>
    </contour>
  </outline>
</glyph>
<glyph name="vocL_skt" format="2">
  <advance width="512"/>
  <unicode hex="1054"/>
  <note>
vocL_skt
</note>
  <outline>
    <contour>
      <point x="253" y="140" type="curve" smooth="yes"/>
      <point x="358" y="140"/>
      <point x="419" y="185"/>
      <point x="459" y="289" type="curve"/>
      <point x="389" y="315" type="line"/>
      <point x="356" y="240"/>
      <point x="320" y="204"/>
      <point x="260" y="204" type="curve" smooth="yes"/>
      <point x="177" y="204"/>
      <point x="121" y="279"/>
      <point x="121" y="388" type="curve" smooth="yes"/>
      <point x="121" y="483"/>
      <point x="168" y="576"/>
      <point x="254" y="576" type="curve" smooth="yes"/>
      <point x="312" y="576"/>
      <point x="356" y="548"/>
      <point x="377" y="494" type="curve"/>
      <point x="345" y="470"/>
      <point x="307" y="451"/>
      <point x="261" y="451" type="curve" smooth="yes"/>
      <point x="213" y="451"/>
      <point x="172" y="481"/>
      <point x="135" y="520" type="curve"/>
      <point x="116" y="465" type="line"/>
      <point x="157" y="423"/>
      <point x="209" y="391"/>
      <point x="265" y="391" type="curve" smooth="yes"/>
      <point x="336" y="391"/>
      <point x="389" y="416"/>
      <point x="461" y="471" type="curve"/>
      <point x="440" y="575"/>
      <point x="365" y="640"/>
      <point x="256" y="640" type="curve" smooth="yes"/>
      <point x="130" y="640"/>
      <point x="39" y="530"/>
      <point x="39" y="389" type="curve" smooth="yes"/>
      <point x="39" y="249"/>
      <point x="126" y="140"/>
    </contour>
  </outline>
</glyph>
<glyph name="vocLL_skt" format="2">
  <advance width="495"/>
  <unicode hex="1055"/>
  <note>
vocLL_skt
</note>
  <outline>
    <contour>
      <point x="182" y="140" type="curve" smooth="yes"/>
      <point x="224" y="140"/>
      <point x="256" y="165"/>
      <point x="275" y="215" type="curve"/>
      <point x="250" y="213" type="line"/>
      <point x="267" y="164"/>
      <point x="291" y="140"/>
      <point x="347" y="140" type="curve" smooth="yes"/>
      <point x="419" y="140"/>
      <point x="455" y="190"/>
      <point x="456" y="262" type="curve"/>
      <point x="376" y="274" type="line"/>
      <point x="372" y="228"/>
      <point x="361" y="204"/>
      <point x="336" y="204" type="curve" smooth="yes"/>
      <point x="314" y="204"/>
      <point x="301" y="226"/>
      <point x="301" y="265" type="curve" smooth="yes"/>
      <point x="301" y="275" type="line"/>
      <point x="218" y="275" type="line"/>
      <point x="218" y="265" type="line" smooth="yes"/>
      <point x="218" y="229"/>
      <point x="207" y="204"/>
      <point x="182" y="204" type="curve" smooth="yes"/>
      <point x="142" y="204"/>
      <point x="121" y="264"/>
      <point x="121" y="388" type="curve" smooth="yes"/>
      <point x="121" y="483"/>
      <point x="165" y="576"/>
      <point x="254" y="576" type="curve" smooth="yes"/>
      <point x="306" y="576"/>
      <point x="352" y="548"/>
      <point x="375" y="494" type="curve"/>
      <point x="340" y="470"/>
      <point x="301" y="451"/>
      <point x="261" y="451" type="curve" smooth="yes"/>
      <point x="205" y="451"/>
      <point x="166" y="481"/>
      <point x="131" y="520" type="curve"/>
      <point x="113" y="465" type="line"/>
      <point x="152" y="423"/>
      <point x="202" y="391"/>
      <point x="265" y="391" type="curve" smooth="yes"/>
      <point x="328" y="391"/>
      <point x="382" y="416"/>
      <point x="456" y="471" type="curve"/>
      <point x="435" y="575"/>
      <point x="357" y="640"/>
      <point x="256" y="640" type="curve" smooth="yes"/>
      <point x="126" y="640"/>
      <point x="39" y="530"/>
      <point x="39" y="389" type="curve" smooth="yes"/>
      <point x="39" y="236"/>
      <point x="94" y="140"/>
    </contour>
  </outline>
</glyph>
<glyph name="_vocR_skt" format="2">
  <advance width="266"/>
  <unicode hex="1056"/>
  <note>
_vocR_skt
</note>
  <outline>
    <contour>
      <point x="64" y="140" type="curve" smooth="yes"/>
      <point x="166" y="140"/>
      <point x="230" y="205"/>
      <point x="230" y="294" type="curve" smooth="yes"/>
      <point x="230" y="371"/>
      <point x="193" y="403"/>
      <point x="133" y="451" type="curve" smooth="yes"/>
      <point x="106" y="473"/>
      <point x="82" y="496"/>
      <point x="82" y="533" type="curve" smooth="yes"/>
      <point x="82" y="559"/>
      <point x="98" y="574"/>
      <point x="118" y="574" type="curve" smooth="yes"/>
      <point x="142" y="574"/>
      <point x="155" y="564"/>
      <point x="177" y="539" type="curve"/>
      <point x="226" y="591" type="line"/>
      <point x="198" y="617"/>
      <point x="171" y="640"/>
      <point x="114" y="640" type="curve" smooth="yes"/>
      <point x="43" y="640"/>
      <point x="2" y="587"/>
      <point x="2" y="531" type="curve" smooth="yes"/>
      <point x="2" y="476"/>
      <point x="34" y="431"/>
      <point x="76" y="398" type="curve" smooth="yes"/>
      <point x="123" y="362"/>
      <point x="150" y="339"/>
      <point x="150" y="294" type="curve" smooth="yes"/>
      <point x="150" y="244"/>
      <point x="120" y="204"/>
      <point x="65" y="204" type="curve" smooth="yes"/>
      <point x="11" y="204"/>
      <point x="-27" y="238"/>
      <point x="-58" y="298" type="curve"/>
      <point x="-122" y="262" type="line"/>
      <point x="-83" y="184"/>
      <point x="-20" y="140"/>
    </contour>
  </outline>
</glyph>
<glyph name="_vocRR_skt" format="2">
  <advance width="304"/>
  <unicode hex="1057"/>
  <note>
_vocRR_skt
</note>
  <outline>
    <contour>
      <point x="-27" y="140" type="curve" smooth="yes"/>
      <point x="32" y="140"/>
      <point x="57" y="164"/>
      <point x="74" y="213" type="curve"/>
      <point x="48" y="215" type="line"/>
      <point x="64" y="164"/>
      <point x="103" y="140"/>
      <point x="150" y="140" type="curve" smooth="yes"/>
      <point x="218" y="140"/>
      <point x="268" y="193"/>
      <point x="268" y="283" type="curve" smooth="yes"/>
      <point x="268" y="371"/>
      <point x="231" y="403"/>
      <point x="171" y="451" type="curve" smooth="yes"/>
      <point x="144" y="473"/>
      <point x="120" y="496"/>
      <point x="120" y="533" type="curve" smooth="yes"/>
      <point x="120" y="559"/>
      <point x="136" y="574"/>
      <point x="156" y="574" type="curve" smooth="yes"/>
      <point x="180" y="574"/>
      <point x="193" y="564"/>
      <point x="215" y="539" type="curve"/>
      <point x="264" y="591" type="line"/>
      <point x="236" y="617"/>
      <point x="209" y="640"/>
      <point x="152" y="640" type="curve" smooth="yes"/>
      <point x="81" y="640"/>
      <point x="40" y="587"/>
      <point x="40" y="531" type="curve" smooth="yes"/>
      <point x="40" y="476"/>
      <point x="72" y="431"/>
      <point x="114" y="398" type="curve" smooth="yes"/>
      <point x="161" y="362"/>
      <point x="188" y="339"/>
      <point x="188" y="282" type="curve" smooth="yes"/>
      <point x="188" y="226"/>
      <point x="170" y="204"/>
      <point x="145" y="204" type="curve" smooth="yes"/>
      <point x="118" y="204"/>
      <point x="106" y="229"/>
      <point x="106" y="265" type="curve" smooth="yes"/>
      <point x="106" y="275" type="line"/>
      <point x="23" y="275" type="line"/>
      <point x="23" y="265" type="line" smooth="yes"/>
      <point x="23" y="226"/>
      <point x="9" y="204"/>
      <point x="-16" y="204" type="curve" smooth="yes"/>
      <point x="-45" y="204"/>
      <point x="-59" y="228"/>
      <point x="-63" y="274" type="curve"/>
      <point x="-141" y="262" type="line"/>
      <point x="-140" y="190"/>
      <point x="-102" y="140"/>
    </contour>
  </outline>
</glyph>
<glyph name="_vocL_skt" format="2">
  <unicode hex="1058"/>
  <note>
_vocL_skt
</note>
  <outline>
    <contour>
      <point x="-235" y="-272" type="curve" smooth="yes"/>
      <point x="-172" y="-272"/>
      <point x="-126" y="-242"/>
      <point x="-85" y="-194" type="curve"/>
      <point x="-116" y="-146" type="line"/>
      <point x="-152" y="-188"/>
      <point x="-184" y="-210"/>
      <point x="-227" y="-210" type="curve" smooth="yes"/>
      <point x="-290" y="-210"/>
      <point x="-327" y="-163"/>
      <point x="-327" y="-84" type="curve" smooth="yes"/>
      <point x="-327" y="-13"/>
      <point x="-297" y="43"/>
      <point x="-234" y="43" type="curve" smooth="yes"/>
      <point x="-198" y="43"/>
      <point x="-164" y="25"/>
      <point x="-150" y="-7" type="curve"/>
      <point x="-177" y="-22"/>
      <point x="-206" y="-33"/>
      <point x="-234" y="-33" type="curve" smooth="yes"/>
      <point x="-266" y="-33"/>
      <point x="-293" y="-17"/>
      <point x="-320" y="6" type="curve"/>
      <point x="-334" y="-51" type="line"/>
      <point x="-302" y="-75"/>
      <point x="-268" y="-90"/>
      <point x="-229" y="-90" type="curve" smooth="yes"/>
      <point x="-182" y="-90"/>
      <point x="-142" y="-77"/>
      <point x="-79" y="-35" type="curve"/>
      <point x="-91" y="52"/>
      <point x="-152" y="107"/>
      <point x="-232" y="107" type="curve" smooth="yes"/>
      <point x="-333" y="107"/>
      <point x="-402" y="30"/>
      <point x="-402" y="-83" type="curve" smooth="yes"/>
      <point x="-402" y="-195"/>
      <point x="-337" y="-272"/>
    </contour>
  </outline>
</glyph>
<glyph name="_vocLL_skt" format="2">
  <unicode hex="1059"/>
  <note>
_vocLL_skt
</note>
  <outline>
    <contour>
      <point x="-295" y="-270" type="curve" smooth="yes"/>
      <point x="-266" y="-270"/>
      <point x="-239" y="-250"/>
      <point x="-227" y="-206" type="curve"/>
      <point x="-251" y="-210" type="line"/>
      <point x="-238" y="-249"/>
      <point x="-222" y="-270"/>
      <point x="-180" y="-270" type="curve" smooth="yes"/>
      <point x="-124" y="-270"/>
      <point x="-99" y="-232"/>
      <point x="-99" y="-167" type="curve"/>
      <point x="-168" y="-158" type="line"/>
      <point x="-169" y="-186"/>
      <point x="-174" y="-209"/>
      <point x="-189" y="-209" type="curve" smooth="yes"/>
      <point x="-200" y="-209"/>
      <point x="-209" y="-197"/>
      <point x="-209" y="-170" type="curve" smooth="yes"/>
      <point x="-209" y="-160" type="line"/>
      <point x="-273" y="-160" type="line"/>
      <point x="-273" y="-170" type="line" smooth="yes"/>
      <point x="-273" y="-196"/>
      <point x="-284" y="-209"/>
      <point x="-294" y="-209" type="curve" smooth="yes"/>
      <point x="-322" y="-209"/>
      <point x="-329" y="-146"/>
      <point x="-329" y="-88" type="curve" smooth="yes"/>
      <point x="-329" y="-6"/>
      <point x="-302" y="49"/>
      <point x="-242" y="49" type="curve" smooth="yes"/>
      <point x="-211" y="49"/>
      <point x="-181" y="27"/>
      <point x="-168" y="-9" type="curve"/>
      <point x="-193" y="-24"/>
      <point x="-219" y="-34"/>
      <point x="-245" y="-34" type="curve" smooth="yes"/>
      <point x="-275" y="-34"/>
      <point x="-301" y="-17"/>
      <point x="-326" y="8" type="curve"/>
      <point x="-340" y="-48" type="line"/>
      <point x="-311" y="-76"/>
      <point x="-277" y="-92"/>
      <point x="-240" y="-92" type="curve" smooth="yes"/>
      <point x="-194" y="-92"/>
      <point x="-157" y="-79"/>
      <point x="-98" y="-36" type="curve"/>
      <point x="-109" y="51"/>
      <point x="-167" y="105"/>
      <point x="-242" y="105" type="curve" smooth="yes"/>
      <point x="-343" y="105"/>
      <point x="-404" y="26"/>
      <point x="-404" y="-87" type="curve" smooth="yes"/>
      <point x="-404" y="-203"/>
      <point x="-363" y="-270"/>
    </contour>
  </outline>
</glyph>
<glyph name="nga_mon" format="2">
  <advance width="490"/>
  <unicode hex="105A"/>
  <note>
nga_mon
</note>
  <outline>
    <contour>
      <point x="258" y="140" type="curve" smooth="yes"/>
      <point x="348" y="140"/>
      <point x="422" y="199"/>
      <point x="451" y="288" type="curve"/>
      <point x="388" y="317" type="line"/>
      <point x="357" y="243"/>
      <point x="314" y="204"/>
      <point x="260" y="204" type="curve" smooth="yes"/>
      <point x="179" y="204"/>
      <point x="122" y="282"/>
      <point x="122" y="391" type="curve" smooth="yes"/>
      <point x="122" y="499"/>
      <point x="173" y="576"/>
      <point x="256" y="576" type="curve" smooth="yes"/>
      <point x="312" y="576"/>
      <point x="357" y="537"/>
      <point x="387" y="463" type="curve"/>
      <point x="446" y="493" type="line"/>
      <point x="417" y="580"/>
      <point x="344" y="640"/>
      <point x="258" y="640" type="curve" smooth="yes"/>
      <point x="126" y="640"/>
      <point x="39" y="532"/>
      <point x="39" y="390" type="curve" smooth="yes"/>
      <point x="39" y="246"/>
      <point x="125" y="140"/>
    </contour>
    <contour>
      <point x="312" y="-270" type="curve" smooth="yes"/>
      <point x="330" y="-270"/>
      <point x="352" y="-266"/>
      <point x="367" y="-255" type="curve"/>
      <point x="343" y="-207" type="line"/>
      <point x="335" y="-210"/>
      <point x="329" y="-213"/>
      <point x="320" y="-213" type="curve" smooth="yes"/>
      <point x="306" y="-213"/>
      <point x="297" y="-203"/>
      <point x="297" y="-188" type="curve" smooth="yes"/>
      <point x="297" y="-171"/>
      <point x="304" y="-154"/>
      <point x="325" y="-129" type="curve" smooth="yes"/>
      <point x="362" y="-84"/>
      <point x="384" y="-54"/>
      <point x="384" y="-13" type="curve" smooth="yes"/>
      <point x="384" y="54"/>
      <point x="338" y="106"/>
      <point x="258" y="106" type="curve" smooth="yes"/>
      <point x="168" y="106"/>
      <point x="130" y="53"/>
      <point x="127" y="-15" type="curve"/>
      <point x="202" y="-15" type="line"/>
      <point x="205" y="20"/>
      <point x="225" y="45"/>
      <point x="257" y="45" type="curve" smooth="yes"/>
      <point x="286" y="45"/>
      <point x="306" y="22"/>
      <point x="306" y="-10" type="curve" smooth="yes"/>
      <point x="306" y="-34"/>
      <point x="297" y="-56"/>
      <point x="280" y="-78" type="curve" smooth="yes"/>
      <point x="247" y="-120"/>
      <point x="219" y="-151"/>
      <point x="219" y="-191" type="curve" smooth="yes"/>
      <point x="219" y="-234"/>
      <point x="245" y="-270"/>
    </contour>
  </outline>
</glyph>
<glyph name="jha_mon" format="2">
  <advance width="657"/>
  <unicode hex="105B"/>
  <note>
jha_mon
</note>
  <outline>
    <contour>
      <point x="258" y="140" type="curve" smooth="yes"/>
      <point x="333" y="140"/>
      <point x="378" y="169"/>
      <point x="419" y="208" type="curve"/>
      <point x="372" y="252" type="line"/>
      <point x="340" y="222"/>
      <point x="308" y="204"/>
      <point x="266" y="204" type="curve" smooth="yes"/>
      <point x="170" y="204"/>
      <point x="122" y="280"/>
      <point x="122" y="390" type="curve" smooth="yes"/>
      <point x="122" y="501"/>
      <point x="177" y="576"/>
      <point x="266" y="576" type="curve" smooth="yes"/>
      <point x="280" y="576"/>
      <point x="297" y="574"/>
      <point x="306" y="572" type="curve"/>
      <point x="308" y="586" type="line"/>
      <point x="273" y="569"/>
      <point x="249" y="532"/>
      <point x="249" y="487" type="curve" smooth="yes"/>
      <point x="249" y="425"/>
      <point x="290" y="384"/>
      <point x="348" y="384" type="curve" smooth="yes"/>
      <point x="367" y="384"/>
      <point x="393" y="390"/>
      <point x="406" y="405" type="curve"/>
      <point x="387" y="401" type="line"/>
      <point x="389" y="335"/>
      <point x="409" y="295"/>
      <point x="489" y="295" type="curve" smooth="yes"/>
      <point x="552" y="295" type="line"/>
      <point x="552" y="359" type="line"/>
      <point x="501" y="359" type="line" smooth="yes"/>
      <point x="462" y="359"/>
      <point x="447" y="370"/>
      <point x="447" y="414" type="curve" smooth="yes"/>
      <point x="447" y="424"/>
      <point x="449" y="463"/>
      <point x="449" y="483" type="curve" smooth="yes"/>
      <point x="449" y="590"/>
      <point x="384" y="640"/>
      <point x="262" y="640" type="curve" smooth="yes"/>
      <point x="124" y="640"/>
      <point x="39" y="534"/>
      <point x="39" y="390" type="curve" smooth="yes"/>
      <point x="39" y="258"/>
      <point x="108" y="140"/>
    </contour>
    <contour>
      <point x="454" y="-270" type="curve" smooth="yes"/>
      <point x="554" y="-270"/>
      <point x="608" y="-195"/>
      <point x="608" y="-38" type="curve" smooth="yes"/>
      <point x="608" y="631" type="line"/>
      <point x="525" y="631" type="line"/>
      <point x="525" y="-45" type="line" smooth="yes"/>
      <point x="525" y="-150"/>
      <point x="505" y="-207"/>
      <point x="455" y="-207" type="curve" smooth="yes"/>
      <point x="407" y="-207"/>
      <point x="385" y="-152"/>
      <point x="385" y="-45" type="curve" smooth="yes"/>
      <point x="385" y="217" type="line"/>
      <point x="302" y="163" type="line"/>
      <point x="302" y="-38" type="line" smooth="yes"/>
      <point x="302" y="-195"/>
      <point x="356" y="-270"/>
    </contour>
    <contour>
      <point x="349" y="438" type="curve" smooth="yes"/>
      <point x="321" y="438"/>
      <point x="305" y="461"/>
      <point x="305" y="492" type="curve" smooth="yes"/>
      <point x="305" y="523"/>
      <point x="324" y="547"/>
      <point x="350" y="547" type="curve" smooth="yes"/>
      <point x="376" y="547"/>
      <point x="394" y="523"/>
      <point x="394" y="491" type="curve" smooth="yes"/>
      <point x="394" y="461"/>
      <point x="374" y="438"/>
    </contour>
  </outline>
</glyph>
<glyph name="bba_mon" format="2">
  <advance width="506"/>
  <unicode hex="105C"/>
  <note>
bba_mon
</note>
  <outline>
    <contour>
      <point x="252" y="140" type="curve" smooth="yes"/>
      <point x="383" y="140"/>
      <point x="473" y="244"/>
      <point x="473" y="389" type="curve" smooth="yes"/>
      <point x="473" y="533"/>
      <point x="386" y="640"/>
      <point x="253" y="640" type="curve" smooth="yes"/>
      <point x="119" y="640"/>
      <point x="34" y="531"/>
      <point x="34" y="389" type="curve" smooth="yes"/>
      <point x="34" y="247"/>
      <point x="120" y="140"/>
    </contour>
    <contour>
      <point x="253" y="201" type="curve" smooth="yes"/>
      <point x="165" y="201"/>
      <point x="107" y="274"/>
      <point x="107" y="388" type="curve" smooth="yes"/>
      <point x="107" y="502"/>
      <point x="162" y="578"/>
      <point x="253" y="578" type="curve" smooth="yes"/>
      <point x="343" y="578"/>
      <point x="400" y="501"/>
      <point x="400" y="388" type="curve" smooth="yes"/>
      <point x="400" y="277"/>
      <point x="343" y="201"/>
    </contour>
    <contour>
      <point x="253" y="299" type="curve" smooth="yes"/>
      <point x="303" y="299"/>
      <point x="339" y="335"/>
      <point x="339" y="395" type="curve" smooth="yes"/>
      <point x="339" y="452"/>
      <point x="302" y="488"/>
      <point x="253" y="488" type="curve" smooth="yes"/>
      <point x="202" y="488"/>
      <point x="169" y="452"/>
      <point x="169" y="394" type="curve" smooth="yes"/>
      <point x="169" y="334"/>
      <point x="202" y="299"/>
    </contour>
    <contour>
      <point x="254" y="344" type="curve" smooth="yes"/>
      <point x="229" y="344"/>
      <point x="216" y="363"/>
      <point x="216" y="394" type="curve" smooth="yes"/>
      <point x="216" y="424"/>
      <point x="232" y="443"/>
      <point x="254" y="443" type="curve" smooth="yes"/>
      <point x="276" y="443"/>
      <point x="291" y="424"/>
      <point x="291" y="394" type="curve" smooth="yes"/>
      <point x="291" y="363"/>
      <point x="276" y="344"/>
    </contour>
  </outline>
</glyph>
<glyph name="bbe_mon" format="2">
  <advance width="496"/>
  <unicode hex="105D"/>
  <note>
bbe_mon
</note>
  <outline>
    <contour>
      <point x="210" y="-271" type="curve" smooth="yes"/>
      <point x="290" y="-271" type="line" smooth="yes"/>
      <point x="394" y="-271"/>
      <point x="446" y="-209"/>
      <point x="446" y="-85" type="curve" smooth="yes"/>
      <point x="446" y="288" type="line"/>
      <point x="366" y="204" type="line"/>
      <point x="366" y="-93" type="line" smooth="yes"/>
      <point x="366" y="-166"/>
      <point x="342" y="-207"/>
      <point x="293" y="-207" type="curve" smooth="yes"/>
      <point x="209" y="-207" type="line" smooth="yes"/>
      <point x="168" y="-207"/>
      <point x="138" y="-183"/>
      <point x="138" y="-136" type="curve" smooth="yes"/>
      <point x="138" y="-92"/>
      <point x="157" y="-71"/>
      <point x="185" y="-71" type="curve" smooth="yes"/>
      <point x="209" y="-71"/>
      <point x="226" y="-86"/>
      <point x="243" y="-107" type="curve"/>
      <point x="284" y="-61" type="line"/>
      <point x="254" y="-27"/>
      <point x="224" y="-7"/>
      <point x="173" y="-7" type="curve" smooth="yes"/>
      <point x="108" y="-7"/>
      <point x="58" y="-59"/>
      <point x="58" y="-135" type="curve" smooth="yes"/>
      <point x="58" y="-222"/>
      <point x="117" y="-271"/>
    </contour>
    <contour>
      <point x="135" y="262" type="line"/>
      <point x="167" y="309"/>
      <point x="207" y="334"/>
      <point x="256" y="334" type="curve" smooth="yes"/>
      <point x="307" y="334"/>
      <point x="345" y="309"/>
      <point x="377" y="263" type="curve"/>
      <point x="400" y="331" type="line"/>
      <point x="361" y="379"/>
      <point x="312" y="397"/>
      <point x="257" y="397" type="curve" smooth="yes"/>
      <point x="196" y="397"/>
      <point x="148" y="377"/>
      <point x="111" y="326" type="curve"/>
    </contour>
    <contour>
      <point x="257" y="140" type="curve" smooth="yes"/>
      <point x="390" y="140"/>
      <point x="474" y="247"/>
      <point x="474" y="399" type="curve" smooth="yes"/>
      <point x="474" y="495"/>
      <point x="431" y="591"/>
      <point x="370" y="640" type="curve"/>
      <point x="327" y="586" type="line"/>
      <point x="372" y="545"/>
      <point x="394" y="481"/>
      <point x="394" y="400" type="curve" smooth="yes"/>
      <point x="394" y="280"/>
      <point x="338" y="204"/>
      <point x="256" y="204" type="curve" smooth="yes"/>
      <point x="173" y="204"/>
      <point x="119" y="279"/>
      <point x="119" y="400" type="curve" smooth="yes"/>
      <point x="119" y="481"/>
      <point x="140" y="545"/>
      <point x="184" y="586" type="curve"/>
      <point x="141" y="640" type="line"/>
      <point x="81" y="590"/>
      <point x="39" y="496"/>
      <point x="39" y="399" type="curve" smooth="yes"/>
      <point x="39" y="245"/>
      <point x="118" y="140"/>
    </contour>
  </outline>
</glyph>
<glyph name="_medialNa_mon" format="2">
  <unicode hex="105E"/>
  <note>
_medialNa_mon
</note>
  <outline>
    <contour>
      <point x="-310" y="-270" type="curve" smooth="yes"/>
      <point x="-232" y="-270"/>
      <point x="-192" y="-221"/>
      <point x="-192" y="-130" type="curve" smooth="yes"/>
      <point x="-192" y="114" type="line"/>
      <point x="-265" y="114" type="line"/>
      <point x="-265" y="-138" type="line" smooth="yes"/>
      <point x="-265" y="-182"/>
      <point x="-281" y="-205"/>
      <point x="-310" y="-205" type="curve" smooth="yes"/>
      <point x="-333" y="-205"/>
      <point x="-355" y="-187"/>
      <point x="-355" y="-151" type="curve" smooth="yes"/>
      <point x="-355" y="-100"/>
      <point x="-323" y="-71"/>
      <point x="-251" y="-71" type="curve" smooth="yes"/>
      <point x="-192" y="-71"/>
      <point x="-155" y="-90"/>
      <point x="-108" y="-122" type="curve"/>
      <point x="-71" y="-69" type="line"/>
      <point x="-127" y="-34"/>
      <point x="-183" y="-6"/>
      <point x="-252" y="-6" type="curve" smooth="yes"/>
      <point x="-365" y="-6"/>
      <point x="-428" y="-60"/>
      <point x="-428" y="-147" type="curve" smooth="yes"/>
      <point x="-428" y="-219"/>
      <point x="-382" y="-270"/>
    </contour>
  </outline>
</glyph>
<glyph name="_medialMa_mon" format="2">
  <unicode hex="105F"/>
  <note>
_medialMa_mon
</note>
  <outline>
    <contour>
      <point x="-249" y="-270" type="curve" smooth="yes"/>
      <point x="-181" y="-270"/>
      <point x="-113" y="-245"/>
      <point x="-61" y="-207" type="curve"/>
      <point x="-97" y="-157" type="line"/>
      <point x="-145" y="-191"/>
      <point x="-195" y="-210"/>
      <point x="-244" y="-210" type="curve" smooth="yes"/>
      <point x="-307" y="-210"/>
      <point x="-341" y="-183"/>
      <point x="-341" y="-139" type="curve" smooth="yes"/>
      <point x="-341" y="-91"/>
      <point x="-313" y="-66"/>
      <point x="-257" y="-66" type="curve" smooth="yes"/>
      <point x="-236" y="-66"/>
      <point x="-214" y="-68"/>
      <point x="-195" y="-72" type="curve"/>
      <point x="-195" y="114" type="line"/>
      <point x="-268" y="114" type="line"/>
      <point x="-268" y="-5" type="line"/>
      <point x="-351" y="-5"/>
      <point x="-414" y="-56"/>
      <point x="-414" y="-135" type="curve" smooth="yes"/>
      <point x="-414" y="-222"/>
      <point x="-353" y="-270"/>
    </contour>
  </outline>
</glyph>
<glyph name="_medialLa_mon" format="2">
  <unicode hex="1060"/>
  <note>
_medialLa_mon
</note>
  <outline>
    <contour>
      <point x="-405" y="-271" type="line"/>
      <point x="-97" y="-271" type="line"/>
      <point x="-97" y="-210" type="line"/>
      <point x="-287" y="-210" type="line"/>
      <point x="-142" y="105" type="line"/>
      <point x="-231" y="105" type="line"/>
    </contour>
  </outline>
</glyph>
<glyph name="sha_skn" format="2">
  <advance width="535"/>
  <unicode hex="1061"/>
  <note>
sha_skn
</note>
  <outline>
    <contour>
      <point x="387" y="-271" type="line"/>
      <point x="470" y="-271" type="line"/>
      <point x="470" y="389" type="line" smooth="yes"/>
      <point x="470" y="528"/>
      <point x="400" y="640"/>
      <point x="261" y="640" type="curve" smooth="yes"/>
      <point x="118" y="640"/>
      <point x="39" y="534"/>
      <point x="39" y="389" type="curve" smooth="yes"/>
      <point x="39" y="247"/>
      <point x="122" y="140"/>
      <point x="245" y="140" type="curve" smooth="yes"/>
      <point x="276" y="140"/>
      <point x="304" y="144"/>
      <point x="326" y="153" type="curve"/>
      <point x="326" y="334"/>
      <point x="255" y="442"/>
      <point x="103" y="449" type="curve"/>
      <point x="96" y="389" type="line"/>
      <point x="199" y="387"/>
      <point x="253" y="313"/>
      <point x="260" y="180" type="curve"/>
      <point x="286" y="207" type="line"/>
      <point x="274" y="203"/>
      <point x="260" y="201"/>
      <point x="247" y="201" type="curve" smooth="yes"/>
      <point x="162" y="201"/>
      <point x="108" y="279"/>
      <point x="108" y="388" type="curve" smooth="yes"/>
      <point x="108" y="499"/>
      <point x="157" y="575"/>
      <point x="256" y="575" type="curve" smooth="yes"/>
      <point x="344" y="575"/>
      <point x="387" y="497"/>
      <point x="387" y="388" type="curve" smooth="yes"/>
    </contour>
    <contour>
      <point x="155" y="-271" type="line"/>
      <point x="326" y="-271" type="line"/>
      <point x="326" y="155" type="line"/>
      <point x="243" y="155" type="line" smooth="yes"/>
      <point x="243" y="-207" type="line"/>
      <point x="155" y="-207" type="line"/>
    </contour>
  </outline>
</glyph>
<glyph name="eu_skn" format="2">
  <advance width="253"/>
  <unicode hex="1062"/>
  <note>
eu_skn
</note>
  <outline>
    <contour>
      <point x="107" y="149" type="line"/>
      <point x="188" y="149" type="line"/>
      <point x="188" y="631" type="line"/>
      <point x="12" y="631" type="line"/>
      <point x="12" y="570" type="line"/>
      <point x="107" y="570" type="line"/>
    </contour>
  </outline>
</glyph>
<glyph name="hathi_skn" format="2">
  <advance width="500"/>
  <unicode hex="1063"/>
  <note>
hathi_skn
</note>
  <outline>
    <contour>
      <point x="49" y="-270" type="line"/>
      <point x="129" y="-270" type="line"/>
      <point x="129" y="204" type="line"/>
      <point x="49" y="288" type="line"/>
    </contour>
    <contour>
      <point x="242" y="140" type="curve" smooth="yes"/>
      <point x="375" y="140"/>
      <point x="461" y="246"/>
      <point x="461" y="390" type="curve" smooth="yes"/>
      <point x="461" y="532"/>
      <point x="374" y="640"/>
      <point x="242" y="640" type="curve" smooth="yes"/>
      <point x="156" y="640"/>
      <point x="83" y="580"/>
      <point x="54" y="493" type="curve"/>
      <point x="113" y="463" type="line"/>
      <point x="143" y="537"/>
      <point x="188" y="576"/>
      <point x="244" y="576" type="curve" smooth="yes"/>
      <point x="327" y="576"/>
      <point x="378" y="499"/>
      <point x="378" y="391" type="curve" smooth="yes"/>
      <point x="378" y="282"/>
      <point x="321" y="204"/>
      <point x="240" y="204" type="curve" smooth="yes"/>
      <point x="186" y="204"/>
      <point x="143" y="243"/>
      <point x="112" y="317" type="curve"/>
      <point x="49" y="288" type="line"/>
      <point x="78" y="199"/>
      <point x="152" y="140"/>
    </contour>
  </outline>
</glyph>
<glyph name="kepho_skn" format="2">
  <advance width="308"/>
  <unicode hex="1064"/>
  <note>
kepho_skn
</note>
  <outline>
    <contour>
      <point x="113" y="149" type="line"/>
      <point x="286" y="149" type="line"/>
      <point x="286" y="210" type="line"/>
      <point x="196" y="210" type="line"/>
      <point x="196" y="631" type="line"/>
      <point x="22" y="631" type="line"/>
      <point x="22" y="570" type="line"/>
      <point x="113" y="570" type="line"/>
    </contour>
  </outline>
</glyph>
<glyph name="tha_wpk" format="2">
  <advance width="511"/>
  <unicode hex="1065"/>
  <note>
tha_wpk
</note>
  <outline>
    <contour>
      <point x="243" y="140" type="curve" smooth="yes"/>
      <point x="380" y="140"/>
      <point x="472" y="240"/>
      <point x="472" y="390" type="curve" smooth="yes"/>
      <point x="472" y="533"/>
      <point x="380" y="640"/>
      <point x="243" y="640" type="curve" smooth="yes"/>
      <point x="152" y="640"/>
      <point x="76" y="580"/>
      <point x="45" y="493" type="curve"/>
      <point x="104" y="463" type="line"/>
      <point x="136" y="539"/>
      <point x="184" y="578"/>
      <point x="245" y="578" type="curve" smooth="yes"/>
      <point x="333" y="578"/>
      <point x="389" y="501"/>
      <point x="389" y="391" type="curve" smooth="yes"/>
      <point x="389" y="281"/>
      <point x="329" y="201"/>
      <point x="241" y="201" type="curve" smooth="yes"/>
      <point x="180" y="201"/>
      <point x="131" y="241"/>
      <point x="103" y="317" type="curve"/>
      <point x="40" y="288" type="line"/>
      <point x="69" y="199"/>
      <point x="147" y="140"/>
    </contour>
  </outline>
</glyph>
<glyph name="pwa_wpk" format="2">
  <advance width="508"/>
  <unicode hex="1066"/>
  <note>
pwa_wpk
</note>
  <outline>
    <contour>
      <point x="254" y="140" type="curve" smooth="yes"/>
      <point x="395" y="140"/>
      <point x="469" y="236"/>
      <point x="469" y="381" type="curve" smooth="yes"/>
      <point x="469" y="497"/>
      <point x="426" y="595"/>
      <point x="368" y="640" type="curve"/>
      <point x="325" y="586" type="line"/>
      <point x="366" y="545"/>
      <point x="386" y="480"/>
      <point x="386" y="383" type="curve" smooth="yes"/>
      <point x="386" y="267"/>
      <point x="345" y="204"/>
      <point x="254" y="204" type="curve" smooth="yes"/>
      <point x="169" y="204"/>
      <point x="122" y="273"/>
      <point x="122" y="383" type="curve" smooth="yes"/>
      <point x="122" y="480"/>
      <point x="142" y="545"/>
      <point x="183" y="586" type="curve"/>
      <point x="140" y="640" type="line"/>
      <point x="82" y="596"/>
      <point x="39" y="501"/>
      <point x="39" y="381" type="curve" smooth="yes"/>
      <point x="39" y="235"/>
      <point x="117" y="140"/>
    </contour>
    <contour>
      <point x="131" y="-271" type="line"/>
      <point x="304" y="-271" type="line"/>
      <point x="304" y="156" type="line"/>
      <point x="221" y="156" type="line"/>
      <point x="221" y="-210" type="line"/>
      <point x="131" y="-210" type="line"/>
    </contour>
  </outline>
</glyph>
<glyph name="eu_wpk" format="2">
  <advance width="328"/>
  <unicode hex="1067"/>
  <note>
eu_wpk
</note>
  <outline>
    <contour>
      <point x="146" y="139" type="curve" smooth="yes"/>
      <point x="217" y="139"/>
      <point x="263" y="185"/>
      <point x="263" y="265" type="curve"/>
      <point x="256" y="331"/>
      <point x="216" y="391"/>
      <point x="146" y="391" type="curve" smooth="yes"/>
      <point x="76" y="391"/>
      <point x="30" y="343"/>
      <point x="30" y="265" type="curve" smooth="yes"/>
      <point x="30" y="185"/>
      <point x="76" y="139"/>
    </contour>
    <contour>
      <point x="146" y="198" type="curve" smooth="yes"/>
      <point x="114" y="198"/>
      <point x="96" y="224"/>
      <point x="96" y="265" type="curve" smooth="yes"/>
      <point x="96" y="306"/>
      <point x="117" y="333"/>
      <point x="146" y="333" type="curve" smooth="yes"/>
      <point x="176" y="333"/>
      <point x="196" y="306"/>
      <point x="196" y="265" type="curve" smooth="yes"/>
      <point x="196" y="224"/>
      <point x="179" y="198"/>
    </contour>
    <contour>
      <point x="263" y="265" type="line"/>
      <point x="263" y="631" type="line"/>
      <point x="188" y="631" type="line"/>
      <point x="188" y="369" type="line"/>
    </contour>
  </outline>
</glyph>
<glyph name="ue_wpk" format="2">
  <advance width="268"/>
  <unicode hex="1068"/>
  <note>
ue_wpk
</note>
  <outline>
    <contour>
      <point x="22" y="149" type="line"/>
      <point x="195" y="149" type="line"/>
      <point x="195" y="631" type="line"/>
      <point x="112" y="631" type="line"/>
      <point x="112" y="213" type="line"/>
      <point x="22" y="213" type="line"/>
    </contour>
    <contour>
      <point x="146" y="737" type="curve" smooth="yes"/>
      <point x="198" y="737"/>
      <point x="235" y="771"/>
      <point x="235" y="831" type="curve" smooth="yes"/>
      <point x="235" y="891"/>
      <point x="198" y="924"/>
      <point x="146" y="924" type="curve" smooth="yes"/>
      <point x="95" y="924"/>
      <point x="60" y="890"/>
      <point x="60" y="831" type="curve" smooth="yes"/>
      <point x="60" y="771"/>
      <point x="95" y="737"/>
    </contour>
    <contour>
      <point x="147" y="781" type="curve" smooth="yes"/>
      <point x="124" y="781"/>
      <point x="111" y="801"/>
      <point x="111" y="831" type="curve" smooth="yes"/>
      <point x="111" y="862"/>
      <point x="126" y="880"/>
      <point x="147" y="880" type="curve" smooth="yes"/>
      <point x="169" y="880"/>
      <point x="184" y="862"/>
      <point x="184" y="831" type="curve" smooth="yes"/>
      <point x="184" y="801"/>
      <point x="169" y="781"/>
    </contour>
  </outline>
</glyph>
<glyph name="tone1_wpk" format="2">
  <advance width="325"/>
  <unicode hex="1069"/>
  <note>
tone1_wpk
</note>
  <outline>
    <contour>
      <point x="156" y="137" type="curve" smooth="yes"/>
      <point x="209" y="137"/>
      <point x="246" y="153"/>
      <point x="283" y="198" type="curve"/>
      <point x="239" y="240" type="line"/>
      <point x="215" y="211"/>
      <point x="192" y="201"/>
      <point x="169" y="201" type="curve" smooth="yes"/>
      <point x="138" y="201"/>
      <point x="117" y="226"/>
      <point x="117" y="259" type="curve" smooth="yes"/>
      <point x="117" y="296"/>
      <point x="134" y="322"/>
      <point x="175" y="354" type="curve" smooth="yes"/>
      <point x="255" y="417"/>
      <point x="284" y="459"/>
      <point x="284" y="523" type="curve" smooth="yes"/>
      <point x="284" y="585"/>
      <point x="238" y="640"/>
      <point x="161" y="640" type="curve" smooth="yes"/>
      <point x="101" y="640"/>
      <point x="66" y="617"/>
      <point x="37" y="577" type="curve"/>
      <point x="89" y="536" type="line"/>
      <point x="108" y="567"/>
      <point x="131" y="577"/>
      <point x="152" y="577" type="curve" smooth="yes"/>
      <point x="185" y="577"/>
      <point x="203" y="551"/>
      <point x="203" y="521" type="curve" smooth="yes"/>
      <point x="203" y="494"/>
      <point x="193" y="459"/>
      <point x="145" y="423" type="curve" smooth="yes"/>
      <point x="61" y="360"/>
      <point x="37" y="322"/>
      <point x="37" y="261" type="curve" smooth="yes"/>
      <point x="37" y="188"/>
      <point x="86" y="137"/>
    </contour>
  </outline>
</glyph>
<glyph name="tone2_wpk" format="2">
  <advance width="330"/>
  <unicode hex="106A"/>
  <note>
tone2_wpk
</note>
  <outline>
    <contour>
      <point x="146" y="139" type="curve" smooth="yes"/>
      <point x="224" y="139"/>
      <point x="265" y="186"/>
      <point x="265" y="278" type="curve" smooth="yes"/>
      <point x="265" y="631" type="line"/>
      <point x="190" y="631" type="line"/>
      <point x="190" y="287" type="line" smooth="yes"/>
      <point x="190" y="227"/>
      <point x="174" y="203"/>
      <point x="147" y="203" type="curve" smooth="yes"/>
      <point x="120" y="203"/>
      <point x="103" y="226"/>
      <point x="103" y="267" type="curve"/>
      <point x="28" y="267" type="line"/>
      <point x="28" y="190"/>
      <point x="72" y="139"/>
    </contour>
  </outline>
</glyph>
<glyph name="tone3_wpk" format="2">
  <advance width="330"/>
  <unicode hex="106B"/>
  <note>
tone3_wpk
</note>
  <outline>
    <contour>
      <point x="190" y="149" type="line"/>
      <point x="265" y="149" type="line"/>
      <point x="265" y="503" type="line" smooth="yes"/>
      <point x="265" y="595"/>
      <point x="224" y="641"/>
      <point x="146" y="641" type="curve" smooth="yes"/>
      <point x="72" y="641"/>
      <point x="28" y="591"/>
      <point x="28" y="514" type="curve"/>
      <point x="103" y="514" type="line"/>
      <point x="103" y="554"/>
      <point x="120" y="577"/>
      <point x="147" y="577" type="curve" smooth="yes"/>
      <point x="174" y="577"/>
      <point x="190" y="553"/>
      <point x="190" y="494" type="curve" smooth="yes"/>
    </contour>
  </outline>
</glyph>
<glyph name="tone4_wpk" format="2">
  <advance width="330"/>
  <unicode hex="106C"/>
  <note>
tone4_wpk
</note>
  <outline>
    <contour>
      <point x="184" y="139" type="curve" smooth="yes"/>
      <point x="258" y="139"/>
      <point x="302" y="190"/>
      <point x="302" y="267" type="curve"/>
      <point x="227" y="267" type="line"/>
      <point x="227" y="226"/>
      <point x="210" y="203"/>
      <point x="183" y="203" type="curve" smooth="yes"/>
      <point x="156" y="203"/>
      <point x="140" y="227"/>
      <point x="140" y="287" type="curve" smooth="yes"/>
      <point x="140" y="631" type="line"/>
      <point x="65" y="631" type="line"/>
      <point x="65" y="278" type="line" smooth="yes"/>
      <point x="65" y="186"/>
      <point x="106" y="139"/>
    </contour>
  </outline>
</glyph>
<glyph name="tone5_wpk" format="2">
  <advance width="325"/>
  <unicode hex="106D"/>
  <note>
tone5_wpk
</note>
  <outline>
    <contour>
      <point x="169" y="137" type="curve" smooth="yes"/>
      <point x="239" y="137"/>
      <point x="288" y="188"/>
      <point x="288" y="261" type="curve" smooth="yes"/>
      <point x="288" y="322"/>
      <point x="264" y="360"/>
      <point x="180" y="423" type="curve" smooth="yes"/>
      <point x="132" y="459"/>
      <point x="122" y="494"/>
      <point x="122" y="521" type="curve" smooth="yes"/>
      <point x="122" y="551"/>
      <point x="140" y="577"/>
      <point x="173" y="577" type="curve" smooth="yes"/>
      <point x="194" y="577"/>
      <point x="217" y="567"/>
      <point x="236" y="536" type="curve"/>
      <point x="288" y="577" type="line"/>
      <point x="259" y="617"/>
      <point x="224" y="640"/>
      <point x="164" y="640" type="curve" smooth="yes"/>
      <point x="87" y="640"/>
      <point x="41" y="585"/>
      <point x="41" y="523" type="curve" smooth="yes"/>
      <point x="41" y="459"/>
      <point x="70" y="417"/>
      <point x="150" y="354" type="curve" smooth="yes"/>
      <point x="191" y="322"/>
      <point x="208" y="296"/>
      <point x="208" y="259" type="curve" smooth="yes"/>
      <point x="208" y="226"/>
      <point x="187" y="201"/>
      <point x="156" y="201" type="curve" smooth="yes"/>
      <point x="133" y="201"/>
      <point x="110" y="211"/>
      <point x="86" y="240" type="curve"/>
      <point x="42" y="198" type="line"/>
      <point x="79" y="153"/>
      <point x="116" y="137"/>
    </contour>
  </outline>
</glyph>
<glyph name="nna_epk" format="2">
  <advance width="964"/>
  <unicode hex="106E"/>
  <note>
nna_epk
</note>
  <outline>
    <contour>
      <point x="138" y="140" type="curve"/>
      <point x="181" y="193" type="line"/>
      <point x="141" y="235"/>
      <point x="122" y="299"/>
      <point x="122" y="379" type="curve" smooth="yes"/>
      <point x="122" y="504"/>
      <point x="167" y="577"/>
      <point x="234" y="577" type="curve" smooth="yes"/>
      <point x="301" y="577"/>
      <point x="344" y="505"/>
      <point x="344" y="379" type="curve" smooth="yes"/>
      <point x="344" y="299"/>
      <point x="325" y="235"/>
      <point x="286" y="193" type="curve"/>
      <point x="329" y="140" type="line"/>
      <point x="386" y="187"/>
      <point x="427" y="283"/>
      <point x="427" y="380" type="curve" smooth="yes"/>
      <point x="427" y="526"/>
      <point x="352" y="640"/>
      <point x="234" y="640" type="curve" smooth="yes"/>
      <point x="118" y="640"/>
      <point x="39" y="536"/>
      <point x="39" y="380" type="curve" smooth="yes"/>
      <point x="39" y="279"/>
      <point x="81" y="183"/>
    </contour>
    <contour>
      <point x="521" y="140" type="line"/>
      <point x="580" y="187"/>
      <point x="617" y="269"/>
      <point x="617" y="380" type="curve" smooth="yes"/>
      <point x="617" y="518"/>
      <point x="545" y="640"/>
      <point x="426" y="640" type="curve" smooth="yes"/>
      <point x="389" y="640"/>
      <point x="353" y="626"/>
      <point x="324" y="599" type="curve"/>
      <point x="376" y="557" type="line"/>
      <point x="392" y="568"/>
      <point x="409" y="576"/>
      <point x="427" y="576" type="curve" smooth="yes"/>
      <point x="495" y="576"/>
      <point x="540" y="505"/>
      <point x="540" y="379" type="curve" smooth="yes"/>
      <point x="540" y="299"/>
      <point x="520" y="235"/>
      <point x="478" y="193" type="curve"/>
    </contour>
    <contour>
      <point x="746" y="140" type="curve" smooth="yes"/>
      <point x="848" y="140"/>
      <point x="925" y="240"/>
      <point x="925" y="389" type="curve" smooth="yes"/>
      <point x="925" y="529"/>
      <point x="849" y="640"/>
      <point x="731" y="640" type="curve" smooth="yes"/>
      <point x="662" y="640"/>
      <point x="607" y="595"/>
      <point x="571" y="515" type="curve"/>
      <point x="606" y="442" type="line"/>
      <point x="632" y="525"/>
      <point x="668" y="576"/>
      <point x="727" y="576" type="curve" smooth="yes"/>
      <point x="798" y="576"/>
      <point x="842" y="499"/>
      <point x="842" y="387" type="curve" smooth="yes"/>
      <point x="842" y="271"/>
      <point x="800" y="201"/>
      <point x="736" y="201" type="curve" smooth="yes"/>
      <point x="713" y="201"/>
      <point x="697" y="207"/>
      <point x="679" y="217" type="curve"/>
      <point x="650" y="163" type="line"/>
      <point x="676" y="146"/>
      <point x="710" y="140"/>
    </contour>
  </outline>
</glyph>
<glyph name="ghwa_epk" format="2">
  <advance width="847"/>
  <unicode hex="1070"/>
  <note>
ghwa_epk
</note>
  <outline>
    <contour>
      <point x="249" y="140" type="curve" smooth="yes"/>
      <point x="380" y="140"/>
      <point x="464" y="251"/>
      <point x="464" y="399" type="curve" smooth="yes"/>
      <point x="464" y="495"/>
      <point x="423" y="588"/>
      <point x="363" y="640" type="curve"/>
      <point x="320" y="586" type="line"/>
      <point x="366" y="544"/>
      <point x="386" y="482"/>
      <point x="386" y="400" type="curve" smooth="yes"/>
      <point x="386" y="277"/>
      <point x="335" y="201"/>
      <point x="251" y="201" type="curve" smooth="yes"/>
      <point x="176" y="201"/>
      <point x="131" y="255"/>
      <point x="131" y="330" type="curve" smooth="yes"/>
      <point x="131" y="370"/>
      <point x="143" y="403"/>
      <point x="179" y="445" type="curve" smooth="yes"/>
      <point x="215" y="487"/>
      <point x="229" y="510"/>
      <point x="229" y="549" type="curve" smooth="yes"/>
      <point x="229" y="592"/>
      <point x="196" y="640"/>
      <point x="137" y="640" type="curve" smooth="yes"/>
      <point x="96" y="640"/>
      <point x="65" y="623"/>
      <point x="39" y="586" type="curve"/>
      <point x="82" y="545" type="line"/>
      <point x="96" y="568"/>
      <point x="112" y="578"/>
      <point x="128" y="578" type="curve" smooth="yes"/>
      <point x="144" y="578"/>
      <point x="153" y="563"/>
      <point x="153" y="545" type="curve" smooth="yes"/>
      <point x="153" y="521"/>
      <point x="138" y="507"/>
      <point x="111" y="481" type="curve" smooth="yes"/>
      <point x="71" y="443"/>
      <point x="49" y="393"/>
      <point x="49" y="330" type="curve" smooth="yes"/>
      <point x="49" y="218"/>
      <point x="129" y="140"/>
    </contour>
    <contour>
      <point x="473" y="-271" type="line"/>
      <point x="646" y="-271" type="line"/>
      <point x="646" y="159" type="line"/>
      <point x="563" y="154" type="line"/>
      <point x="563" y="-207" type="line"/>
      <point x="473" y="-207" type="line"/>
    </contour>
    <contour>
      <point x="590" y="140" type="curve" smooth="yes"/>
      <point x="721" y="140"/>
      <point x="808" y="244"/>
      <point x="808" y="391" type="curve" smooth="yes"/>
      <point x="808" y="542"/>
      <point x="722" y="640"/>
      <point x="608" y="640" type="curve" smooth="yes"/>
      <point x="566" y="640"/>
      <point x="528" y="633"/>
      <point x="499" y="617" type="curve"/>
      <point x="528" y="562" type="line"/>
      <point x="552" y="571"/>
      <point x="571" y="576"/>
      <point x="599" y="576" type="curve" smooth="yes"/>
      <point x="676" y="576"/>
      <point x="726" y="504"/>
      <point x="726" y="393" type="curve" smooth="yes"/>
      <point x="726" y="283"/>
      <point x="675" y="205"/>
      <point x="588" y="205" type="curve" smooth="yes"/>
      <point x="520" y="205"/>
      <point x="472" y="259"/>
      <point x="441" y="335" type="curve"/>
      <point x="404" y="257" type="line"/>
      <point x="445" y="182"/>
      <point x="508" y="140"/>
    </contour>
  </outline>
</glyph>
<glyph name="i_gkn" format="2">
  <unicode hex="1071"/>
  <note>
i_gkn
</note>
  <outline>
    <contour>
      <point x="-123" y="765" type="curve" smooth="yes"/>
      <point x="-72" y="765"/>
      <point x="-35" y="799"/>
      <point x="-35" y="860" type="curve" smooth="yes"/>
      <point x="-35" y="917"/>
      <point x="-72" y="952"/>
      <point x="-123" y="952" type="curve" smooth="yes"/>
      <point x="-175" y="952"/>
      <point x="-210" y="916"/>
      <point x="-210" y="859" type="curve" smooth="yes"/>
      <point x="-210" y="799"/>
      <point x="-175" y="765"/>
    </contour>
    <contour>
      <point x="-122" y="809" type="curve" smooth="yes"/>
      <point x="-147" y="809"/>
      <point x="-159" y="829"/>
      <point x="-159" y="859" type="curve" smooth="yes"/>
      <point x="-159" y="889"/>
      <point x="-144" y="907"/>
      <point x="-122" y="907" type="curve" smooth="yes"/>
      <point x="-101" y="907"/>
      <point x="-86" y="889"/>
      <point x="-86" y="859" type="curve" smooth="yes"/>
      <point x="-86" y="829"/>
      <point x="-101" y="809"/>
    </contour>
    <contour>
      <point x="-350" y="765" type="curve" smooth="yes"/>
      <point x="-299" y="765"/>
      <point x="-262" y="799"/>
      <point x="-262" y="860" type="curve" smooth="yes"/>
      <point x="-262" y="917"/>
      <point x="-299" y="952"/>
      <point x="-350" y="952" type="curve" smooth="yes"/>
      <point x="-402" y="952"/>
      <point x="-437" y="917"/>
      <point x="-437" y="859" type="curve" smooth="yes"/>
      <point x="-437" y="799"/>
      <point x="-402" y="765"/>
    </contour>
    <contour>
      <point x="-349" y="809" type="curve" smooth="yes"/>
      <point x="-374" y="809"/>
      <point x="-386" y="829"/>
      <point x="-386" y="859" type="curve" smooth="yes"/>
      <point x="-386" y="889"/>
      <point x="-371" y="907"/>
      <point x="-349" y="907" type="curve" smooth="yes"/>
      <point x="-328" y="907"/>
      <point x="-313" y="889"/>
      <point x="-313" y="859" type="curve" smooth="yes"/>
      <point x="-313" y="829"/>
      <point x="-328" y="809"/>
    </contour>
  </outline>
</glyph>
<glyph name="oe_kyh" format="2">
  <unicode hex="1072"/>
  <note>
oe_kyh
</note>
  <outline>
    <contour>
      <point x="-229" y="712" type="curve" smooth="yes"/>
      <point x="-163" y="712"/>
      <point x="-121" y="754"/>
      <point x="-102" y="811" type="curve"/>
      <point x="-158" y="837" type="line"/>
      <point x="-174" y="792"/>
      <point x="-195" y="768"/>
      <point x="-225" y="768" type="curve" smooth="yes"/>
      <point x="-275" y="768"/>
      <point x="-301" y="816"/>
      <point x="-301" y="883" type="curve" smooth="yes"/>
      <point x="-301" y="946"/>
      <point x="-274" y="995"/>
      <point x="-229" y="995" type="curve" smooth="yes"/>
      <point x="-201" y="995"/>
      <point x="-174" y="976"/>
      <point x="-159" y="927" type="curve"/>
      <point x="-106" y="954" type="line"/>
      <point x="-125" y="1015"/>
      <point x="-170" y="1050"/>
      <point x="-228" y="1050" type="curve" smooth="yes"/>
      <point x="-319" y="1050"/>
      <point x="-369" y="975"/>
      <point x="-369" y="882" type="curve" smooth="yes"/>
      <point x="-369" y="786"/>
      <point x="-318" y="712"/>
    </contour>
  </outline>
</glyph>
<glyph name="u_kyh" format="2">
  <unicode hex="1073"/>
  <note>
u_kyh
</note>
  <outline>
    <contour>
      <point x="-391" y="714" type="line"/>
      <point x="-224" y="903" type="line"/>
      <point x="-58" y="714" type="line"/>
      <point x="-16" y="760" type="line"/>
      <point x="-224" y="999" type="line"/>
      <point x="-432" y="760" type="line"/>
    </contour>
  </outline>
</glyph>
<glyph name="ee_kyh" format="2">
  <unicode hex="1074"/>
  <note>
ee_kyh
</note>
  <outline>
    <contour>
      <point x="-224" y="714" type="line"/>
      <point x="-16" y="953" type="line"/>
      <point x="-58" y="999" type="line"/>
      <point x="-224" y="810" type="line"/>
      <point x="-391" y="999" type="line"/>
      <point x="-432" y="953" type="line"/>
    </contour>
  </outline>
</glyph>
<glyph name="ka_shn" format="2">
  <advance width="516"/>
  <unicode hex="1075"/>
  <note>
ka_shn
</note>
  <outline>
    <contour>
      <point x="132" y="140" type="curve" smooth="yes"/>
      <point x="191" y="140"/>
      <point x="224" y="181"/>
      <point x="224" y="227" type="curve" smooth="yes"/>
      <point x="224" y="263"/>
      <point x="210" y="292"/>
      <point x="176" y="333" type="curve" smooth="yes"/>
      <point x="139" y="377"/>
      <point x="127" y="409"/>
      <point x="127" y="450" type="curve" smooth="yes"/>
      <point x="127" y="523"/>
      <point x="174" y="576"/>
      <point x="249" y="576" type="curve" smooth="yes"/>
      <point x="345" y="576"/>
      <point x="391" y="500"/>
      <point x="391" y="390" type="curve" smooth="yes"/>
      <point x="391" y="304"/>
      <point x="366" y="244"/>
      <point x="327" y="193" type="curve"/>
      <point x="370" y="140" type="line"/>
      <point x="431" y="189"/>
      <point x="474" y="285"/>
      <point x="474" y="380" type="curve" smooth="yes"/>
      <point x="474" y="533"/>
      <point x="396" y="640"/>
      <point x="250" y="640" type="curve" smooth="yes"/>
      <point x="127" y="640"/>
      <point x="44" y="561"/>
      <point x="44" y="450" type="curve" smooth="yes"/>
      <point x="44" y="387"/>
      <point x="69" y="338"/>
      <point x="106" y="298" type="curve" smooth="yes"/>
      <point x="133" y="270"/>
      <point x="148" y="255"/>
      <point x="148" y="231" type="curve" smooth="yes"/>
      <point x="148" y="214"/>
      <point x="137" y="204"/>
      <point x="121" y="204" type="curve" smooth="yes"/>
      <point x="105" y="204"/>
      <point x="91" y="213"/>
      <point x="77" y="235" type="curve"/>
      <point x="34" y="193" type="line"/>
      <point x="60" y="156"/>
      <point x="91" y="140"/>
    </contour>
  </outline>
</glyph>
<glyph name="kha_shn" format="2">
  <advance width="514"/>
  <unicode hex="1076"/>
  <note>
kha_shn
</note>
  <outline>
    <contour>
      <point x="251" y="140" type="curve" smooth="yes"/>
      <point x="385" y="140"/>
      <point x="475" y="244"/>
      <point x="475" y="391" type="curve" smooth="yes"/>
      <point x="475" y="537"/>
      <point x="409" y="638"/>
      <point x="303" y="638" type="curve" smooth="yes"/>
      <point x="248" y="638"/>
      <point x="221" y="617"/>
      <point x="186" y="566" type="curve" smooth="yes"/>
      <point x="159" y="527"/>
      <point x="150" y="508"/>
      <point x="132" y="508" type="curve" smooth="yes"/>
      <point x="118" y="508"/>
      <point x="108" y="519"/>
      <point x="108" y="541" type="curve" smooth="yes"/>
      <point x="108" y="562"/>
      <point x="117" y="578"/>
      <point x="133" y="598" type="curve"/>
      <point x="82" y="640" type="line"/>
      <point x="55" y="610"/>
      <point x="39" y="583"/>
      <point x="39" y="541" type="curve" smooth="yes"/>
      <point x="39" y="478"/>
      <point x="76" y="444"/>
      <point x="128" y="444" type="curve" smooth="yes"/>
      <point x="170" y="444"/>
      <point x="202" y="469"/>
      <point x="233" y="520" type="curve" smooth="yes"/>
      <point x="259" y="562"/>
      <point x="272" y="574"/>
      <point x="305" y="574" type="curve" smooth="yes"/>
      <point x="357" y="574"/>
      <point x="393" y="508"/>
      <point x="393" y="391" type="curve" smooth="yes"/>
      <point x="393" y="297"/>
      <point x="347" y="204"/>
      <point x="253" y="204" type="curve" smooth="yes"/>
      <point x="197" y="204"/>
      <point x="147" y="232"/>
      <point x="123" y="286" type="curve"/>
      <point x="160" y="309"/>
      <point x="203" y="328"/>
      <point x="246" y="328" type="curve" smooth="yes"/>
      <point x="304" y="328"/>
      <point x="345" y="298"/>
      <point x="382" y="260" type="curve"/>
      <point x="401" y="315" type="line"/>
      <point x="360" y="357"/>
      <point x="308" y="388"/>
      <point x="242" y="388" type="curve" smooth="yes"/>
      <point x="176" y="388"/>
      <point x="119" y="363"/>
      <point x="42" y="308" type="curve"/>
      <point x="64" y="205"/>
      <point x="145" y="140"/>
    </contour>
  </outline>
</glyph>
